<svg width="242" height="143" viewBox="0 0 242 143" fill="none" xmlns="http://www.w3.org/2000/svg">
<path d="M0 140L51.4 0H73.2L124.6 140H103.2L62.2 24L21 140H0ZM23.2 105.4L28.8 89.4H94.6L100.2 105.4H23.2Z" fill="white"/>
<path d="M189.041 142.4C180.774 142.4 173.907 141 168.441 138.2C162.974 135.4 158.907 131.667 156.241 127C153.574 122.2 152.241 117.067 152.241 111.6C152.241 104.933 153.974 99.2667 157.441 94.6C160.907 89.8 165.841 86.1333 172.241 83.6C178.641 81.0667 186.307 79.8 195.241 79.8H221.441C221.441 73.9333 220.574 69.0667 218.841 65.2C217.107 61.3333 214.507 58.4667 211.041 56.6C207.707 54.6 203.441 53.6 198.241 53.6C192.241 53.6 187.107 55.0667 182.841 58C178.574 60.8 175.907 65 174.841 70.6H154.841C155.641 63.5333 158.041 57.5333 162.041 52.6C166.174 47.5333 171.441 43.6667 177.841 41C184.241 38.2 191.041 36.8 198.241 36.8C207.707 36.8 215.641 38.4667 222.041 41.8C228.441 45.1333 233.241 49.8667 236.441 56C239.774 62 241.441 69.2 241.441 77.6V140H224.041L222.441 123C220.974 125.667 219.241 128.2 217.241 130.6C215.241 133 212.841 135.067 210.041 136.8C207.374 138.533 204.241 139.867 200.641 140.8C197.174 141.867 193.307 142.4 189.041 142.4ZM192.841 126.2C197.107 126.2 200.974 125.333 204.441 123.6C207.907 121.867 210.841 119.533 213.241 116.6C215.774 113.533 217.641 110.133 218.841 106.4C220.174 102.533 220.907 98.6 221.041 94.6V94H197.241C191.507 94 186.841 94.7333 183.241 96.2C179.774 97.5333 177.241 99.4 175.641 101.8C174.041 104.2 173.241 107 173.241 110.2C173.241 113.533 173.974 116.4 175.441 118.8C177.041 121.067 179.307 122.867 182.241 124.2C185.174 125.533 188.707 126.2 192.841 126.2Z" fill="white"/>
</svg>
