<svg width="142" height="160" viewBox="0 0 142 160" fill="none" xmlns="http://www.w3.org/2000/svg">
<g clip-path="url(#clip0_17075_11922)">
<path d="M142 105.882C142 111.059 138.45 117.647 134.072 120.471L78.81 157.059C74.4317 159.882 67.3317 159.882 63.0717 157.059L7.92833 120.471C3.55 117.647 0 111.059 0 105.882V54.1177C0 48.9412 3.55 42.3529 7.92833 39.5294L63.0717 2.82352C67.45 -1.09673e-05 74.55 -1.09673e-05 78.9283 2.82352L134.19 39.4118C138.568 42.2353 142.118 48.8235 142.118 54V105.882H142Z" fill="#F38844"/>
<path d="M52.0667 63.5294H89.9334V70.5882H52.0667V63.5294ZM47.3334 75.2941H94.6667V82.3529H47.3334V75.2941ZM41.4167 87.0588H100.583V94.1176H41.4167V87.0588ZM71.0001 36.4706C95.1401 36.4706 114.783 56 114.783 80C114.783 104 95.1401 123.529 71.0001 123.529C46.8601 123.529 27.2167 104 27.2167 80C27.2167 56 46.8601 36.4706 71.0001 36.4706ZM71.0001 32.9412C44.8484 32.9412 23.6667 54 23.6667 80C23.6667 106 44.8484 127.059 71.0001 127.059C97.1517 127.059 118.333 106 118.333 80C118.333 54 97.1517 32.9412 71.0001 32.9412Z" fill="white"/>
<path opacity="0.08" d="M134.072 39.5294L78.9283 2.82352C76.7983 1.41175 73.9583 0.705872 71 0.705872V159.294C73.84 159.294 76.68 158.588 78.9283 157.176L134.19 120.588C138.568 117.765 142.118 111.176 142.118 106V54.1176C142 48.9412 138.45 42.3529 134.072 39.5294Z" fill="black"/>
<path d="M71 5.41176C73.0117 5.41176 74.905 5.88234 76.2067 6.82352L131.468 43.4118C134.545 45.4118 137.267 50.4706 137.267 54.1177V105.882C137.267 109.529 134.545 114.588 131.468 116.588L76.2067 153.176C74.905 154 73.0117 154.588 71 154.588C68.9883 154.588 67.095 154.118 65.7933 153.176L10.5317 116.588C7.455 114.588 4.73333 109.529 4.73333 105.882V54.1177C4.73333 50.4706 7.455 45.4118 10.5317 43.4118L65.7933 6.82352C67.095 5.88234 68.9883 5.41176 71 5.41176ZM71 0.705872C68.16 0.705872 65.32 1.41175 63.0717 2.82352L7.92833 39.5294C3.55 42.3529 0 48.9412 0 54.1177V105.882C0 111.059 3.55 117.647 7.92833 120.471L63.19 157.059C65.32 158.471 68.16 159.176 71.1183 159.176C74.0767 159.176 76.7983 158.471 79.0467 157.059L134.308 120.471C138.687 117.647 142.237 111.059 142.237 105.882V54.1177C142.237 48.9412 138.687 42.3529 134.308 39.5294L78.9283 2.82352C76.68 1.41175 73.84 0.705872 71 0.705872Z" fill="#F38844"/>
</g>
<defs>
<clipPath id="clip0_17075_11922">
<rect width="142" height="160" fill="white"/>
</clipPath>
</defs>
</svg>
