<svg width="140" height="140" viewBox="0 0 140 140" fill="none" xmlns="http://www.w3.org/2000/svg">
<path d="M70.0036 0C31.4021 0 0 31.3996 0 69.9971C0 108.597 31.4035 140 70.0022 140C108.599 140 140 108.597 140 69.9971C140.001 31.4011 108.601 0 70.0036 0ZM7.06423 69.9971C7.06423 60.8747 9.02085 52.2105 12.5137 44.3857L42.5367 126.64C21.5433 116.437 7.06423 94.9088 7.06423 69.9971ZM70.0036 132.937C63.8254 132.937 57.8624 132.031 52.2238 130.373L71.1063 75.5031L90.4559 128.502C90.581 128.815 90.7337 129.1 90.9039 129.369C84.3619 131.67 77.3326 132.937 70.0036 132.937ZM78.6754 40.49C82.4635 40.2907 85.8807 39.8907 85.8807 39.8907C89.2702 39.4892 88.8731 34.5069 85.4777 34.7062C85.4777 34.7062 75.2844 35.5048 68.7016 35.5048C62.519 35.5048 52.1234 34.7062 52.1234 34.7062C48.7309 34.5069 48.3353 39.6914 51.7263 39.8907C51.7263 39.8907 54.9383 40.2907 58.3264 40.49L68.1314 67.3568L54.3579 108.663L31.4428 40.4915C35.2368 40.2936 38.6467 39.8921 38.6467 39.8921C42.0362 39.4921 41.6362 34.5069 38.2423 34.7105C38.2423 34.7105 28.0532 35.5091 21.4691 35.5091C20.2864 35.5091 18.8942 35.4786 17.4191 35.4335C28.6701 18.3452 48.0167 7.06401 70.0036 7.06401C86.3913 7.06401 101.308 13.3279 112.504 23.585C112.232 23.5704 111.969 23.5341 111.686 23.5341C105.507 23.5341 101.119 28.9194 101.119 34.7047C101.119 39.8892 104.109 44.2795 107.299 49.464C109.695 53.6565 112.488 59.0432 112.488 66.8215C112.488 72.2097 110.419 78.4591 107.697 87.1669L101.42 108.145L78.6754 40.49ZM101.643 124.4L120.867 68.8188C124.462 59.8419 125.653 52.6629 125.653 46.2754C125.653 43.9609 125.502 41.8094 125.229 39.8034C130.146 48.7687 132.943 59.0578 132.94 70C132.939 93.217 120.352 113.49 101.643 124.4Z" fill="white"/>
</svg>
