<svg width="60" height="15" viewBox="0 0 60 15" fill="none" xmlns="http://www.w3.org/2000/svg">
<path d="M22.4351 3.35458H19.1148C18.8876 3.35458 18.6944 3.52358 18.6589 3.75322L17.316 12.47C17.2893 12.642 17.4195 12.7971 17.5899 12.7971H19.175C19.4022 12.7971 19.5954 12.6281 19.6309 12.3979L19.993 10.0469C20.028 9.81674 20.2217 9.64775 20.4484 9.64775H21.4995C23.6867 9.64775 24.9489 8.56418 25.2786 6.41692C25.4272 5.47749 25.2849 4.73937 24.8552 4.22243C24.3833 3.6548 23.5464 3.35458 22.4351 3.35458ZM22.8181 6.5382C22.6365 7.75796 21.7262 7.75796 20.8461 7.75796H20.345L20.6965 5.47997C20.7174 5.34229 20.8339 5.24089 20.9699 5.24089H21.1995C21.7991 5.24089 22.3647 5.24089 22.6569 5.59082C22.8312 5.79958 22.8846 6.10974 22.8181 6.5382Z" fill="#253B80"/>
<path d="M32.36 6.49895H30.77C30.6345 6.49895 30.5175 6.60035 30.4967 6.73803L30.4263 7.19333L30.3151 7.02831C29.9709 6.51684 29.2033 6.34586 28.4372 6.34586C26.6802 6.34586 25.1796 7.70827 24.8873 9.61943C24.7353 10.5728 24.9514 11.4844 25.4796 12.1201C25.9641 12.7046 26.6574 12.9482 27.4822 12.9482C28.8979 12.9482 29.683 12.0162 29.683 12.0162L29.6121 12.4685C29.5854 12.6415 29.7155 12.7966 29.8849 12.7966H31.3171C31.5448 12.7966 31.7371 12.6276 31.773 12.3975L32.6323 6.82601C32.6595 6.65452 32.5299 6.49895 32.36 6.49895ZM30.1437 9.66715C29.9903 10.5971 29.2693 11.2214 28.3498 11.2214C27.8881 11.2214 27.5191 11.0698 27.2822 10.7825C27.0472 10.4972 26.9579 10.0911 27.0327 9.63882C27.1759 8.71679 27.909 8.07211 28.8144 8.07211C29.2659 8.07211 29.633 8.2257 29.8747 8.51548C30.117 8.80825 30.2131 9.21682 30.1437 9.66715Z" fill="#253B80"/>
<path d="M40.8279 6.49893H39.2301C39.0777 6.49893 38.9344 6.57647 38.848 6.7062L36.6444 10.0295L35.7103 6.83593C35.6515 6.63612 35.4714 6.49893 35.2675 6.49893H33.6974C33.5066 6.49893 33.3741 6.6898 33.4348 6.87371L35.1947 12.1613L33.5401 14.5527C33.41 14.741 33.5411 15 33.7659 15H35.3617C35.5132 15 35.6549 14.9244 35.7409 14.7972L41.0551 6.94379C41.1823 6.75591 41.0517 6.49893 40.8279 6.49893Z" fill="#253B80"/>
<path d="M46.1177 3.35458H42.797C42.5703 3.35458 42.377 3.52358 42.3416 3.75322L40.9987 12.47C40.972 12.642 41.1021 12.7971 41.2716 12.7971H42.9756C43.1339 12.7971 43.2694 12.6788 43.2941 12.5177L43.6752 10.0469C43.7102 9.81674 43.9039 9.64775 44.1306 9.64775H45.1812C47.3689 9.64775 48.6306 8.56418 48.9608 6.41692C49.1098 5.47749 48.9666 4.73937 48.5369 4.22243C48.0655 3.6548 47.229 3.35458 46.1177 3.35458ZM46.5008 6.5382C46.3197 7.75796 45.4094 7.75796 44.5287 7.75796H44.0282L44.3802 5.47997C44.4011 5.34229 44.5166 5.24089 44.653 5.24089H44.8827C45.4818 5.24089 46.0478 5.24089 46.3401 5.59082C46.5144 5.79958 46.5673 6.10974 46.5008 6.5382Z" fill="#179BD7"/>
<path d="M56.0422 6.49895H54.4532C54.3168 6.49895 54.2007 6.60035 54.1804 6.73803L54.11 7.19333L53.9983 7.02831C53.6541 6.51684 52.887 6.34586 52.1209 6.34586C50.3639 6.34586 48.8637 7.70827 48.5715 9.61943C48.42 10.5728 48.6351 11.4844 49.1633 12.1201C49.6488 12.7046 50.3411 12.9482 51.1659 12.9482C52.5816 12.9482 53.3667 12.0162 53.3667 12.0162L53.2958 12.4685C53.2691 12.6415 53.3992 12.7966 53.5696 12.7966H55.0013C55.228 12.7966 55.4213 12.6276 55.4567 12.3975L56.3165 6.82601C56.3427 6.65452 56.2126 6.49895 56.0422 6.49895ZM53.826 9.66715C53.6735 10.5971 52.9516 11.2214 52.0321 11.2214C51.5713 11.2214 51.2014 11.0698 50.9645 10.7825C50.7295 10.4972 50.6411 10.0911 50.7149 9.63882C50.8591 8.71679 51.5912 8.07211 52.4967 8.07211C52.9482 8.07211 53.3152 8.2257 53.557 8.51548C53.8002 8.80825 53.8963 9.21682 53.826 9.66715Z" fill="#179BD7"/>
<path d="M57.9167 3.59367L56.5539 12.47C56.5272 12.642 56.6573 12.7971 56.8267 12.7971H58.1968C58.4245 12.7971 58.6177 12.6281 58.6527 12.3979L59.9965 3.68165C60.0232 3.50967 59.8931 3.3541 59.7237 3.3541H58.1895C58.0541 3.35459 57.9376 3.45599 57.9167 3.59367Z" fill="#179BD7"/>
<path d="M3.52755 14.491L3.78146 12.8398L3.21586 12.8264H0.515076L2.39199 0.642212C2.39781 0.605431 2.41675 0.571134 2.44442 0.546779C2.47209 0.522423 2.50753 0.509003 2.54443 0.509003H7.09834C8.61016 0.509003 9.65348 0.831092 10.1982 1.46682C10.4536 1.76505 10.6162 2.0767 10.6949 2.41967C10.7774 2.77953 10.7788 3.20948 10.6983 3.73387L10.6924 3.77214V4.10815L10.9478 4.25627C11.1629 4.37308 11.3338 4.50678 11.4648 4.65988C11.6833 4.91486 11.8246 5.23894 11.8843 5.62316C11.946 6.01832 11.9256 6.48853 11.8246 7.02087C11.7081 7.63324 11.5197 8.16657 11.2653 8.60298C11.0313 9.0051 10.7332 9.33862 10.3793 9.59708C10.0414 9.84263 9.63988 10.029 9.18595 10.1483C8.7461 10.2656 8.24458 10.3248 7.69452 10.3248H7.34011C7.08669 10.3248 6.84054 10.4182 6.64732 10.5857C6.45361 10.7567 6.32544 10.9903 6.28611 11.2458L6.25941 11.3944L5.81082 14.3047L5.79042 14.4115C5.78508 14.4453 5.77586 14.4622 5.76227 14.4737C5.75013 14.4841 5.73265 14.491 5.71566 14.491H3.52755Z" fill="#253B80"/>
<path d="M11.1896 3.81091C11.176 3.89989 11.1605 3.99085 11.143 4.08429C10.5425 7.24106 8.48786 8.33159 5.86378 8.33159H4.5277C4.20679 8.33159 3.93638 8.57018 3.88637 8.89425L3.20231 13.3359L3.0086 14.5949C2.97607 14.8077 3.13629 14.9995 3.34602 14.9995H5.7157C5.99632 14.9995 6.23469 14.7908 6.27887 14.5075L6.30218 14.3842L6.74834 11.4854L6.77699 11.3263C6.82068 11.042 7.05954 10.8333 7.34016 10.8333H7.69456C9.99045 10.8333 11.7877 9.87891 12.313 7.1173C12.5325 5.96364 12.4189 5.00036 11.8382 4.32288C11.6625 4.11859 11.4445 3.94909 11.1896 3.81091Z" fill="#179BD7"/>
<path d="M10.5614 3.55443C10.4696 3.52709 10.3749 3.50224 10.2778 3.47987C10.1803 3.458 10.0803 3.43862 9.97733 3.42172C9.61709 3.36207 9.22239 3.33374 8.79953 3.33374H5.23019C5.14232 3.33374 5.05881 3.35412 4.98405 3.3909C4.81947 3.47192 4.69712 3.63147 4.66751 3.82681L3.9082 8.7506L3.88635 8.89425C3.93636 8.57017 4.20678 8.33159 4.52769 8.33159H5.86376C8.48784 8.33159 10.5424 7.24056 11.143 4.08429C11.161 3.99084 11.176 3.89988 11.1896 3.81091C11.0376 3.7284 10.8731 3.65782 10.6959 3.59767C10.6522 3.58276 10.607 3.56835 10.5614 3.55443Z" fill="#222D65"/>
<path d="M4.66751 3.8268C4.69712 3.63145 4.81947 3.4719 4.98405 3.39138C5.0593 3.3546 5.14232 3.33422 5.23019 3.33422H8.79952C9.22239 3.33422 9.61709 3.36255 9.97733 3.4222C10.0803 3.4391 10.1803 3.45848 10.2778 3.48035C10.3749 3.50272 10.4696 3.52757 10.5614 3.55491C10.607 3.56883 10.6522 3.58324 10.6963 3.59766C10.8735 3.6578 11.0381 3.72888 11.1901 3.81089C11.3687 2.64431 11.1886 1.85002 10.5725 1.13079C9.89334 0.338989 8.66747 0 7.09885 0H2.54494C2.22452 0 1.95118 0.238585 1.90166 0.563159L0.00484949 12.8726C-0.0325333 13.1162 0.150982 13.3359 0.390815 13.3359H3.2023L3.9082 8.75058L4.66751 3.8268Z" fill="#253B80"/>
</svg>
