<svg width="150" height="32" viewBox="0 0 150 32" fill="none" xmlns="http://www.w3.org/2000/svg">
<path d="M0 24.9005L8.16789 2.9377C8.56518 1.93515 9.13775 1.20073 9.8856 0.734425C10.6334 0.244808 11.4865 0 12.4446 0C13.4262 0 14.2909 0.233151 15.0387 0.699453C15.8099 1.16575 16.3825 1.90018 16.7564 2.90273L24.9594 24.9005H20.3671L18.4741 19.4798H6.34501L4.38191 24.9005H0ZM7.607 15.7727H17.2122L13.286 4.33661C13.1925 4.10346 13.0756 3.9286 12.9354 3.81202C12.8186 3.69545 12.6667 3.63716 12.4797 3.63716C12.2927 3.63716 12.1408 3.7071 12.024 3.84699C11.9071 3.96357 11.8136 4.12678 11.7435 4.33661L7.607 15.7727Z" fill="#696E73"/>
<path d="M27.4086 24.9005V14.6186C27.4086 13.0798 27.7591 11.7158 28.4603 10.5268C29.1614 9.31439 30.1546 8.37013 31.44 7.69399C32.7253 6.99454 34.2327 6.64481 35.9621 6.64481C37.6915 6.64481 39.1872 6.99454 40.4492 7.69399C41.7345 8.37013 42.7278 9.31439 43.4289 10.5268C44.13 11.7158 44.4805 13.0798 44.4805 14.6186V24.9005H40.4842V14.6536C40.4842 13.7443 40.2739 12.9515 39.8532 12.2754C39.4326 11.576 38.8717 11.0397 38.1706 10.6667C37.4928 10.2703 36.745 10.0721 35.927 10.0721C35.1324 10.0721 34.3846 10.2703 33.6835 10.6667C33.0058 11.0397 32.4566 11.576 32.0359 12.2754C31.6386 12.9515 31.44 13.7443 31.44 14.6536V24.9005H27.4086Z" fill="#696E73"/>
<path d="M55.934 25.3202C54.9992 25.3202 54.1579 25.0638 53.41 24.5508C52.6856 24.0379 52.1597 23.3501 51.8326 22.4874L46.3639 7.06448H50.7458L55.4082 20.9137C55.4783 21.0769 55.5601 21.1934 55.6536 21.2634C55.7471 21.3333 55.8522 21.3683 55.9691 21.3683C56.0859 21.3683 56.1911 21.3333 56.2846 21.2634C56.4014 21.1934 56.4832 21.0769 56.53 20.9137L61.2274 7.06448H65.5392L60.0355 22.4874C59.7317 23.3501 59.2059 24.0379 58.458 24.5508C57.7102 25.0638 56.8688 25.3202 55.934 25.3202Z" fill="#696E73"/>
<path d="M76.3228 25.3202C74.4766 25.3202 72.8406 24.9122 71.4151 24.0962C69.9895 23.2568 68.856 22.1377 68.0147 20.7388C67.1967 19.3166 66.7878 17.7311 66.7878 15.9825C66.7878 14.2339 67.1967 12.6601 68.0147 11.2612C68.856 9.83898 69.9895 8.71985 71.4151 7.90382C72.8406 7.06448 74.4766 6.64481 76.3228 6.64481C78.1457 6.64481 79.7699 7.06448 81.1955 7.90382C82.6211 8.71985 83.7428 9.83898 84.5608 11.2612C85.4021 12.6601 85.8228 14.2339 85.8228 15.9825C85.8228 17.7311 85.4021 19.3166 84.5608 20.7388C83.7428 22.1377 82.6211 23.2568 81.1955 24.0962C79.7699 24.9122 78.1457 25.3202 76.3228 25.3202ZM76.3228 21.8929C77.4212 21.8929 78.3794 21.6364 79.1973 21.1235C80.0153 20.5873 80.6463 19.8761 81.0903 18.9902C81.5344 18.0809 81.7564 17.0783 81.7564 15.9825C81.7564 14.8867 81.5344 13.8958 81.0903 13.0098C80.6463 12.1005 80.0153 11.3894 79.1973 10.8765C78.3794 10.3403 77.4212 10.0721 76.3228 10.0721C75.201 10.0721 74.2312 10.3403 73.4132 10.8765C72.6186 11.3894 71.9876 12.1005 71.5202 13.0098C71.0762 13.8958 70.8542 14.8867 70.8542 15.9825C70.8542 17.0783 71.0762 18.0809 71.5202 18.9902C71.9876 19.8761 72.6186 20.5873 73.4132 21.1235C74.2312 21.6364 75.201 21.8929 76.3228 21.8929Z" fill="#696E73"/>
<path d="M98.199 25.3202C96.4696 25.3202 94.9622 24.9822 93.6768 24.306C92.3915 23.6066 91.3982 22.6506 90.6971 21.4383C89.996 20.2259 89.6455 18.8619 89.6455 17.3464V7.06448H93.6768V17.3115C93.6768 18.2208 93.8755 19.0251 94.2728 19.7246C94.6934 20.4007 95.2426 20.937 95.9203 21.3333C96.6215 21.7064 97.381 21.8929 98.199 21.8929C99.0169 21.8929 99.7647 21.7064 100.442 21.3333C101.144 20.937 101.693 20.4007 102.09 19.7246C102.511 19.0251 102.721 18.2208 102.721 17.3115V7.06448H106.752V17.3464C106.752 18.8619 106.39 20.2259 105.666 21.4383C104.965 22.6506 103.971 23.6066 102.686 24.306C101.424 24.9822 99.9283 25.3202 98.199 25.3202Z" fill="#696E73"/>
<path d="M114.289 32V28.5727H123.263C123.87 28.5727 124.338 28.3862 124.665 28.0131C125.015 27.6401 125.191 27.1738 125.191 26.6142V21.9978H125.156C124.642 22.6273 124.092 23.1752 123.508 23.6415C122.924 24.0845 122.258 24.4342 121.51 24.6907C120.785 24.9239 119.979 25.0404 119.091 25.0404C117.455 25.0404 115.995 24.6557 114.709 23.8863C113.424 23.1169 112.407 22.0444 111.659 20.6689C110.935 19.2699 110.573 17.6729 110.573 15.8776C110.573 14.129 110.935 12.5668 111.659 11.1913C112.407 9.79235 113.471 8.68488 114.849 7.86885C116.228 7.05282 117.911 6.64481 119.897 6.64481C121.79 6.64481 123.426 7.04117 124.805 7.83388C126.207 8.62659 127.294 9.74572 128.065 11.1913C128.836 12.6135 129.222 14.2805 129.222 16.1924V26.7891C129.222 28.3978 128.755 29.6685 127.82 30.6011C126.885 31.5337 125.611 32 123.999 32H114.289ZM119.862 21.6131C120.937 21.6131 121.86 21.3683 122.632 20.8787C123.426 20.3658 124.034 19.6896 124.455 18.8503C124.899 17.9876 125.121 17.0317 125.121 15.9825C125.121 14.8634 124.91 13.8608 124.49 12.9749C124.069 12.0889 123.461 11.3894 122.667 10.8765C121.896 10.3403 120.961 10.0721 119.862 10.0721C118.787 10.0721 117.852 10.3403 117.058 10.8765C116.287 11.3894 115.691 12.0889 115.27 12.9749C114.849 13.8375 114.639 14.8168 114.639 15.9126C114.639 16.9618 114.849 17.9177 115.27 18.7803C115.691 19.643 116.287 20.3308 117.058 20.8437C117.852 21.3567 118.787 21.6131 119.862 21.6131Z" fill="#696E73"/>
<path d="M142.954 24.9005C140.944 24.9005 139.18 24.5275 137.661 23.7814C136.165 23.012 134.996 21.9628 134.155 20.6339C133.314 19.2816 132.893 17.7311 132.893 15.9825C132.893 14.1406 133.267 12.5202 134.015 11.1213C134.763 9.7224 135.791 8.62659 137.1 7.83388C138.408 7.04117 139.916 6.64481 141.622 6.64481C143.538 6.64481 145.116 7.05282 146.354 7.86885C147.593 8.68488 148.504 9.78069 149.089 11.1563C149.696 12.5319 150 14.0707 150 15.7727C150 16.0058 149.988 16.274 149.965 16.5771C149.942 16.8801 149.907 17.1133 149.86 17.2765H137.17C137.31 18.2091 137.649 18.9902 138.186 19.6197C138.724 20.2259 139.402 20.6922 140.22 21.0186C141.038 21.3217 141.949 21.4732 142.954 21.4732H147.756V24.9005H142.954ZM137.135 14.5486H145.969C145.945 14.1056 145.875 13.6627 145.758 13.2197C145.665 12.7767 145.501 12.357 145.268 11.9607C145.057 11.5643 144.777 11.2262 144.426 10.9464C144.099 10.6434 143.702 10.4102 143.234 10.247C142.767 10.0605 142.229 9.96721 141.622 9.96721C140.921 9.96721 140.301 10.1071 139.764 10.3869C139.226 10.6434 138.771 10.9931 138.397 11.4361C138.023 11.8557 137.731 12.3454 137.52 12.9049C137.333 13.4412 137.205 13.9891 137.135 14.5486Z" fill="#696E73"/>
</svg>
