<svg width="128" height="36" viewBox="0 0 128 36" fill="none" xmlns="http://www.w3.org/2000/svg">
<path d="M14.234 29.6637C13.2426 31.1225 12.1541 32.2856 10.9634 33.166C9.77282 34.04 8.60164 34.4834 7.45475 34.4834C5.85592 34.4834 4.6653 33.6609 3.87803 32.0093C3.09076 30.3578 2.69712 28.3142 2.69712 25.8722C2.69712 22.6012 3.29973 19.0347 4.50007 15.166C5.70041 11.2974 7.19233 8.03287 8.97097 5.37239C10.7496 2.71191 12.4116 1.38167 13.9619 1.38167C14.5256 1.38167 14.9387 1.5616 15.2108 1.91505C15.483 2.27492 15.6142 2.76332 15.6142 3.38667C15.6142 4.5434 15.2205 6.02144 14.4333 7.80152C13.646 9.58803 12.8344 11.1046 12.0034 12.3513C12.2513 13.0389 12.6012 13.3795 13.0482 13.3795C13.6314 13.3795 14.2292 12.8461 14.8366 11.773C15.4441 10.6998 15.9495 9.40809 16.3528 7.89149C16.7562 6.37489 16.9603 5.03822 16.9603 3.87506C16.9603 2.5641 16.6833 1.60016 16.1341 0.976811C15.585 0.353462 14.822 0.0385742 13.855 0.0385742C11.7653 0.0385742 9.63675 1.31098 7.47905 3.85578C5.32135 6.40059 3.53299 9.62658 2.11396 13.5338C0.709514 17.4474 0 21.3096 0 25.1139C0 27.0482 0.228405 28.8412 0.690075 30.4927C1.15174 32.1443 1.8807 33.4745 2.88179 34.4834C3.88289 35.4924 5.13669 36 6.64319 36C8.78145 36 10.7545 35.0104 12.5623 33.0311C14.3749 31.0518 15.8863 28.4877 17.1012 25.3388L16.6298 24.8954C16.0224 26.6177 15.2254 28.2114 14.234 29.6637Z" fill="#696E73"/>
<path d="M35.1172 30.0877C34.1258 31.3216 33.3046 31.9385 32.6534 31.9385C32.2694 31.9385 31.9827 31.7393 31.7932 31.3344C31.6037 30.936 31.5065 30.4797 31.5065 29.9721C31.5065 29.4065 31.6182 28.7896 31.8418 28.1213C32.0653 27.453 32.3715 26.6882 32.7506 25.8207C32.7943 25.7307 32.9255 25.4287 33.1393 24.9081C33.3532 24.3876 33.4601 24.0085 33.4601 23.7707C33.4601 23.4751 33.3094 23.2309 33.0033 23.0317C32.702 22.8389 32.4007 22.7104 32.1091 22.6525C30.7143 25.358 29.412 27.6586 28.197 29.5415C26.9821 31.4308 25.9227 32.3755 25.0237 32.3755C24.4162 32.3755 24.1149 31.7971 24.1149 30.634C24.1149 29.1752 24.4794 27.4401 25.2132 25.4158C25.9421 23.3915 26.8558 21.6564 27.9443 20.1977C29.0329 18.7389 30.0729 18.0127 31.0642 18.0127C31.628 18.0127 32.041 18.2441 32.3132 18.7068C32.5853 19.1695 32.7165 19.7671 32.7165 20.5126C32.7165 21.0202 32.6582 21.5408 32.5464 22.0742C33.0616 22.0742 33.4698 21.9264 33.7614 21.6307C34.0529 21.3351 34.1987 20.8403 34.1987 20.1591C34.1987 19.1759 33.9072 18.3726 33.324 17.7493C32.7408 17.1259 32.007 16.811 31.1323 16.811C29.7375 16.811 28.3088 17.5693 26.846 19.0859C25.3833 20.6025 24.1732 22.4469 23.2207 24.619C22.2634 26.791 21.7871 28.7511 21.7871 30.5054C21.7871 31.6943 22.0155 32.6068 22.4772 33.2495C22.9389 33.8857 23.5415 34.207 24.2801 34.207C25.0674 34.207 25.8595 33.7893 26.6565 32.9603C27.4535 32.1249 28.3623 30.8203 29.3731 29.0338C29.305 29.5094 29.271 29.9399 29.271 30.3255C29.271 31.1866 29.48 31.9256 29.8931 32.5361C30.311 33.1466 30.9087 33.4487 31.696 33.4487C32.4833 33.4487 33.3046 33.1081 34.1599 32.4205C35.0152 31.7393 35.8122 30.7753 36.5557 29.5415C37.2992 28.3076 37.9067 26.9003 38.3781 25.3259L38.0427 24.8824C37.0854 27.1252 36.1086 28.8539 35.1172 30.0877Z" fill="#696E73"/>
<path d="M55.1586 27.948C54.5074 29.0019 53.793 29.8887 53.0155 30.602C52.2379 31.3154 51.5139 31.6752 50.8384 31.6752C50.1629 31.6752 49.8275 31.2318 49.8275 30.3386C49.8275 29.7152 50.0754 28.687 50.5711 27.2604C50.887 26.2193 51.1202 25.3775 51.2806 24.7413C51.4361 24.1051 51.5187 23.456 51.5187 22.8005C51.5187 21.7916 51.3195 20.9626 50.9307 20.3264C50.5371 19.6838 49.9928 19.0412 49.293 18.3857C48.8653 18.0001 48.5543 17.6788 48.3648 17.4282C48.1753 17.1775 48.0781 16.9012 48.0781 16.6056C48.1024 16.4578 48.1655 16.175 48.2822 15.7573C48.3939 15.3396 48.4523 15.0761 48.4523 14.954C48.4523 14.2407 48.2967 13.8809 47.9809 13.8809C47.8448 13.8809 47.6601 14.0158 47.422 14.2793C47.1839 14.5492 46.9846 14.9219 46.8145 15.3975C46.6445 15.873 46.5618 16.3807 46.5618 16.9141C46.5618 17.3318 46.6736 17.6852 46.8972 17.9873C46.1536 20.8727 45.2449 23.7002 44.166 26.4635L44.4673 27.2218C44.8512 26.3607 45.3226 25.1333 45.8863 23.5396C46.4501 21.9523 46.9749 20.32 47.4706 18.6556C47.5824 18.7456 47.7962 18.9319 48.1121 19.2147C48.428 19.4974 48.7147 19.8573 48.9722 20.2879C49.2298 20.7184 49.361 21.3096 49.361 22.0487C49.361 22.5563 49.2881 23.0961 49.1423 23.6745C48.9965 24.2529 48.7779 25.0369 48.4863 26.0137C47.8351 27.9159 47.5095 29.3746 47.5095 30.3835C47.5095 31.2447 47.7282 31.9451 48.1655 32.4785C48.6029 33.0119 49.2055 33.2818 49.9685 33.2818C51.3195 33.2818 52.6559 32.4914 53.9826 30.9169C55.3093 29.3425 56.3201 27.5239 57.0199 25.4739L56.5825 25.0305C56.2812 25.9173 55.8098 26.8941 55.1586 27.948Z" fill="#696E73"/>
<path d="M73.9795 27.4597C73.2845 27.9802 72.609 28.2373 71.9578 28.2373C71.5059 28.2373 71.0831 28.0895 70.6749 27.7939C71.3504 26.4572 71.8947 25.082 72.3126 23.6682C72.7305 22.2544 72.9346 20.982 72.9346 19.8574C72.9346 18.7842 72.7597 17.9488 72.4098 17.3383C72.0599 16.7278 71.4573 16.4258 70.6068 16.4258C69.596 16.4258 68.7893 16.9784 68.1964 18.0773C67.5987 19.1762 67.3023 20.5 67.3023 22.0488C67.3023 23.2376 67.4772 24.3815 67.8271 25.4868C68.177 26.5857 68.663 27.479 69.2947 28.1666C68.663 29.2398 68.0215 30.1009 67.3703 30.7564C66.7191 31.4119 66.1554 31.7396 65.684 31.7396C64.8724 31.7396 64.4691 30.8913 64.4691 29.1948C64.4691 28.4815 64.61 27.5497 64.8919 26.4058C65.1737 25.2619 65.5042 24.1823 65.8881 23.1734C66.272 22.1644 66.5976 21.509 66.8649 21.2134C66.5927 21.0656 66.3595 20.9884 66.1554 20.9884C65.5479 20.9884 64.9405 21.4319 64.333 22.3251C63.7255 23.2184 63.2298 24.3301 62.8508 25.6732C62.4669 27.0099 62.2773 28.2887 62.2773 29.5097C62.2773 30.7307 62.4912 31.7139 62.9188 32.4529C63.3465 33.1984 64.022 33.5711 64.9453 33.5711C65.7569 33.5711 66.617 33.1405 67.5258 32.2794C68.4346 31.4183 69.2947 30.2873 70.1063 28.8863C70.5777 29.1819 71.1171 29.3297 71.7246 29.3297C72.5556 29.3297 73.3671 29.0149 74.1544 28.3915C74.9417 27.7682 75.5491 26.8042 75.9768 25.4933L75.5734 25.0498C75.2041 26.1295 74.6793 26.9392 73.9795 27.4597ZM69.8973 26.9906C69.5134 26.3929 69.2267 25.6732 69.0372 24.8249C68.8476 23.9767 68.7504 23.0898 68.7504 22.1709C68.7504 21.3355 68.8574 20.5707 69.0712 19.8703C69.285 19.1698 69.5523 18.6236 69.8828 18.2187C70.2084 17.8203 70.5291 17.6146 70.845 17.6146C71.1366 17.6146 71.3795 17.8203 71.5691 18.238C71.7586 18.6557 71.8558 19.279 71.8558 20.1145C71.8558 21.1234 71.676 22.2351 71.3164 23.4369C70.9567 24.645 70.4854 25.8274 69.8973 26.9906Z" fill="#696E73"/>
<path d="M92.2645 0C91.5016 0 90.2575 1.84434 88.5372 5.53303C86.8168 9.22171 85.2569 13.3602 83.867 17.955C82.4723 22.5498 81.7773 26.1871 81.7773 28.8604C81.7773 30.2613 81.996 31.3731 82.4334 32.2085C82.8708 33.0439 83.5511 33.4552 84.4745 33.4552C86.7682 33.4552 88.8822 30.7176 90.8164 25.2489L90.3109 24.8954C89.6354 26.8554 88.8676 28.5391 87.9977 29.9336C87.1327 31.3345 86.2823 32.0286 85.4513 32.0286C84.4599 32.0286 83.9691 30.8847 83.9691 28.5905C83.9691 27.3117 84.1149 25.8079 84.4064 24.0857C85.9567 22.3892 87.4194 20.1785 88.7899 17.4409C90.1603 14.7033 91.2683 12.0043 92.1139 9.34381C92.9595 6.68333 93.3774 4.66548 93.3774 3.29668C93.3774 2.55123 93.2705 1.81864 93.0567 1.08604C92.8428 0.366298 92.5756 0 92.2645 0ZM91.2148 9.25384C90.4713 11.5287 89.5091 13.9065 88.3331 16.3934C87.1522 18.874 85.9421 20.9368 84.7077 22.5691C85.2909 19.8893 86.1025 17.081 87.1376 14.1378C88.1727 11.1946 89.1786 8.70118 90.1554 6.66405C91.1322 4.62692 91.7786 3.60514 92.0944 3.60514C92.25 3.60514 92.3326 3.84291 92.3326 4.31846C92.3326 5.34024 91.9584 6.97894 91.2148 9.25384Z" fill="#696E73"/>
<path d="M101.863 12.467C102.121 12.7176 102.451 12.8461 102.86 12.8461C103.399 12.8461 103.9 12.5891 104.362 12.0685C104.823 11.548 105.052 11.0082 105.052 10.4427C105.052 9.52373 104.682 9.06104 103.939 9.06104C103.375 9.06104 102.826 9.29881 102.286 9.77435C101.747 10.2499 101.475 10.7833 101.475 11.3809C101.475 11.85 101.601 12.2163 101.863 12.467Z" fill="#696E73"/>
<path d="M99.9551 31.7202C99.3719 31.7202 98.9491 31.5339 98.6915 31.1612C98.4339 30.7884 98.3027 30.0815 98.3027 29.0405C98.3027 27.8838 98.5214 26.6563 98.9588 25.3582C99.3962 24.0665 99.9892 22.6014 100.728 20.9627C101.447 19.3882 101.807 18.3921 101.807 17.9744C101.807 17.6788 101.734 17.4411 101.588 17.2611C101.442 17.0812 101.267 16.9912 101.063 16.9912C100.344 16.9912 99.6052 17.7624 98.8519 19.3111C98.0986 20.8598 97.4668 22.6592 96.9613 24.7092C96.4559 26.7592 96.2031 28.3657 96.2031 29.5289C96.2031 30.6278 96.4267 31.5275 96.8787 32.2279C97.3307 32.9284 97.9673 33.2754 98.8033 33.2754C100.154 33.2754 101.442 32.5749 102.667 31.1804C103.892 29.7795 104.82 27.8323 105.452 25.3389L105.151 24.8955C103.445 29.4453 101.71 31.7202 99.9551 31.7202Z" fill="#696E73"/>
<path d="M125.274 29.8435C124.453 31.1802 123.66 31.8485 122.898 31.8485C122.222 31.8485 121.887 31.283 121.887 30.152C121.887 29.6764 121.945 29.2009 122.057 28.7254C122.169 28.2498 122.329 27.6843 122.528 27.0288C122.776 26.2577 122.961 25.5701 123.087 24.9788C123.209 24.3812 123.272 23.7578 123.272 23.1024C123.272 22.0035 123.063 21.0588 122.65 20.2684C122.232 19.4779 121.61 19.0859 120.779 19.0859C119.607 19.0859 118.417 19.8442 117.202 21.3608C115.987 22.8774 114.84 24.7346 113.761 26.9388C114.077 25.6921 114.335 24.5097 114.539 23.3915C114.743 22.2734 114.84 21.4958 114.84 21.0524C114.84 20.2812 114.539 19.8956 113.931 19.8956C113.64 19.8956 113.348 19.992 113.052 20.1848C112.76 20.3776 112.537 20.5961 112.376 20.8339C112.352 22.0549 112.162 23.443 111.803 25.0045C111.443 26.5661 110.982 28.3012 110.418 30.2034C110.126 31.1288 109.98 31.6622 109.98 31.81C110.16 32.1377 110.408 32.3819 110.724 32.549C111.04 32.7096 111.385 32.7932 111.769 32.7932C112.692 30.7432 113.518 28.9888 114.247 27.5301C114.976 26.0713 115.812 24.7475 116.745 23.5586C117.678 22.3698 118.572 21.7721 119.428 21.7721C120.327 21.7721 120.779 22.4983 120.779 23.9571C120.779 24.4326 120.73 24.966 120.628 25.5636C120.526 26.1613 120.409 26.7204 120.273 27.2602C120.162 27.7678 120.055 28.2819 119.953 28.796C119.85 29.3166 119.802 29.7728 119.802 30.1584C119.802 31.0195 120.006 31.7136 120.409 32.2341C120.813 32.7546 121.401 33.0117 122.164 33.0117C124.433 33.0117 126.382 30.499 128 25.4737L127.631 24.8953C126.878 26.8553 126.095 28.5069 125.274 29.8435Z" fill="#696E73"/>
</svg>
