<svg width="109" height="44" viewBox="0 0 109 44" fill="none" xmlns="http://www.w3.org/2000/svg">
<path d="M4.26256 33.9708C2.8117 32.9422 1.73679 31.6092 1.04314 29.9665C0.349477 28.3239 0 26.55 0 24.645C0 20.8611 0.937233 17.0563 2.82229 13.2252C4.70205 9.39407 7.10603 6.24522 10.0395 3.76288C12.9677 1.28579 15.9171 0.0419922 18.877 0.0419922C20.2697 0.0419922 21.3869 0.367373 22.2288 1.00764C23.0708 1.65315 23.4944 2.66603 23.4944 4.04628C23.4944 5.22185 23.219 6.57061 22.6736 8.0978C22.1282 9.62499 21.4293 10.9213 20.5874 11.9919C19.7454 13.0625 18.8929 13.5978 18.0351 13.5978C17.2938 13.5978 16.6902 13.1412 16.2136 12.2333C17.3362 11 18.427 9.53577 19.4754 7.83014C20.5238 6.12977 21.0533 4.74952 21.0533 3.69466C21.0533 2.55057 20.3862 1.97853 19.0571 1.97853C16.9867 1.97853 14.7892 3.22758 12.4647 5.72042C10.1401 8.21325 8.20212 11.2781 6.65065 14.9203C5.09919 18.5572 4.3208 21.9317 4.3208 25.0439C4.3208 27.3897 4.85561 29.3735 5.91993 30.9847C6.98424 32.5958 8.59925 33.404 10.7597 33.404C12.3005 33.404 13.8679 32.9737 15.467 32.1078C17.0661 31.2418 18.5329 30.0925 19.8619 28.6545C21.1963 27.2166 22.2606 25.6631 23.0602 23.989L24.2145 24.7395C22.5254 27.9093 20.4338 30.4966 17.9345 32.5066C15.4352 34.5166 12.6871 35.5243 9.70063 35.5243C7.51905 35.5138 5.71342 34.9995 4.26256 33.9708Z" fill="#696E73"/>
<path d="M22.6401 31.9496C22.3436 31.0102 22.1953 29.8242 22.1953 28.3862C22.1953 25.7464 23.0319 22.162 24.7052 17.6276C26.3784 13.0933 28.2953 9.068 30.4557 5.54654C32.6161 2.02507 34.3793 0.261719 35.7402 0.261719C36.3332 0.261719 36.7992 0.5871 37.1381 1.23261C37.477 1.87813 37.6464 2.59711 37.6464 3.38958C37.6464 4.73833 37.1487 6.54367 36.1585 8.80035C35.1683 11.057 33.8657 13.2402 32.2507 15.3342C30.6357 17.4334 28.973 18.9816 27.2574 19.9788C26.2514 22.6185 25.7483 25.1114 25.7483 27.4625L25.7907 28.3862C25.8489 28.297 25.9813 27.9768 26.1931 27.4205C26.7862 25.8933 27.4057 24.5183 28.057 23.285C28.7083 22.0518 29.6032 20.9024 30.7416 19.8318C31.8801 18.7612 33.2038 18.2259 34.7129 18.2259C36.0738 18.2259 37.064 18.6615 37.6888 19.5222C38.3083 20.3881 38.6207 21.4062 38.6207 22.5818C38.6207 23.2588 38.5307 23.8886 38.356 24.4711C38.1759 25.0589 37.9112 25.8041 37.5564 26.7173C37.4982 26.8328 37.387 27.1057 37.2228 27.5307C37.0587 27.9558 36.9422 28.339 36.868 28.6748C36.7939 29.0107 36.7568 29.3151 36.7568 29.5775C36.7568 30.5169 37.154 30.984 37.9535 30.984C38.6048 30.984 39.3726 30.6586 40.2622 30.0131C41.1518 29.3676 42.0255 28.5016 42.8833 27.4153C43.7411 26.3289 44.4824 25.1586 45.1019 23.8938L45.8115 24.6443C44.7154 27.0479 43.3916 29.0002 41.8401 30.4959C40.2887 31.9916 38.6207 32.7421 36.8469 32.7421C35.7508 32.7421 34.8983 32.4587 34.2946 31.8867C33.6857 31.3146 33.3839 30.5746 33.3839 29.6615C33.3839 29.0737 33.5904 28.0188 34.0034 26.4916C34.4482 25.0537 34.6706 23.983 34.6706 23.2798C34.6706 22.0465 34.1358 21.4325 33.0715 21.4325C32.0071 21.4325 31.1123 21.9835 30.3868 23.0804C29.6614 24.1825 28.8407 25.8041 27.9246 27.9453C27.1833 29.7664 26.532 31.1204 25.9707 32.0179C25.4094 32.9153 24.7581 33.3614 24.0168 33.3614C23.3973 33.3561 22.9366 32.889 22.6401 31.9496ZM31.7 12.9358C32.8226 11.204 33.7439 9.52458 34.4535 7.89768C35.163 6.27077 35.5178 5.10045 35.5178 4.39721C35.163 4.54415 34.5276 5.25264 33.6116 6.53318C32.6955 7.80846 31.7318 9.40912 30.7257 11.3299C29.7197 13.2507 28.8724 15.1925 28.1947 17.1605C29.4072 16.0742 30.5722 14.6677 31.7 12.9358Z" fill="#696E73"/>
<path d="M44.7091 32.1241C43.6713 31.127 43.1523 29.8517 43.1523 28.293C43.1523 26.5927 43.7295 24.7506 44.8838 22.7721C46.0382 20.7935 47.5155 19.1351 49.3211 17.7969C51.1268 16.4639 52.9006 15.7974 54.648 15.7974C55.5641 15.7974 56.3371 16.023 56.9567 16.4796C57.5762 16.9362 57.8886 17.6919 57.8886 18.7468C57.8886 20.1533 57.3379 21.481 56.2471 22.7301C55.151 23.9791 53.7373 24.9972 52.0058 25.7897C50.2743 26.5822 48.5057 27.0807 46.7001 27.2854C46.6418 27.5793 46.61 27.9152 46.61 28.2983C46.61 29.0593 46.8218 29.8255 47.256 30.5865C47.685 31.3474 48.6116 31.7305 50.0307 31.7305C51.8363 31.7305 53.679 31.0063 55.5588 29.5526C57.4385 28.0989 58.9529 26.2883 60.1073 24.1156L60.9968 24.8188C59.8107 27.4586 58.1163 29.5893 55.9135 31.2005C53.7055 32.8116 51.4233 33.6198 49.0511 33.6198C47.1925 33.6198 45.7417 33.1213 44.7091 32.1241ZM50.7667 24.378C52.0852 23.6432 53.2024 22.7406 54.1185 21.67C55.0346 20.5994 55.4952 19.5497 55.4952 18.5211C55.4952 18.201 55.437 17.9806 55.3152 17.8599C55.1987 17.7444 55.0028 17.6814 54.738 17.6814C53.8802 17.6814 52.9377 18.0855 51.921 18.8937C50.8991 19.7019 49.9618 20.7201 49.0987 21.9534C48.2409 23.1867 47.6055 24.42 47.1872 25.648C48.2621 25.5378 49.4535 25.1127 50.7667 24.378Z" fill="#696E73"/>
<path d="M64.6006 31.9713C63.9175 31.3993 63.5787 30.6278 63.5787 29.6622C63.5787 29.1059 63.6899 28.4971 63.9122 27.8358C64.1346 27.1746 64.4682 26.3769 64.913 25.4375C65.2943 24.6188 65.5908 23.9208 65.8026 23.3487C66.0091 22.7767 66.115 22.2729 66.115 21.832C66.115 20.7194 65.3737 19.78 63.8964 19.0138C63.3033 20.4833 62.6149 21.9632 61.8313 23.4589C61.0476 24.9546 60.3434 26.2142 59.7238 27.2428L59.0566 25.9675C60.4175 23.5639 61.6195 20.9084 62.652 18.0009C62.3555 17.707 62.2072 17.3134 62.2072 16.8149C62.2072 16.0539 62.4455 15.3349 62.9168 14.6579C63.388 13.9809 63.8487 13.645 64.2935 13.645C64.59 13.645 64.8336 13.8235 65.0242 14.1751C65.2148 14.5267 65.3102 14.8206 65.3102 15.0568C65.3102 15.1722 65.2466 15.4294 65.1089 15.8282C64.9766 16.2218 64.8813 16.5105 64.823 16.6837C64.8548 16.8883 64.9713 17.0878 65.1778 17.2767C65.3843 17.4709 65.7708 17.7385 66.3321 18.0901C67.37 18.7671 68.1748 19.4179 68.752 20.0477C69.3291 20.6774 69.6204 21.5224 69.6204 22.5773C69.6204 23.2228 69.5092 23.8683 69.2868 24.5138C69.0644 25.1593 68.7308 25.936 68.286 26.8439C67.6347 28.135 67.3064 29.0586 67.3064 29.6149C67.3064 30.2919 67.6771 30.6278 68.4184 30.6278C69.308 30.6278 70.277 30.2762 71.3254 29.5729C72.3738 28.8697 73.3375 28.009 74.2112 26.9961C75.0849 25.9833 75.7309 25.0386 76.1439 24.1569L77.2083 24.9494C76.6152 26.2667 75.7892 27.5314 74.7196 28.7333C73.6552 29.9351 72.4638 30.9217 71.1454 31.6827C69.8269 32.4436 68.5349 32.8268 67.2588 32.8268C66.1733 32.8268 65.2837 32.5434 64.6006 31.9713Z" fill="#696E73"/>
<path d="M75.1708 43.281C74.5778 42.7982 74.2812 42.0844 74.2812 41.145C74.2812 40.0009 74.7207 38.9618 75.5891 38.0224C76.4628 37.083 77.4742 36.2906 78.6285 35.645C79.7829 34.9995 81.2761 34.2491 83.1135 33.3989C83.6165 32.1393 84.3261 29.8512 85.2421 26.5344C84.1778 28.0301 83.1347 29.2056 82.1127 30.0558C81.0908 30.906 80.0053 31.3311 78.8509 31.3311C77.8713 31.3311 76.9976 31.0372 76.2299 30.4494C75.4621 29.8617 75.0755 28.938 75.0755 27.6785C75.0755 26.6813 75.3138 25.4113 75.7851 23.8736C76.2563 22.3307 76.8229 20.9819 77.4742 19.8221C78.1255 18.6623 78.6868 18.085 79.1633 18.085C79.4599 18.085 79.9047 18.2372 80.4977 18.5468C81.0908 18.8564 81.4455 19.1871 81.562 19.5387C81.0007 20.2997 80.3865 21.5802 79.7193 23.3645C79.0521 25.1541 78.7186 26.5606 78.7186 27.5892C78.7186 28.6756 79.1475 29.2161 80.0053 29.2161C80.8948 29.2161 81.8532 28.7018 82.8911 27.6732C83.9289 26.6446 84.9191 25.385 85.8669 23.8893C85.9252 23.6847 86.0152 23.2018 86.1317 22.4356C86.2482 21.6746 86.5182 21.0029 86.9313 20.4309C87.3443 19.8588 87.9373 19.5754 88.7051 19.5754C88.8216 19.5754 89.2982 19.6331 90.1242 19.7539C90.0924 20.4886 89.7483 22.084 89.0811 24.5506C88.4139 27.0172 87.6355 29.4208 86.7512 31.7667C88.2021 31.1789 89.5682 30.2867 90.8602 29.0797C92.1469 27.8779 93.1636 26.293 93.8996 24.3249L94.6568 24.939C94.0373 26.9647 92.9624 28.6651 91.4374 30.0453C89.9124 31.4256 88.1597 32.5539 86.1741 33.4356C84.7814 36.6947 83.3676 39.2662 81.9327 41.1608C80.4977 43.0553 78.9515 44 77.2942 44C76.4734 44.0052 75.7639 43.7638 75.1708 43.281ZM79.301 40.51C80.3071 39.261 81.2973 37.5396 82.2769 35.3407C80.5612 36.1908 79.0892 37.1302 77.8607 38.1589C76.6323 39.1875 76.018 40.1846 76.018 41.1503C76.018 41.4757 76.0869 41.7591 76.2193 42.0057C76.3516 42.2576 76.5687 42.3783 76.8653 42.3783C77.4795 42.3783 78.2949 41.7538 79.301 40.51Z" fill="#696E73"/>
<path d="M93.9091 31.7299C93.3161 30.8797 93.0195 29.7514 93.0195 28.3396C93.0195 25.6421 93.9462 22.0314 95.7942 17.5128C97.6422 12.9942 99.7231 8.94798 102.032 5.36879C104.34 1.7896 106.04 0 107.136 0C107.639 0 108.068 0.388358 108.423 1.16507C108.778 1.94179 108.968 2.729 109 3.52146C109 4.87022 108.455 6.8435 107.359 9.4413C106.263 12.0391 104.791 14.6736 102.943 17.3397C101.089 20.0109 99.1142 22.1679 97.012 23.8105C96.6837 25.6316 96.5249 27.0066 96.5249 27.946C96.5249 28.9747 96.6943 29.7356 97.0332 30.2342C97.3721 30.7328 97.8381 30.9847 98.4311 30.9847C99.469 30.9847 100.57 30.3024 101.741 28.9379C102.911 27.5734 103.954 25.9255 104.87 23.989L105.934 24.561C104.632 27.2323 103.197 29.3053 101.629 30.7852C100.062 32.2652 98.4311 33.0104 96.7473 33.0104C95.4447 33.0052 94.4969 32.5801 93.9091 31.7299ZM102.323 15.0935C103.726 12.8053 104.854 10.6326 105.696 8.58061C106.538 6.52861 106.962 5.00142 106.962 4.00429C106.575 4.00429 105.802 4.90171 104.632 6.6913C103.461 8.4809 102.233 10.7061 100.946 13.3564C99.6596 16.0119 98.6165 18.5887 97.8169 21.0815C99.4107 19.3759 100.915 17.3816 102.323 15.0935Z" fill="#696E73"/>
</svg>
