<svg width="97" height="32" viewBox="0 0 97 32" fill="none" xmlns="http://www.w3.org/2000/svg">
<path d="M9.92097 11.086H19.2296V2.19317H9.92097V11.086Z" fill="#696E73"/>
<path d="M0.615765 19.9769H9.92436V11.0841H0.615765V19.9769Z" fill="#696E73"/>
<path d="M26.2979 18.384L28.8905 0.868135H42.1472L41.0246 4.95348H33.7816L33.3272 7.91535H40.0357L39.4745 11.822H32.7659L31.777 18.384H26.2979Z" fill="#696E73"/>
<path d="M42.7371 18.384L44.6347 5.33648H49.8999L47.9756 18.384H42.7371ZM44.8752 3.65128L45.4098 0H50.675L50.1405 3.65128H44.8752Z" fill="#696E73"/>
<path d="M50.6189 18.384L52.5432 5.33648H56.5256L56.7661 7.22595C56.9087 7.03871 57.1581 6.77486 57.5145 6.43441C57.8887 6.09397 58.4054 5.78757 59.0647 5.51521C59.7239 5.22583 60.5703 5.08114 61.6038 5.08114C62.8867 5.08114 63.8488 5.39606 64.4903 6.02588C65.1318 6.6557 65.4525 7.43873 65.4525 8.37495C65.4525 8.54517 65.4347 8.78349 65.399 9.08989C65.3634 9.37927 65.3099 9.77078 65.2387 10.2644C65.1852 10.7581 65.0961 11.3709 64.9714 12.1028C64.8645 12.8348 64.7308 13.7199 64.5705 14.7583C64.4279 15.7967 64.2498 17.0052 64.0359 18.384H58.7439C58.9578 16.9712 59.1359 15.7881 59.2785 14.8349C59.421 13.8646 59.5369 13.0816 59.6259 12.4858C59.715 11.873 59.7774 11.3964 59.813 11.056C59.8665 10.6985 59.9021 10.4346 59.9199 10.2644C59.9378 10.0772 59.9467 9.92398 59.9467 9.80482C59.9467 9.46438 59.8398 9.19202 59.6259 8.98775C59.4299 8.78349 59.1359 8.68135 58.7439 8.68135C58.441 8.68135 58.1738 8.74944 57.9421 8.88562C57.7105 9.0218 57.5234 9.20904 57.3809 9.44736C57.2561 9.66864 57.167 9.92398 57.1136 10.2134L55.9109 18.384H50.6189Z" fill="#696E73"/>
<path d="M71.2705 18.6394C69.8628 18.6394 68.767 18.2138 67.983 17.3627C67.199 16.5116 66.807 15.2094 66.807 13.4561C66.807 12.4177 66.9228 11.4049 67.1545 10.4176C67.4039 9.41331 67.7781 8.51113 68.277 7.71108C68.7937 6.91104 69.4441 6.2727 70.2281 5.79608C71.0299 5.31946 71.9921 5.08114 73.1146 5.08114C74.059 5.08114 74.7895 5.24286 75.3063 5.56628C75.823 5.87268 76.1883 6.24717 76.4021 6.68975L77.391 0H82.683C82.4157 1.71925 82.1752 3.24274 81.9613 4.57048C81.7475 5.89821 81.5604 7.06424 81.4001 8.06855C81.2575 9.07287 81.1239 9.93249 80.9992 10.6474C80.8923 11.3624 80.8032 11.9667 80.7319 12.4603C80.6606 12.9539 80.6072 13.3625 80.5715 13.6859C80.5359 13.9923 80.5092 14.2391 80.4913 14.4264C80.4735 14.6136 80.4646 14.7668 80.4646 14.886C80.4646 15.0732 80.5181 15.2349 80.625 15.3711C80.7319 15.5073 80.9101 15.5754 81.1595 15.5754C81.3377 15.5754 81.507 15.5413 81.6673 15.4732C81.8455 15.4051 82.0059 15.3285 82.1484 15.2434L81.7208 18.0521C81.3466 18.2394 80.9012 18.384 80.3844 18.4862C79.8855 18.5883 79.4223 18.6394 78.9946 18.6394C78.4601 18.6394 77.9434 18.5883 77.4444 18.4862C76.9455 18.4011 76.509 18.2223 76.1348 17.95C75.7606 17.6606 75.5023 17.2265 75.3597 16.6478C74.8964 17.2095 74.3352 17.6861 73.6759 18.0776C73.0166 18.4521 72.2148 18.6394 71.2705 18.6394ZM73.4621 15.5498C73.8541 15.5498 74.1748 15.4732 74.4243 15.32C74.6915 15.1498 74.9054 14.9285 75.0657 14.6562C75.2261 14.3838 75.333 14.0859 75.3864 13.7625C75.5824 12.3667 75.725 11.3794 75.8141 10.8006C75.9032 10.2048 75.9477 9.85589 75.9477 9.75376C75.9477 9.26011 75.7963 8.89413 75.4933 8.65582C75.1904 8.40049 74.8341 8.27282 74.4243 8.27282C74.1035 8.27282 73.8095 8.34091 73.5423 8.47709C73.275 8.61326 73.0523 8.81753 72.8741 9.08989C72.7137 9.34522 72.6068 9.65162 72.5534 10.0091C72.3752 11.1496 72.2415 12.0688 72.1525 12.7667C72.0812 13.4646 72.0455 13.9072 72.0455 14.0944C72.0455 14.537 72.1792 14.8945 72.4464 15.1668C72.7137 15.4222 73.0523 15.5498 73.4621 15.5498Z" fill="#696E73"/>
<path d="M83.6364 18.384L85.5607 5.33648H89.5164L89.8104 7.22595C89.8638 7.12382 89.9975 6.9621 90.2113 6.74082C90.4251 6.5025 90.7013 6.25568 91.0398 6.00035C91.3784 5.74501 91.7793 5.53223 92.2426 5.36201C92.7058 5.17477 93.2047 5.08114 93.7393 5.08114C94.8084 5.08114 95.6191 5.33648 96.1715 5.84715C96.7238 6.35781 97 7.04722 97 7.91535C97 8.39197 96.9555 8.8686 96.8664 9.34522C96.7773 9.80482 96.6704 10.2304 96.5456 10.6219H92.2158C92.2515 10.4687 92.2693 10.324 92.2693 10.1878C92.2871 10.0346 92.296 9.90696 92.296 9.80482C92.296 9.53247 92.2515 9.31969 92.1624 9.16649C92.0911 9.01329 91.9842 8.90264 91.8416 8.83455C91.6991 8.76646 91.5387 8.73242 91.3606 8.73242C91.1824 8.73242 91.0131 8.76646 90.8527 8.83455C90.6924 8.90264 90.5587 8.99627 90.4518 9.11542C90.3449 9.21755 90.2558 9.34522 90.1846 9.49842C90.1133 9.65162 90.0598 9.82185 90.0242 10.0091L88.7947 18.384H83.6364Z" fill="#696E73"/>
<path d="M0 30.9499V27.1183H0.999765L2.23924 30.0954H2.25093L3.49625 27.1183H4.50187V30.9499H3.88213V27.7998H3.8529L2.54911 30.9499H1.8826L0.584658 27.7998H0.555425V30.9499H0Z" fill="#696E73"/>
<path d="M6.23401 31.0058C6.0742 31.0058 5.92024 30.9816 5.77213 30.9332C5.62791 30.8848 5.50903 30.8029 5.41549 30.6874C5.32584 30.5683 5.28101 30.4082 5.28101 30.2071C5.28101 30.0023 5.32779 29.8384 5.42133 29.7156C5.51878 29.589 5.6552 29.4921 5.83059 29.4251C6.00989 29.3581 6.22231 29.3134 6.46787 29.2911C6.71732 29.2687 6.99016 29.2576 7.28639 29.2576V28.9671C7.28639 28.766 7.23377 28.6264 7.12853 28.5482C7.02719 28.4663 6.86544 28.4253 6.64327 28.4253C6.45618 28.4253 6.29442 28.4644 6.158 28.5426C6.02158 28.6171 5.95337 28.7362 5.95337 28.9001V28.9671H5.38625C5.38236 28.9485 5.38041 28.9299 5.38041 28.9113C5.38041 28.8889 5.38041 28.8666 5.38041 28.8442C5.38041 28.6804 5.43303 28.5389 5.53826 28.4197C5.6474 28.2969 5.79356 28.2038 5.97676 28.1405C6.16385 28.0734 6.37627 28.0399 6.61403 28.0399H6.69589C7.08956 28.0399 7.38189 28.1144 7.57287 28.2633C7.76776 28.4123 7.8652 28.6264 7.8652 28.9057V30.4193C7.8652 30.4863 7.88079 30.5348 7.91198 30.5645C7.94316 30.5943 7.98019 30.6092 8.02306 30.6092C8.06594 30.6092 8.11076 30.6018 8.15753 30.5869C8.2082 30.572 8.25303 30.5534 8.292 30.531V30.8885C8.24133 30.9257 8.17897 30.9537 8.10491 30.9723C8.03086 30.9946 7.94316 31.0058 7.84182 31.0058C7.71709 31.0058 7.61575 30.9835 7.53779 30.9388C7.46374 30.8904 7.40917 30.8271 7.37409 30.7489C7.33901 30.6707 7.31757 30.5832 7.30978 30.4864C7.19674 30.6539 7.04863 30.7824 6.86544 30.8717C6.68614 30.9611 6.47567 31.0058 6.23401 31.0058ZM6.46787 30.6092C6.60429 30.6092 6.73486 30.5813 6.85959 30.5254C6.98432 30.4659 7.08566 30.3765 7.16361 30.2573C7.24547 30.1382 7.28639 29.9892 7.28639 29.8105V29.5983C6.99406 29.5983 6.74266 29.6132 6.53218 29.643C6.32171 29.669 6.15995 29.7211 6.04692 29.7993C5.93778 29.8775 5.88321 29.9986 5.88321 30.1624C5.88321 30.3188 5.93193 30.4324 6.02938 30.5031C6.12682 30.5739 6.27298 30.6092 6.46787 30.6092Z" fill="#696E73"/>
<path d="M8.96235 30.9499V26.9284H9.54701V29.6597L10.9268 28.0958H11.6167L10.424 29.4139L11.6869 30.9499H10.9794L10.0264 29.7993L9.54701 30.2629V30.9499H8.96235Z" fill="#696E73"/>
<path d="M12.2693 30.9499V28.0958H12.8539V30.9499H12.2693ZM12.2517 27.3976V26.9284H12.8715V27.3976H12.2517Z" fill="#696E73"/>
<path d="M13.8269 30.9499V28.0958H14.2478L14.3297 28.5147C14.4388 28.3583 14.5791 28.241 14.7506 28.1628C14.926 28.0809 15.1151 28.0399 15.3178 28.0399C15.5243 28.0399 15.7056 28.0772 15.8615 28.1516C16.0213 28.2261 16.146 28.3378 16.2357 28.4868C16.3253 28.632 16.3701 28.8144 16.3701 29.0341V30.9499H15.7855V29.1291C15.7855 28.8945 15.729 28.7269 15.6159 28.6264C15.5029 28.5221 15.3431 28.47 15.1365 28.47C15.004 28.47 14.8812 28.5017 14.7682 28.565C14.659 28.6283 14.5714 28.7139 14.5051 28.8219C14.4427 28.9262 14.4115 29.0472 14.4115 29.1849V30.9499H13.8269Z" fill="#696E73"/>
<path d="M17.8068 32C17.6704 32 17.5457 31.9684 17.4326 31.905C17.3235 31.8417 17.2358 31.7561 17.1695 31.6481C17.1033 31.5439 17.0701 31.4303 17.0701 31.3074C17.0701 31.1734 17.1091 31.0468 17.1871 30.9276C17.265 30.8084 17.3722 30.7209 17.5086 30.6651C17.4229 30.613 17.3547 30.5459 17.304 30.464C17.2572 30.3821 17.2338 30.2946 17.2338 30.2015C17.2338 30.0637 17.2787 29.9483 17.3683 29.8552C17.458 29.7584 17.5749 29.6858 17.7191 29.6374C17.5983 29.5592 17.5008 29.4679 17.4268 29.3637C17.3527 29.2557 17.3157 29.1291 17.3157 28.9839C17.3157 28.8238 17.3586 28.6729 17.4443 28.5314C17.534 28.3862 17.6684 28.2689 17.8477 28.1796C18.027 28.0865 18.2511 28.0399 18.5201 28.0399C18.6448 28.0399 18.7579 28.0474 18.8592 28.0623C18.9644 28.0772 19.058 28.1014 19.1398 28.1349C19.2879 28.0753 19.4029 27.9971 19.4848 27.9003C19.5666 27.8035 19.6134 27.6974 19.6251 27.5819H20.1045C20.1045 27.7011 20.0792 27.8109 20.0285 27.9115C19.9817 28.012 19.9135 28.0958 19.8239 28.1628C19.7342 28.2298 19.627 28.2764 19.5023 28.3024L19.4965 28.3192C19.5861 28.3937 19.6563 28.4812 19.7069 28.5817C19.7615 28.6823 19.7888 28.794 19.7888 28.9168C19.7888 29.0807 19.744 29.2334 19.6543 29.3748C19.5647 29.5126 19.4341 29.6243 19.2626 29.71C19.095 29.7919 18.8865 29.8329 18.637 29.8329H18.181C18.0602 29.8329 17.9627 29.8608 17.8887 29.9166C17.8146 29.9725 17.7776 30.047 17.7776 30.1401C17.7776 30.2294 17.8127 30.302 17.8828 30.3579C17.9569 30.4137 18.0563 30.4417 18.181 30.4417H19.3094C19.5549 30.4417 19.7479 30.5143 19.8882 30.6595C20.0324 30.801 20.1045 30.976 20.1045 31.1845C20.1045 31.3335 20.0655 31.4694 19.9876 31.5923C19.9135 31.7189 19.8083 31.8175 19.6719 31.8883C19.5393 31.9628 19.3834 32 19.2041 32H17.8068ZM17.9939 31.6202H19.1164C19.2334 31.6202 19.3347 31.5811 19.4205 31.5029C19.5101 31.4247 19.5549 31.3298 19.5549 31.218C19.5549 31.125 19.5179 31.043 19.4439 30.9723C19.3737 30.9015 19.2879 30.8662 19.1866 30.8662H17.9939C17.8809 30.8662 17.7854 30.9034 17.7074 30.9779C17.6295 31.0523 17.5905 31.1417 17.5905 31.246C17.5905 31.3465 17.6295 31.434 17.7074 31.5085C17.7854 31.583 17.8809 31.6202 17.9939 31.6202ZM18.5493 29.4866C18.7637 29.4866 18.9313 29.4326 19.0521 29.3246C19.173 29.2166 19.2334 29.0881 19.2334 28.9392C19.2334 28.7902 19.173 28.6618 19.0521 28.5538C18.9313 28.4421 18.7637 28.3862 18.5493 28.3862C18.3349 28.3862 18.1673 28.4421 18.0465 28.5538C17.9296 28.6618 17.8711 28.7902 17.8711 28.9392C17.8711 29.0881 17.9296 29.2166 18.0465 29.3246C18.1673 29.4326 18.3349 29.4866 18.5493 29.4866Z" fill="#696E73"/>
<path d="M22.044 30.9499V28.0958H22.6287V30.9499H22.044ZM22.0265 27.3976V26.9284H22.6462V27.3976H22.0265Z" fill="#696E73"/>
<path d="M23.6016 30.9499V28.0958H24.0226L24.1044 28.5147C24.2136 28.3583 24.3539 28.241 24.5254 28.1628C24.7008 28.0809 24.8898 28.0399 25.0925 28.0399C25.2991 28.0399 25.4803 28.0772 25.6362 28.1516C25.7961 28.2261 25.9208 28.3378 26.0104 28.4868C26.1001 28.632 26.1449 28.8144 26.1449 29.0341V30.9499H25.5602V29.1291C25.5602 28.8945 25.5037 28.7269 25.3907 28.6264C25.2777 28.5221 25.1178 28.47 24.9113 28.47C24.7787 28.47 24.656 28.5017 24.5429 28.565C24.4338 28.6283 24.3461 28.7139 24.2798 28.8219C24.2175 28.9262 24.1863 29.0472 24.1863 29.1849V30.9499H23.6016Z" fill="#696E73"/>
<path d="M27.9328 31.0058C27.7885 31.0058 27.658 30.9835 27.541 30.9388C27.428 30.8941 27.3384 30.8233 27.2721 30.7265C27.2097 30.626 27.1786 30.4938 27.1786 30.33V28.5314H26.8511V28.0958H27.1961L27.4007 27.1854H27.7632V28.0958H28.459V28.5314H27.7632V30.2294C27.7632 30.3933 27.7983 30.4975 27.8685 30.5422C27.9386 30.5869 28.0146 30.6092 28.0965 30.6092C28.1393 30.6092 28.1978 30.5999 28.2719 30.5813C28.3498 30.5627 28.4122 30.5441 28.459 30.5254V30.8997C28.4161 30.922 28.3635 30.9406 28.3011 30.9555C28.2426 30.9741 28.1803 30.9872 28.114 30.9946C28.0516 31.0021 27.9912 31.0058 27.9328 31.0058Z" fill="#696E73"/>
<path d="M30.4299 31.0058C30.1649 31.0058 29.931 30.9518 29.7284 30.8438C29.5296 30.7321 29.3737 30.5701 29.2606 30.3579C29.1476 30.1419 29.0911 29.8831 29.0911 29.5815V29.4642C29.0911 29.1589 29.1495 28.9001 29.2665 28.6878C29.3873 28.4756 29.551 28.3155 29.7576 28.2075C29.9642 28.0958 30.2 28.0399 30.465 28.0399H30.5293C30.771 28.0399 30.9854 28.0883 31.1725 28.1852C31.3595 28.282 31.5038 28.4197 31.6051 28.5985C31.7103 28.7772 31.763 28.9895 31.763 29.2352V29.5927H29.6991C29.6991 29.8049 29.7284 29.9874 29.7868 30.1401C29.8492 30.2927 29.9369 30.41 30.0499 30.4919C30.1668 30.5701 30.3091 30.6092 30.4767 30.6092C30.617 30.6092 30.7418 30.5832 30.8509 30.531C30.96 30.4789 31.0477 30.3988 31.114 30.2909C31.1802 30.1829 31.2134 30.0488 31.2134 29.8887H31.763C31.763 30.1159 31.7064 30.3132 31.5934 30.4808C31.4804 30.6483 31.3264 30.7787 31.1315 30.8717C30.9405 30.9611 30.7242 31.0058 30.4826 31.0058H30.4299ZM29.705 29.2576H31.19C31.19 28.9783 31.1257 28.7716 30.9971 28.6376C30.8723 28.5035 30.6969 28.4365 30.4709 28.4365C30.2643 28.4365 30.0869 28.5054 29.9388 28.6432C29.7946 28.7809 29.7167 28.9857 29.705 29.2576Z" fill="#696E73"/>
<path d="M32.5656 30.9499V28.0958H32.9983L33.0801 28.5147C33.084 28.5072 33.1016 28.4793 33.1327 28.4309C33.1639 28.3825 33.2107 28.3285 33.2731 28.2689C33.3393 28.2056 33.4231 28.1516 33.5245 28.107C33.6297 28.0623 33.7583 28.0399 33.9103 28.0399C34.1169 28.0399 34.2865 28.0809 34.419 28.1628C34.5554 28.241 34.6548 28.349 34.7172 28.4868C34.7834 28.6245 34.8166 28.7809 34.8166 28.9559C34.8166 28.9932 34.8146 29.0323 34.8107 29.0732C34.8068 29.1105 34.8049 29.1403 34.8049 29.1626H34.3021V29.0565C34.3021 28.9746 34.2845 28.8889 34.2494 28.7996C34.2183 28.7065 34.1617 28.6301 34.0799 28.5705C33.998 28.5072 33.8831 28.4756 33.7349 28.4756C33.6258 28.4756 33.5323 28.4979 33.4543 28.5426C33.3803 28.5873 33.3198 28.6432 33.2731 28.7102C33.2302 28.7772 33.199 28.848 33.1795 28.9224C33.16 28.9969 33.1503 29.0658 33.1503 29.1291V30.9499H32.5656Z" fill="#696E73"/>
<path d="M35.4375 30.9499V28.0958H35.8585L35.9403 28.5147C36.0495 28.3583 36.1898 28.241 36.3613 28.1628C36.5367 28.0809 36.7257 28.0399 36.9284 28.0399C37.135 28.0399 37.3162 28.0772 37.4721 28.1516C37.632 28.2261 37.7567 28.3378 37.8463 28.4868C37.936 28.632 37.9808 28.8144 37.9808 29.0341V30.9499H37.3961V29.1291C37.3961 28.8945 37.3396 28.7269 37.2266 28.6264C37.1136 28.5221 36.9537 28.47 36.7472 28.47C36.6146 28.47 36.4919 28.5017 36.3788 28.565C36.2697 28.6283 36.182 28.7139 36.1157 28.8219C36.0534 28.9262 36.0222 29.0472 36.0222 29.1849V30.9499H35.4375Z" fill="#696E73"/>
<path d="M40.1191 31.0058C39.854 31.0058 39.6201 30.9518 39.4175 30.8438C39.2187 30.7321 39.0628 30.5701 38.9497 30.3579C38.8367 30.1419 38.7802 29.8831 38.7802 29.5815V29.4642C38.7802 29.1589 38.8386 28.9001 38.9556 28.6878C39.0764 28.4756 39.2401 28.3155 39.4467 28.2075C39.6533 28.0958 39.8891 28.0399 40.1541 28.0399H40.2184C40.4601 28.0399 40.6745 28.0883 40.8616 28.1852C41.0487 28.282 41.1929 28.4197 41.2942 28.5985C41.3994 28.7772 41.4521 28.9895 41.4521 29.2352V29.5927H39.3882C39.3882 29.8049 39.4175 29.9874 39.4759 30.1401C39.5383 30.2927 39.626 30.41 39.739 30.4919C39.856 30.5701 39.9982 30.6092 40.1658 30.6092C40.3061 30.6092 40.4309 30.5832 40.54 30.531C40.6491 30.4789 40.7368 30.3988 40.8031 30.2909C40.8694 30.1829 40.9025 30.0488 40.9025 29.8887H41.4521C41.4521 30.1159 41.3955 30.3132 41.2825 30.4808C41.1695 30.6483 41.0155 30.7787 40.8206 30.8717C40.6297 30.9611 40.4133 31.0058 40.1717 31.0058H40.1191ZM39.3941 29.2576H40.8791C40.8791 28.9783 40.8148 28.7716 40.6862 28.6376C40.5614 28.5035 40.386 28.4365 40.16 28.4365C39.9534 28.4365 39.776 28.5054 39.6279 28.6432C39.4837 28.7809 39.4058 28.9857 39.3941 29.2576Z" fill="#696E73"/>
<path d="M43.1259 31.0058C42.9817 31.0058 42.8511 30.9835 42.7342 30.9388C42.6211 30.8941 42.5315 30.8233 42.4652 30.7265C42.4029 30.626 42.3717 30.4938 42.3717 30.33V28.5314H42.0443V28.0958H42.3892L42.5938 27.1854H42.9563V28.0958H43.6521V28.5314H42.9563V30.2294C42.9563 30.3933 42.9914 30.4975 43.0616 30.5422C43.1317 30.5869 43.2077 30.6092 43.2896 30.6092C43.3325 30.6092 43.3909 30.5999 43.465 30.5813C43.5429 30.5627 43.6053 30.5441 43.6521 30.5254V30.8997C43.6092 30.922 43.5566 30.9406 43.4942 30.9555C43.4357 30.9741 43.3734 30.9872 43.3071 30.9946C43.2448 31.0021 43.1843 31.0058 43.1259 31.0058Z" fill="#696E73"/>
<path d="M46.9477 31.0058C46.6826 31.0058 46.4488 30.9518 46.2461 30.8438C46.0473 30.7321 45.8914 30.5701 45.7784 30.3579C45.6653 30.1419 45.6088 29.8831 45.6088 29.5815V29.4642C45.6088 29.1589 45.6673 28.9001 45.7842 28.6878C45.905 28.4756 46.0687 28.3155 46.2753 28.2075C46.4819 28.0958 46.7177 28.0399 46.9827 28.0399H47.0471C47.2887 28.0399 47.5031 28.0883 47.6902 28.1852C47.8773 28.282 48.0215 28.4197 48.1228 28.5985C48.2281 28.7772 48.2807 28.9895 48.2807 29.2352V29.5927H46.2168C46.2168 29.8049 46.2461 29.9874 46.3045 30.1401C46.3669 30.2927 46.4546 30.41 46.5676 30.4919C46.6846 30.5701 46.8268 30.6092 46.9944 30.6092C47.1348 30.6092 47.2595 30.5832 47.3686 30.531C47.4778 30.4789 47.5655 30.3988 47.6317 30.2909C47.698 30.1829 47.7311 30.0488 47.7311 29.8887H48.2807C48.2807 30.1159 48.2242 30.3132 48.1111 30.4808C47.9981 30.6483 47.8441 30.7787 47.6493 30.8717C47.4583 30.9611 47.2419 31.0058 47.0003 31.0058H46.9477ZM46.2227 29.2576H47.7077C47.7077 28.9783 47.6434 28.7716 47.5148 28.6376C47.3901 28.5035 47.2147 28.4365 46.9886 28.4365C46.782 28.4365 46.6047 28.5054 46.4566 28.6432C46.3123 28.7809 46.2344 28.9857 46.2227 29.2576Z" fill="#696E73"/>
<path d="M49.8493 31.0058C49.6895 31.0058 49.5355 30.9816 49.3874 30.9332C49.2432 30.8848 49.1243 30.8029 49.0307 30.6874C48.9411 30.5683 48.8963 30.4082 48.8963 30.2071C48.8963 30.0023 48.943 29.8384 49.0366 29.7156C49.134 29.589 49.2705 29.4921 49.4458 29.4251C49.6251 29.3581 49.8376 29.3134 50.0831 29.2911C50.3326 29.2687 50.6054 29.2576 50.9016 29.2576V28.9671C50.9016 28.766 50.849 28.6264 50.7438 28.5482C50.6424 28.4663 50.4807 28.4253 50.2585 28.4253C50.0714 28.4253 49.9097 28.4644 49.7733 28.5426C49.6368 28.6171 49.5686 28.7362 49.5686 28.9001V28.9671H49.0015C48.9976 28.9485 48.9957 28.9299 48.9957 28.9113C48.9957 28.8889 48.9957 28.8666 48.9957 28.8442C48.9957 28.6804 49.0483 28.5389 49.1535 28.4197C49.2627 28.2969 49.4088 28.2038 49.592 28.1405C49.7791 28.0734 49.9915 28.0399 50.2293 28.0399H50.3111C50.7048 28.0399 50.9971 28.1144 51.1881 28.2633C51.383 28.4123 51.4805 28.6264 51.4805 28.9057V30.4193C51.4805 30.4863 51.496 30.5348 51.5272 30.5645C51.5584 30.5943 51.5954 30.6092 51.6383 30.6092C51.6812 30.6092 51.726 30.6018 51.7728 30.5869C51.8235 30.572 51.8683 30.5534 51.9073 30.531V30.8885C51.8566 30.9257 51.7942 30.9537 51.7202 30.9723C51.6461 30.9946 51.5584 31.0058 51.4571 31.0058C51.3323 31.0058 51.231 30.9835 51.1531 30.9388C51.079 30.8904 51.0244 30.8271 50.9893 30.7489C50.9543 30.6707 50.9328 30.5832 50.925 30.4864C50.812 30.6539 50.6639 30.7824 50.4807 30.8717C50.3014 30.9611 50.0909 31.0058 49.8493 31.0058ZM50.0831 30.6092C50.2195 30.6092 50.3501 30.5813 50.4748 30.5254C50.5996 30.4659 50.7009 30.3765 50.7789 30.2573C50.8607 30.1382 50.9016 29.9892 50.9016 29.8105V29.5983C50.6093 29.5983 50.3579 29.6132 50.1474 29.643C49.937 29.669 49.7752 29.7211 49.6622 29.7993C49.553 29.8775 49.4985 29.9986 49.4985 30.1624C49.4985 30.3188 49.5472 30.4324 49.6446 30.5031C49.7421 30.5739 49.8882 30.6092 50.0831 30.6092Z" fill="#696E73"/>
<path d="M53.6125 31.0058C53.4059 31.0058 53.2266 30.9816 53.0746 30.9332C52.9226 30.8848 52.7959 30.8215 52.6945 30.7433C52.5932 30.6614 52.5172 30.572 52.4665 30.4752C52.4159 30.3746 52.3905 30.276 52.3905 30.1792C52.3905 30.1568 52.3905 30.1382 52.3905 30.1233C52.3905 30.1047 52.3925 30.0823 52.3964 30.0563H52.9109C52.907 30.0674 52.905 30.0786 52.905 30.0898C52.905 30.0972 52.905 30.1065 52.905 30.1177C52.905 30.2257 52.9401 30.3169 53.0103 30.3914C53.0843 30.4621 53.1818 30.5161 53.3026 30.5534C53.4273 30.5906 53.5676 30.6092 53.7235 30.6092C53.8561 30.6092 53.9769 30.5925 54.086 30.559C54.1991 30.5254 54.2868 30.477 54.3491 30.4137C54.4154 30.3467 54.4485 30.2685 54.4485 30.1792C54.4485 30.0749 54.4134 29.9948 54.3433 29.939C54.2731 29.8794 54.1796 29.8347 54.0626 29.8049C53.9457 29.7714 53.8171 29.7435 53.6768 29.7211C53.5403 29.6951 53.4 29.6672 53.2558 29.6374C53.1155 29.6039 52.9869 29.5592 52.8699 29.5033C52.753 29.4475 52.6595 29.3711 52.5893 29.2743C52.5191 29.1738 52.4841 29.0416 52.4841 28.8777C52.4841 28.7511 52.5133 28.6357 52.5718 28.5314C52.6302 28.4272 52.714 28.3397 52.8232 28.2689C52.9323 28.1945 53.0609 28.1386 53.209 28.1014C53.3611 28.0604 53.5267 28.0399 53.706 28.0399H53.782C53.9535 28.0399 54.1094 28.0623 54.2497 28.107C54.39 28.1479 54.5109 28.2056 54.6122 28.2801C54.7136 28.3509 54.7896 28.4328 54.8402 28.5259C54.8948 28.6152 54.9221 28.7102 54.9221 28.8107C54.9221 28.8293 54.9201 28.8498 54.9162 28.8722C54.9162 28.8908 54.9162 28.9038 54.9162 28.9113H54.4017V28.8498C54.4017 28.8126 54.392 28.7716 54.3725 28.7269C54.3569 28.6785 54.3218 28.6338 54.2673 28.5929C54.2166 28.5482 54.1445 28.511 54.0509 28.4812C53.9613 28.4514 53.8444 28.4365 53.7002 28.4365C53.5637 28.4365 53.4507 28.4495 53.361 28.4756C53.2714 28.5017 53.2012 28.5352 53.1506 28.5761C53.1038 28.6171 53.0707 28.6599 53.0512 28.7046C53.0317 28.7493 53.0219 28.7902 53.0219 28.8275C53.0219 28.9168 53.057 28.9895 53.1272 29.0453C53.1973 29.0974 53.2909 29.1384 53.4078 29.1682C53.5248 29.198 53.6534 29.224 53.7937 29.2464C53.9379 29.2687 54.0802 29.2967 54.2205 29.3302C54.3608 29.36 54.4894 29.4046 54.6064 29.4642C54.7233 29.5201 54.8168 29.5983 54.887 29.6988C54.9572 29.7993 54.9922 29.9297 54.9922 30.0898C54.9922 30.2573 54.9591 30.4007 54.8929 30.5199C54.8266 30.6353 54.735 30.7284 54.6181 30.7991C54.5011 30.8699 54.3667 30.922 54.2146 30.9555C54.0626 30.989 53.9009 31.0058 53.7294 31.0058H53.6125Z" fill="#696E73"/>
<path d="M56.027 31.9888C55.9413 31.9888 55.8633 31.9814 55.7932 31.9665C55.723 31.9553 55.6548 31.9367 55.5885 31.9106V31.475C55.6314 31.4899 55.686 31.5048 55.7523 31.5197C55.8185 31.5345 55.8828 31.542 55.9452 31.542C56.0465 31.542 56.1303 31.5215 56.1966 31.4806C56.2629 31.4433 56.3233 31.3782 56.3778 31.2851C56.4363 31.192 56.4948 31.0654 56.5532 30.9053L55.3839 28.0958H56.0095L56.8397 30.2071H56.869L57.6816 28.0958H58.2604L57.1379 30.8326C57.0521 31.0449 56.9605 31.2385 56.8631 31.4135C56.7696 31.5885 56.6565 31.7282 56.524 31.8324C56.3915 31.9367 56.2258 31.9888 56.027 31.9888Z" fill="#696E73"/>
<path d="M60.3005 30.9499V28.5314H59.9614V28.0958H60.3005V27.5763C60.3005 27.3343 60.3706 27.1593 60.511 27.0513C60.6552 26.9396 60.8364 26.8837 61.0547 26.8837C61.1093 26.8837 61.1677 26.8893 61.2301 26.9005C61.2963 26.908 61.3607 26.9191 61.423 26.934C61.4854 26.9489 61.538 26.9657 61.5809 26.9843V27.3585C61.5341 27.3399 61.4717 27.3231 61.3938 27.3082C61.3197 27.2896 61.2613 27.2803 61.2184 27.2803C61.1677 27.2803 61.1151 27.2896 61.0605 27.3082C61.0099 27.3231 60.967 27.3548 60.9319 27.4032C60.9007 27.4516 60.8851 27.5298 60.8851 27.6378V28.0958H61.5809V28.5314H60.8851V30.9499H60.3005Z" fill="#696E73"/>
<path d="M63.4886 31.0058C63.2314 31.0058 62.9995 30.9481 62.7929 30.8326C62.5902 30.7172 62.4304 30.5515 62.3135 30.3355C62.1966 30.1196 62.1381 29.8645 62.1381 29.5703V29.4754C62.1381 29.1738 62.1966 28.9168 62.3135 28.7046C62.4304 28.4886 62.5902 28.3248 62.7929 28.2131C62.9995 28.0976 63.2314 28.0399 63.4886 28.0399H63.5647C63.8258 28.0399 64.0577 28.0976 64.2604 28.2131C64.4631 28.3285 64.6229 28.4942 64.7398 28.7102C64.8567 28.9224 64.9152 29.1775 64.9152 29.4754V29.5703C64.9152 29.8645 64.8567 30.1196 64.7398 30.3355C64.6229 30.5515 64.4611 30.7172 64.2545 30.8326C64.0519 30.9481 63.8219 31.0058 63.5647 31.0058H63.4886ZM63.5237 30.6092C63.6718 30.6092 63.8044 30.5757 63.9213 30.5087C64.0382 30.4417 64.1318 30.3411 64.2019 30.2071C64.2721 30.073 64.3072 29.9073 64.3072 29.71V29.3358C64.3072 29.1347 64.2721 28.969 64.2019 28.8386C64.1318 28.7046 64.0382 28.6041 63.9213 28.537C63.8044 28.47 63.6718 28.4365 63.5237 28.4365C63.3795 28.4365 63.2489 28.47 63.132 28.537C63.0151 28.6041 62.9215 28.7046 62.8514 28.8386C62.7812 28.969 62.7461 29.1347 62.7461 29.3358V29.71C62.7461 29.9073 62.7812 30.073 62.8514 30.2071C62.9215 30.3411 63.0151 30.4417 63.132 30.5087C63.2489 30.5757 63.3795 30.6092 63.5237 30.6092Z" fill="#696E73"/>
<path d="M65.7096 30.9499V28.0958H66.1422L66.2241 28.5147C66.228 28.5072 66.2455 28.4793 66.2767 28.4309C66.3079 28.3825 66.3546 28.3285 66.417 28.2689C66.4833 28.2056 66.5671 28.1516 66.6684 28.107C66.7737 28.0623 66.9023 28.0399 67.0543 28.0399C67.2609 28.0399 67.4304 28.0809 67.5629 28.1628C67.6994 28.241 67.7987 28.349 67.8611 28.4868C67.9274 28.6245 67.9605 28.7809 67.9605 28.9559C67.9605 28.9932 67.9586 29.0323 67.9547 29.0732C67.9508 29.1105 67.9488 29.1403 67.9488 29.1626H67.446V29.0565C67.446 28.9746 67.4285 28.8889 67.3934 28.7996C67.3622 28.7065 67.3057 28.6301 67.2238 28.5705C67.142 28.5072 67.027 28.4756 66.8789 28.4756C66.7698 28.4756 66.6762 28.4979 66.5983 28.5426C66.5242 28.5873 66.4638 28.6432 66.417 28.7102C66.3741 28.7772 66.3429 28.848 66.3235 28.9224C66.304 28.9969 66.2942 29.0658 66.2942 29.1291V30.9499H65.7096Z" fill="#696E73"/>
<path d="M71.3385 31.0058C70.8903 31.0058 70.5531 30.8345 70.327 30.4919L70.1224 30.9499H69.9061V26.9284H70.4907V28.4588C70.5726 28.3434 70.6895 28.2447 70.8415 28.1628C70.9975 28.0809 71.1787 28.0399 71.3853 28.0399C71.5997 28.0399 71.7945 28.0883 71.9699 28.1852C72.1492 28.282 72.2915 28.4309 72.3967 28.632C72.502 28.8331 72.5546 29.0881 72.5546 29.3972V29.5089C72.5546 29.8552 72.4981 30.1401 72.385 30.3635C72.2759 30.5832 72.1297 30.7451 71.9466 30.8494C71.7634 30.9537 71.5607 31.0058 71.3385 31.0058ZM71.2274 30.6092C71.3638 30.6092 71.4847 30.5776 71.5899 30.5143C71.699 30.451 71.7848 30.3486 71.8472 30.2071C71.9134 30.0656 71.9466 29.8794 71.9466 29.6485V29.3358C71.9466 29.1347 71.9154 28.969 71.853 28.8386C71.7906 28.7046 71.7068 28.6059 71.6016 28.5426C71.4964 28.4756 71.3755 28.4421 71.2391 28.4421C71.1066 28.4421 70.9819 28.4756 70.8649 28.5426C70.7519 28.6059 70.6603 28.7046 70.5901 28.8386C70.52 28.969 70.4849 29.1365 70.4849 29.3413V29.6541C70.4849 29.8887 70.518 30.0768 70.5843 30.2182C70.6545 30.356 70.7441 30.4566 70.8532 30.5199C70.9663 30.5794 71.091 30.6092 71.2274 30.6092Z" fill="#696E73"/>
<path d="M74.3312 31.0058C74.0233 31.0058 73.7777 30.9257 73.5945 30.7656C73.4113 30.6018 73.3197 30.3504 73.3197 30.0116V28.0958H73.9044V29.8775C73.9044 30.127 73.957 30.3058 74.0622 30.4137C74.1675 30.518 74.3214 30.5701 74.5241 30.5701C74.6605 30.5701 74.7853 30.5403 74.8983 30.4808C75.0152 30.4175 75.1088 30.3318 75.1789 30.2238C75.2491 30.1158 75.2842 29.9948 75.2842 29.8608V28.0958H75.8688V30.4193C75.8688 30.4863 75.8844 30.5348 75.9156 30.5645C75.9507 30.5943 75.9897 30.6092 76.0325 30.6092C76.0754 30.6092 76.1202 30.6018 76.167 30.5869C76.2138 30.572 76.2567 30.5534 76.2956 30.531V30.8885C76.245 30.9257 76.1826 30.9537 76.1085 30.9723C76.0345 30.9946 75.9487 31.0058 75.8513 31.0058C75.7266 31.0058 75.6272 30.9835 75.5531 30.9388C75.4791 30.8941 75.4245 30.8364 75.3894 30.7656C75.3543 30.6911 75.329 30.613 75.3134 30.531C75.216 30.68 75.0776 30.7973 74.8983 30.8829C74.719 30.9648 74.53 31.0058 74.3312 31.0058Z" fill="#696E73"/>
<path d="M78.0151 31.0058C77.8085 31.0058 77.6292 30.9816 77.4772 30.9332C77.3252 30.8848 77.1985 30.8215 77.0972 30.7433C76.9958 30.6614 76.9198 30.572 76.8691 30.4752C76.8185 30.3746 76.7931 30.276 76.7931 30.1792C76.7931 30.1568 76.7931 30.1382 76.7931 30.1233C76.7931 30.1047 76.7951 30.0823 76.799 30.0563H77.3135C77.3096 30.0674 77.3076 30.0786 77.3076 30.0898C77.3076 30.0972 77.3076 30.1065 77.3076 30.1177C77.3076 30.2257 77.3427 30.3169 77.4129 30.3914C77.4869 30.4621 77.5844 30.5161 77.7052 30.5534C77.8299 30.5906 77.9703 30.6092 78.1262 30.6092C78.2587 30.6092 78.3795 30.5925 78.4886 30.559C78.6017 30.5254 78.6894 30.477 78.7517 30.4137C78.818 30.3467 78.8511 30.2685 78.8511 30.1792C78.8511 30.0749 78.8161 29.9948 78.7459 29.939C78.6757 29.8794 78.5822 29.8347 78.4653 29.8049C78.3483 29.7714 78.2197 29.7435 78.0794 29.7211C77.943 29.6951 77.8026 29.6672 77.6584 29.6374C77.5181 29.6039 77.3895 29.5592 77.2726 29.5033C77.1556 29.4475 77.0621 29.3711 76.9919 29.2743C76.9218 29.1738 76.8867 29.0416 76.8867 28.8777C76.8867 28.7511 76.9159 28.6357 76.9744 28.5314C77.0328 28.4272 77.1166 28.3397 77.2258 28.2689C77.3349 28.1945 77.4635 28.1386 77.6117 28.1014C77.7637 28.0604 77.9293 28.0399 78.1086 28.0399H78.1846C78.3561 28.0399 78.512 28.0623 78.6523 28.107C78.7927 28.1479 78.9135 28.2056 79.0148 28.2801C79.1162 28.3509 79.1922 28.4328 79.2429 28.5259C79.2974 28.6152 79.3247 28.7102 79.3247 28.8107C79.3247 28.8293 79.3228 28.8498 79.3189 28.8722C79.3189 28.8908 79.3189 28.9038 79.3189 28.9113H78.8044V28.8498C78.8044 28.8126 78.7946 28.7716 78.7751 28.7269C78.7595 28.6785 78.7245 28.6338 78.6699 28.5929C78.6192 28.5482 78.5471 28.511 78.4536 28.4812C78.3639 28.4514 78.247 28.4365 78.1028 28.4365C77.9663 28.4365 77.8533 28.4495 77.7637 28.4756C77.674 28.5017 77.6039 28.5352 77.5532 28.5761C77.5064 28.6171 77.4733 28.6599 77.4538 28.7046C77.4343 28.7493 77.4246 28.7902 77.4246 28.8275C77.4246 28.9168 77.4596 28.9895 77.5298 29.0453C77.6 29.0974 77.6935 29.1384 77.8104 29.1682C77.9274 29.198 78.056 29.224 78.1963 29.2464C78.3405 29.2687 78.4828 29.2967 78.6231 29.3302C78.7634 29.36 78.8921 29.4046 79.009 29.4642C79.1259 29.5201 79.2195 29.5983 79.2896 29.6988C79.3598 29.7993 79.3949 29.9297 79.3949 30.0898C79.3949 30.2573 79.3617 30.4007 79.2955 30.5199C79.2292 30.6353 79.1376 30.7284 79.0207 30.7991C78.9037 30.8699 78.7693 30.922 78.6173 30.9555C78.4653 30.989 78.3035 31.0058 78.132 31.0058H78.0151Z" fill="#696E73"/>
<path d="M80.1958 30.9499V28.0958H80.7805V30.9499H80.1958ZM80.1783 27.3976V26.9284H80.798V27.3976H80.1783Z" fill="#696E73"/>
<path d="M81.7534 30.9499V28.0958H82.1744L82.2562 28.5147C82.3654 28.3583 82.5057 28.241 82.6772 28.1628C82.8526 28.0809 83.0416 28.0399 83.2443 28.0399C83.4509 28.0399 83.6321 28.0772 83.788 28.1516C83.9478 28.2261 84.0726 28.3378 84.1622 28.4868C84.2519 28.632 84.2967 28.8144 84.2967 29.0341V30.9499H83.712V29.1291C83.712 28.8945 83.6555 28.7269 83.5425 28.6264C83.4294 28.5221 83.2696 28.47 83.063 28.47C82.9305 28.47 82.8077 28.5017 82.6947 28.565C82.5856 28.6283 82.4979 28.7139 82.4316 28.8219C82.3692 28.9262 82.3381 29.0472 82.3381 29.1849V30.9499H81.7534Z" fill="#696E73"/>
<path d="M86.4349 31.0058C86.1699 31.0058 85.936 30.9518 85.7333 30.8438C85.5345 30.7321 85.3786 30.5701 85.2656 30.3579C85.1526 30.1419 85.0961 29.8831 85.0961 29.5815V29.4642C85.0961 29.1589 85.1545 28.9001 85.2714 28.6878C85.3923 28.4756 85.556 28.3155 85.7626 28.2075C85.9691 28.0958 86.205 28.0399 86.47 28.0399H86.5343C86.776 28.0399 86.9903 28.0883 87.1774 28.1852C87.3645 28.282 87.5087 28.4197 87.6101 28.5985C87.7153 28.7772 87.7679 28.9895 87.7679 29.2352V29.5927H85.7041C85.7041 29.8049 85.7333 29.9874 85.7918 30.1401C85.8542 30.2927 85.9419 30.41 86.0549 30.4919C86.1718 30.5701 86.3141 30.6092 86.4817 30.6092C86.622 30.6092 86.7467 30.5832 86.8559 30.531C86.965 30.4789 87.0527 30.3988 87.119 30.2909C87.1852 30.1829 87.2184 30.0488 87.2184 29.8887H87.7679C87.7679 30.1159 87.7114 30.3132 87.5984 30.4808C87.4854 30.6483 87.3314 30.7787 87.1365 30.8717C86.9455 30.9611 86.7292 31.0058 86.4875 31.0058H86.4349ZM85.7099 29.2576H87.195C87.195 28.9783 87.1307 28.7716 87.002 28.6376C86.8773 28.5035 86.7019 28.4365 86.4758 28.4365C86.2693 28.4365 86.0919 28.5054 85.9438 28.6432C85.7996 28.7809 85.7216 28.9857 85.7099 29.2576Z" fill="#696E73"/>
<path d="M89.6055 31.0058C89.3989 31.0058 89.2196 30.9816 89.0676 30.9332C88.9156 30.8848 88.7889 30.8215 88.6875 30.7433C88.5862 30.6614 88.5102 30.572 88.4595 30.4752C88.4089 30.3746 88.3835 30.276 88.3835 30.1792C88.3835 30.1568 88.3835 30.1382 88.3835 30.1233C88.3835 30.1047 88.3855 30.0823 88.3894 30.0563H88.9039C88.9 30.0674 88.898 30.0786 88.898 30.0898C88.898 30.0972 88.898 30.1065 88.898 30.1177C88.898 30.2257 88.9331 30.3169 89.0033 30.3914C89.0773 30.4621 89.1748 30.5161 89.2956 30.5534C89.4203 30.5906 89.5606 30.6092 89.7165 30.6092C89.8491 30.6092 89.9699 30.5925 90.079 30.559C90.1921 30.5254 90.2798 30.477 90.3421 30.4137C90.4084 30.3467 90.4415 30.2685 90.4415 30.1792C90.4415 30.0749 90.4064 29.9948 90.3363 29.939C90.2661 29.8794 90.1726 29.8347 90.0556 29.8049C89.9387 29.7714 89.8101 29.7435 89.6698 29.7211C89.5333 29.6951 89.393 29.6672 89.2488 29.6374C89.1085 29.6039 88.9799 29.5592 88.8629 29.5033C88.746 29.4475 88.6525 29.3711 88.5823 29.2743C88.5121 29.1738 88.4771 29.0416 88.4771 28.8777C88.4771 28.7511 88.5063 28.6357 88.5648 28.5314C88.6232 28.4272 88.707 28.3397 88.8162 28.2689C88.9253 28.1945 89.0539 28.1386 89.202 28.1014C89.3541 28.0604 89.5197 28.0399 89.699 28.0399H89.775C89.9465 28.0399 90.1024 28.0623 90.2427 28.107C90.3831 28.1479 90.5039 28.2056 90.6052 28.2801C90.7066 28.3509 90.7826 28.4328 90.8332 28.5259C90.8878 28.6152 90.9151 28.7102 90.9151 28.8107C90.9151 28.8293 90.9131 28.8498 90.9093 28.8722C90.9093 28.8908 90.9093 28.9038 90.9093 28.9113H90.3947V28.8498C90.3947 28.8126 90.385 28.7716 90.3655 28.7269C90.3499 28.6785 90.3148 28.6338 90.2603 28.5929C90.2096 28.5482 90.1375 28.511 90.044 28.4812C89.9543 28.4514 89.8374 28.4365 89.6932 28.4365C89.5567 28.4365 89.4437 28.4495 89.3541 28.4756C89.2644 28.5017 89.1942 28.5352 89.1436 28.5761C89.0968 28.6171 89.0637 28.6599 89.0442 28.7046C89.0247 28.7493 89.015 28.7902 89.015 28.8275C89.015 28.9168 89.05 28.9895 89.1202 29.0453C89.1903 29.0974 89.2839 29.1384 89.4008 29.1682C89.5178 29.198 89.6464 29.224 89.7867 29.2464C89.9309 29.2687 90.0732 29.2967 90.2135 29.3302C90.3538 29.36 90.4824 29.4046 90.5994 29.4642C90.7163 29.5201 90.8099 29.5983 90.88 29.6988C90.9502 29.7993 90.9852 29.9297 90.9852 30.0898C90.9852 30.2573 90.9521 30.4007 90.8859 30.5199C90.8196 30.6353 90.728 30.7284 90.6111 30.7991C90.4941 30.8699 90.3597 30.922 90.2077 30.9555C90.0556 30.989 89.8939 31.0058 89.7224 31.0058H89.6055Z" fill="#696E73"/>
<path d="M92.7743 31.0058C92.5677 31.0058 92.3884 30.9816 92.2364 30.9332C92.0844 30.8848 91.9577 30.8215 91.8563 30.7433C91.755 30.6614 91.679 30.572 91.6283 30.4752C91.5777 30.3746 91.5523 30.276 91.5523 30.1792C91.5523 30.1568 91.5523 30.1382 91.5523 30.1233C91.5523 30.1047 91.5543 30.0823 91.5582 30.0563H92.0727C92.0688 30.0674 92.0668 30.0786 92.0668 30.0898C92.0668 30.0972 92.0668 30.1065 92.0668 30.1177C92.0668 30.2257 92.1019 30.3169 92.1721 30.3914C92.2461 30.4621 92.3436 30.5161 92.4644 30.5534C92.5891 30.5906 92.7294 30.6092 92.8853 30.6092C93.0179 30.6092 93.1387 30.5925 93.2478 30.559C93.3609 30.5254 93.4486 30.477 93.5109 30.4137C93.5772 30.3467 93.6103 30.2685 93.6103 30.1792C93.6103 30.0749 93.5752 29.9948 93.5051 29.939C93.4349 29.8794 93.3414 29.8347 93.2244 29.8049C93.1075 29.7714 92.9789 29.7435 92.8386 29.7211C92.7022 29.6951 92.5618 29.6672 92.4176 29.6374C92.2773 29.6039 92.1487 29.5592 92.0317 29.5033C91.9148 29.4475 91.8213 29.3711 91.7511 29.2743C91.6809 29.1738 91.6459 29.0416 91.6459 28.8777C91.6459 28.7511 91.6751 28.6357 91.7336 28.5314C91.792 28.4272 91.8758 28.3397 91.985 28.2689C92.0941 28.1945 92.2227 28.1386 92.3708 28.1014C92.5229 28.0604 92.6885 28.0399 92.8678 28.0399H92.9438C93.1153 28.0399 93.2712 28.0623 93.4115 28.107C93.5519 28.1479 93.6727 28.2056 93.774 28.2801C93.8754 28.3509 93.9514 28.4328 94.002 28.5259C94.0566 28.6152 94.0839 28.7102 94.0839 28.8107C94.0839 28.8293 94.0819 28.8498 94.078 28.8722C94.078 28.8908 94.078 28.9038 94.078 28.9113H93.5635V28.8498C93.5635 28.8126 93.5538 28.7716 93.5343 28.7269C93.5187 28.6785 93.4836 28.6338 93.4291 28.5929C93.3784 28.5482 93.3063 28.511 93.2127 28.4812C93.1231 28.4514 93.0062 28.4365 92.862 28.4365C92.7255 28.4365 92.6125 28.4495 92.5228 28.4756C92.4332 28.5017 92.363 28.5352 92.3124 28.5761C92.2656 28.6171 92.2325 28.6599 92.213 28.7046C92.1935 28.7493 92.1838 28.7902 92.1838 28.8275C92.1838 28.9168 92.2188 28.9895 92.289 29.0453C92.3591 29.0974 92.4527 29.1384 92.5696 29.1682C92.6866 29.198 92.8152 29.224 92.9555 29.2464C93.0997 29.2687 93.242 29.2967 93.3823 29.3302C93.5226 29.36 93.6512 29.4046 93.7682 29.4642C93.8851 29.5201 93.9787 29.5983 94.0488 29.6988C94.119 29.7993 94.154 29.9297 94.154 30.0898C94.154 30.2573 94.1209 30.4007 94.0547 30.5199C93.9884 30.6353 93.8968 30.7284 93.7799 30.7991C93.6629 30.8699 93.5285 30.922 93.3765 30.9555C93.2244 30.989 93.0627 31.0058 92.8912 31.0058H92.7743Z" fill="#696E73"/>
</svg>
