<svg width="117" height="32" viewBox="0 0 117 32" fill="none" xmlns="http://www.w3.org/2000/svg">
<path d="M0 31.0126V26.3422H0.690041V31.0126H0Z" fill="#696E73"/>
<path d="M3.09532 31.0126V26.9227H1.43922V26.3422H5.43456V26.9227H3.77846V31.0126H3.09532Z" fill="#696E73"/>
<path d="M6.01597 27.8834L6.36099 26.5291L6.4507 26.916C6.31729 26.916 6.20458 26.876 6.11258 26.7959C6.02517 26.7159 5.98147 26.6091 5.98147 26.4757C5.98147 26.3378 6.02517 26.2288 6.11258 26.1488C6.20458 26.0642 6.31499 26.022 6.4438 26.022C6.5772 26.022 6.68531 26.0665 6.76812 26.1554C6.85092 26.2399 6.89232 26.3467 6.89232 26.4757C6.89232 26.5157 6.89002 26.558 6.88542 26.6024C6.88082 26.6425 6.86932 26.6892 6.85092 26.7426C6.83712 26.7959 6.81412 26.8649 6.78192 26.9494L6.4507 27.8834H6.01597Z" fill="#696E73"/>
<path d="M9.41324 31.0659C9.04522 31.0659 8.69329 31.0126 8.35747 30.9058C8.02165 30.7946 7.75714 30.6523 7.56393 30.4788L7.81924 29.9584C8.00325 30.1141 8.23787 30.2431 8.52308 30.3454C8.8083 30.4477 9.10502 30.4988 9.41324 30.4988C9.69385 30.4988 9.92157 30.4677 10.0964 30.4054C10.2712 30.3431 10.4 30.2586 10.4828 30.1519C10.5656 30.0407 10.607 29.9161 10.607 29.7783C10.607 29.6181 10.5518 29.4891 10.4414 29.3913C10.3356 29.2934 10.1953 29.2156 10.0205 29.1578C9.85026 29.0955 9.66165 29.0421 9.45464 28.9977C9.24763 28.9532 9.03832 28.902 8.8267 28.8442C8.61969 28.7819 8.42878 28.7041 8.25397 28.6107C8.08376 28.5173 7.94575 28.3927 7.83994 28.2371C7.73414 28.0769 7.68123 27.8723 7.68123 27.6232C7.68123 27.3831 7.74564 27.1629 7.87445 26.9627C8.00785 26.7581 8.21027 26.5958 8.48168 26.4757C8.7577 26.3511 9.10732 26.2889 9.53054 26.2889C9.81116 26.2889 10.0895 26.3245 10.3655 26.3956C10.6415 26.4668 10.8807 26.5691 11.0831 26.7025L10.8554 27.2363C10.6484 27.1028 10.4299 27.0072 10.1999 26.9494C9.96987 26.8871 9.74676 26.856 9.53054 26.856C9.25913 26.856 9.03601 26.8893 8.8612 26.9561C8.68639 27.0228 8.55759 27.1117 8.47478 27.2229C8.39658 27.3341 8.35747 27.4587 8.35747 27.5966C8.35747 27.7611 8.41038 27.8923 8.51618 27.9902C8.62659 28.0881 8.7669 28.1659 8.93711 28.2237C9.11192 28.2815 9.30283 28.3349 9.50984 28.3838C9.71685 28.4283 9.92387 28.4795 10.1309 28.5373C10.3425 28.5951 10.5334 28.6707 10.7036 28.7641C10.8784 28.8575 11.0187 28.9821 11.1245 29.1378C11.2303 29.2934 11.2832 29.4936 11.2832 29.7382C11.2832 29.974 11.2165 30.1941 11.0831 30.3987C10.9497 30.5989 10.7427 30.7613 10.4621 30.8858C10.1861 31.0059 9.83646 31.0659 9.41324 31.0659Z" fill="#696E73"/>
<path d="M15.1036 31.0126V26.9227H13.4476V26.3422H17.4429V26.9227H15.7868V31.0126H15.1036Z" fill="#696E73"/>
<path d="M21.6584 31.0126V26.3422H22.3485V31.0126H21.6584ZM18.1944 31.0126V26.3422H18.8845V31.0126H18.1944ZM18.8155 28.9309V28.3505H21.7206V28.9309H18.8155Z" fill="#696E73"/>
<path d="M23.7943 31.0126V26.3422H27.2031V26.9227H24.4843V30.4321H27.2997V31.0126H23.7943ZM24.4222 28.9243V28.3572H26.9064V28.9243H24.4222Z" fill="#696E73"/>
<path d="M29.5387 31.0126L31.7261 26.3422H32.4093L34.6036 31.0126H33.8791L31.9263 26.7159H32.2023L30.2495 31.0126H29.5387ZM30.4703 29.845L30.6566 29.3112H33.3753L33.5755 29.845H30.4703Z" fill="#696E73"/>
<path d="M35.3242 31.0126V26.3422H37.208C37.8336 26.3422 38.3258 26.4868 38.6847 26.7759C39.0435 27.0606 39.2229 27.4587 39.2229 27.9702C39.2229 28.3082 39.1424 28.5996 38.9814 28.8442C38.8204 29.0844 38.5904 29.269 38.2913 29.398C37.9923 29.527 37.6312 29.5914 37.208 29.5914H35.7037L36.0142 29.2845V31.0126H35.3242ZM38.5536 31.0126L37.3253 29.3179H38.0636L39.3057 31.0126H38.5536ZM36.0142 29.3513L35.7037 29.0243H37.1873C37.6289 29.0243 37.9624 28.9332 38.1878 28.7508C38.4179 28.564 38.5329 28.3038 38.5329 27.9702C38.5329 27.6366 38.4179 27.3786 38.1878 27.1962C37.9624 27.0139 37.6289 26.9227 37.1873 26.9227H35.7037L36.0142 26.5891V29.3513Z" fill="#696E73"/>
<path d="M41.2295 31.0126V26.9227H39.5734V26.3422H43.5688V26.9227H41.9127V31.0126H41.2295Z" fill="#696E73"/>
<path d="M43.7391 32L44.0841 30.6523L44.1738 31.0392C44.0404 31.0392 43.9277 30.9992 43.8357 30.9192C43.7483 30.8391 43.7046 30.7301 43.7046 30.5922C43.7046 30.4588 43.7483 30.3498 43.8357 30.2653C43.9277 30.1808 44.0381 30.1385 44.1669 30.1385C44.3003 30.1385 44.4084 30.183 44.4913 30.272C44.5741 30.3565 44.6155 30.4632 44.6155 30.5922C44.6155 30.6367 44.6109 30.6812 44.6017 30.7257C44.5971 30.7657 44.5856 30.8146 44.5672 30.8725C44.5534 30.9258 44.5304 30.9925 44.4982 31.0726L44.1738 32H43.7391Z" fill="#696E73"/>
<path d="M47.5144 31.0126V26.3422H48.0803L51.2752 30.1786H50.9784V26.3422H51.6685V31.0126H51.1027L47.9078 27.1762H48.2045V31.0126H47.5144Z" fill="#696E73"/>
<path d="M55.2948 31.0659C54.9268 31.0659 54.5841 31.0059 54.2667 30.8858C53.9538 30.7657 53.6824 30.5989 53.4524 30.3854C53.2224 30.1675 53.043 29.9139 52.9142 29.6248C52.7854 29.3357 52.721 29.0199 52.721 28.6774C52.721 28.3349 52.7854 28.0191 52.9142 27.73C53.043 27.4409 53.2224 27.1896 53.4524 26.9761C53.6824 26.7581 53.9538 26.5891 54.2667 26.469C54.5795 26.3489 54.9222 26.2889 55.2948 26.2889C55.6628 26.2889 56.001 26.3489 56.3092 26.469C56.622 26.5847 56.8934 26.7515 57.1234 26.9694C57.358 27.1829 57.5374 27.4342 57.6617 27.7233C57.7905 28.0124 57.8549 28.3305 57.8549 28.6774C57.8549 29.0243 57.7905 29.3424 57.6617 29.6315C57.5374 29.9206 57.358 30.1741 57.1234 30.3921C56.8934 30.6056 56.622 30.7724 56.3092 30.8925C56.001 31.0081 55.6628 31.0659 55.2948 31.0659ZM55.2948 30.4721C55.5616 30.4721 55.8077 30.4277 56.0332 30.3387C56.2632 30.2497 56.461 30.1252 56.6266 29.9651C56.7968 29.8005 56.9279 29.6092 57.0199 29.3913C57.1165 29.1733 57.1648 28.9354 57.1648 28.6774C57.1648 28.4194 57.1165 28.1815 57.0199 27.9635C56.9279 27.7456 56.7968 27.5565 56.6266 27.3964C56.461 27.2318 56.2632 27.1051 56.0332 27.0161C55.8077 26.9271 55.5616 26.8827 55.2948 26.8827C55.0234 26.8827 54.7727 26.9271 54.5427 27.0161C54.3173 27.1051 54.1194 27.2318 53.9492 27.3964C53.779 27.5565 53.6456 27.7456 53.549 27.9635C53.457 28.1815 53.411 28.4194 53.411 28.6774C53.411 28.9354 53.457 29.1733 53.549 29.3913C53.6456 29.6092 53.779 29.8005 53.9492 29.9651C54.1194 30.1252 54.3173 30.2497 54.5427 30.3387C54.7727 30.4277 55.0234 30.4721 55.2948 30.4721Z" fill="#696E73"/>
<path d="M59.8013 31.0126V26.9227H58.1452V26.3422H62.1406V26.9227H60.4845V31.0126H59.8013Z" fill="#696E73"/>
<path d="M65.3663 31.0659C65.0811 31.0659 64.8142 31.0081 64.5658 30.8925C64.3174 30.7768 64.115 30.61 63.9586 30.3921L64.3588 29.9384C64.4922 30.1163 64.6417 30.2542 64.8074 30.352C64.9776 30.4455 65.1639 30.4922 65.3663 30.4922C65.9183 30.4922 66.1943 30.1764 66.1943 29.5447V26.9227H64.4485V26.3422H66.8775V29.5114C66.8775 30.0318 66.7487 30.421 66.491 30.679C66.238 30.9369 65.8631 31.0659 65.3663 31.0659Z" fill="#696E73"/>
<path d="M70.2842 31.0659C69.6493 31.0659 69.1502 30.8902 68.7868 30.5389C68.4234 30.1875 68.2417 29.6737 68.2417 28.9977V26.3422H68.9317V28.971C68.9317 29.4914 69.049 29.8717 69.2836 30.1119C69.5228 30.352 69.8587 30.4721 70.2911 30.4721C70.7281 30.4721 71.0639 30.352 71.2985 30.1119C71.5377 29.8717 71.6574 29.4914 71.6574 28.971V26.3422H72.3267V28.9977C72.3267 29.6737 72.145 30.1875 71.7816 30.5389C71.4227 30.8902 70.9236 31.0659 70.2842 31.0659Z" fill="#696E73"/>
<path d="M75.1491 31.0659C74.7811 31.0659 74.4291 31.0126 74.0933 30.9058C73.7575 30.7946 73.493 30.6523 73.2998 30.4788L73.5551 29.9584C73.7391 30.1141 73.9737 30.2431 74.2589 30.3454C74.5441 30.4477 74.8409 30.4988 75.1491 30.4988C75.4297 30.4988 75.6574 30.4677 75.8322 30.4054C76.007 30.3431 76.1358 30.2586 76.2186 30.1519C76.3014 30.0407 76.3428 29.9161 76.3428 29.7783C76.3428 29.6181 76.2876 29.4891 76.1772 29.3913C76.0714 29.2934 75.9311 29.2156 75.7563 29.1578C75.5861 29.0955 75.3975 29.0421 75.1905 28.9977C74.9835 28.9532 74.7742 28.902 74.5625 28.8442C74.3555 28.7819 74.1646 28.7041 73.9898 28.6107C73.8196 28.5173 73.6816 28.3927 73.5758 28.2371C73.47 28.0769 73.4171 27.8723 73.4171 27.6232C73.4171 27.3831 73.4815 27.1629 73.6103 26.9627C73.7437 26.7581 73.9461 26.5958 74.2175 26.4757C74.4935 26.3511 74.8432 26.2889 75.2664 26.2889C75.547 26.2889 75.8253 26.3245 76.1013 26.3956C76.3773 26.4668 76.6166 26.5691 76.819 26.7025L76.5913 27.2363C76.3842 27.1028 76.1657 27.0072 75.9357 26.9494C75.7057 26.8871 75.4826 26.856 75.2664 26.856C74.995 26.856 74.7718 26.8893 74.597 26.9561C74.4222 27.0228 74.2934 27.1117 74.2106 27.2229C74.1324 27.3341 74.0933 27.4587 74.0933 27.5966C74.0933 27.7611 74.1462 27.8923 74.252 27.9902C74.3624 28.0881 74.5027 28.1659 74.6729 28.2237C74.8478 28.2815 75.0387 28.3349 75.2457 28.3838C75.4527 28.4283 75.6597 28.4795 75.8667 28.5373C76.0783 28.5951 76.2692 28.6707 76.4395 28.7641C76.6143 28.8575 76.7546 28.9821 76.8604 29.1378C76.9662 29.2934 77.0191 29.4936 77.0191 29.7382C77.0191 29.974 76.9524 30.1941 76.819 30.3987C76.6856 30.5989 76.4786 30.7613 76.1979 30.8858C75.9219 31.0059 75.5723 31.0659 75.1491 31.0659Z" fill="#696E73"/>
<path d="M78.919 31.0126V26.9227H77.2629V26.3422H81.2582V26.9227H79.6021V31.0126H78.919Z" fill="#696E73"/>
<path d="M83.1314 31.0126L85.3189 26.3422H86.002L88.1964 31.0126H87.4718L85.519 26.7159H85.795L83.8422 31.0126H83.1314ZM84.063 29.845L84.2493 29.3112H86.9681L87.1682 29.845H84.063Z" fill="#696E73"/>
<path d="M90.77 31.0126V26.3422H92.8057C93.3209 26.3422 93.774 26.4401 94.165 26.6358C94.5607 26.8315 94.8666 27.1051 95.0828 27.4564C95.3036 27.8078 95.414 28.2148 95.414 28.6774C95.414 29.14 95.3036 29.547 95.0828 29.8984C94.8666 30.2497 94.5607 30.5233 94.165 30.719C93.774 30.9147 93.3209 31.0126 92.8057 31.0126H90.77ZM91.4601 30.4321H92.7643C93.1645 30.4321 93.5095 30.3587 93.7993 30.2119C94.0937 30.0652 94.3214 29.8605 94.4825 29.5981C94.6435 29.3312 94.724 29.0243 94.724 28.6774C94.724 28.326 94.6435 28.0191 94.4825 27.7567C94.3214 27.4943 94.0937 27.2896 93.7993 27.1429C93.5095 26.9961 93.1645 26.9227 92.7643 26.9227H91.4601V30.4321Z" fill="#696E73"/>
<path d="M96.471 31.0126V26.3422H99.8798V26.9227H97.161V30.4321H99.9764V31.0126H96.471ZM97.0989 28.9243V28.3572H99.583V28.9243H97.0989Z" fill="#696E73"/>
<path d="M102.501 31.0659C102.133 31.0659 101.781 31.0126 101.446 30.9058C101.11 30.7946 100.845 30.6523 100.652 30.4788L100.907 29.9584C101.091 30.1141 101.326 30.2431 101.611 30.3454C101.896 30.4477 102.193 30.4988 102.501 30.4988C102.782 30.4988 103.01 30.4677 103.185 30.4054C103.359 30.3431 103.488 30.2586 103.571 30.1519C103.654 30.0407 103.695 29.9161 103.695 29.7783C103.695 29.6181 103.64 29.4891 103.53 29.3913C103.424 29.2934 103.283 29.2156 103.109 29.1578C102.938 29.0955 102.75 29.0421 102.543 28.9977C102.336 28.9532 102.126 28.902 101.915 28.8442C101.708 28.7819 101.517 28.7041 101.342 28.6107C101.172 28.5173 101.034 28.3927 100.928 28.2371C100.822 28.0769 100.769 27.8723 100.769 27.6232C100.769 27.3831 100.834 27.1629 100.963 26.9627C101.096 26.7581 101.298 26.5958 101.57 26.4757C101.846 26.3511 102.195 26.2889 102.619 26.2889C102.899 26.2889 103.178 26.3245 103.454 26.3956C103.73 26.4668 103.969 26.5691 104.171 26.7025L103.944 27.2363C103.737 27.1028 103.518 27.0072 103.288 26.9494C103.058 26.8871 102.835 26.856 102.619 26.856C102.347 26.856 102.124 26.8893 101.949 26.9561C101.775 27.0228 101.646 27.1117 101.563 27.2229C101.485 27.3341 101.446 27.4587 101.446 27.5966C101.446 27.7611 101.499 27.8923 101.604 27.9902C101.715 28.0881 101.855 28.1659 102.025 28.2237C102.2 28.2815 102.391 28.3349 102.598 28.3838C102.805 28.4283 103.012 28.4795 103.219 28.5373C103.431 28.5951 103.622 28.6707 103.792 28.7641C103.967 28.8575 104.107 28.9821 104.213 29.1378C104.318 29.2934 104.371 29.4936 104.371 29.7382C104.371 29.974 104.305 30.1941 104.171 30.3987C104.038 30.5989 103.831 30.7613 103.55 30.8858C103.274 31.0059 102.925 31.0659 102.501 31.0659Z" fill="#696E73"/>
<path d="M105.379 31.0126V26.3422H106.07V31.0126H105.379Z" fill="#696E73"/>
<path d="M109.696 31.0659C109.324 31.0659 108.981 31.0081 108.668 30.8925C108.355 30.7724 108.084 30.6056 107.854 30.3921C107.624 30.1741 107.444 29.9206 107.316 29.6315C107.187 29.3424 107.122 29.0243 107.122 28.6774C107.122 28.3305 107.187 28.0124 107.316 27.7233C107.444 27.4342 107.624 27.1829 107.854 26.9694C108.088 26.7515 108.362 26.5847 108.675 26.469C108.988 26.3489 109.333 26.2889 109.71 26.2889C110.092 26.2889 110.441 26.3489 110.759 26.469C111.076 26.5891 111.345 26.7692 111.566 27.0094L111.138 27.4231C110.941 27.2363 110.724 27.1006 110.49 27.0161C110.26 26.9271 110.009 26.8827 109.738 26.8827C109.462 26.8827 109.204 26.9271 108.965 27.0161C108.73 27.1051 108.525 27.2296 108.351 27.3897C108.18 27.5499 108.047 27.7411 107.95 27.9635C107.858 28.1815 107.812 28.4194 107.812 28.6774C107.812 28.9309 107.858 29.1689 107.95 29.3913C108.047 29.6092 108.18 29.8005 108.351 29.9651C108.525 30.1252 108.73 30.2497 108.965 30.3387C109.199 30.4277 109.455 30.4721 109.731 30.4721C109.988 30.4721 110.234 30.4343 110.469 30.3587C110.708 30.2787 110.929 30.1474 111.131 29.9651L111.525 30.4721C111.286 30.6678 111.005 30.8169 110.683 30.9192C110.366 31.017 110.037 31.0659 109.696 31.0659ZM111.525 30.4721L110.862 30.3854V28.6507H111.525V30.4721Z" fill="#696E73"/>
<path d="M112.846 31.0126V26.3422H113.412L116.607 30.1786H116.31V26.3422H117V31.0126H116.434L113.239 27.1762H113.536V31.0126H112.846Z" fill="#696E73"/>
<path d="M0.0342773 17.3801V0.292922H4.08994V17.3801H0.0342773Z" fill="#696E73"/>
<path d="M8.24887 17.3801V0.292922H11.6035L21.943 12.5957H20.3157V0.292922H24.3213V17.3801H20.9917L10.6272 5.07732H12.2545V17.3801H8.24887Z" fill="#696E73"/>
<path d="M32.0976 17.3801V3.51507H26.4898V0.292922H41.7611V3.51507H36.1532V17.3801H32.0976Z" fill="#696E73"/>
<path d="M43.9432 17.3801V0.292922H51.9043C53.807 0.292922 55.4843 0.650938 56.9364 1.36697C58.3884 2.06673 59.5233 3.05127 60.3411 4.3206C61.1589 5.58994 61.5678 7.09523 61.5678 8.83649C61.5678 10.5615 61.1589 12.0668 60.3411 13.3524C59.5233 14.6217 58.3884 15.6144 56.9364 16.3304C55.4843 17.0302 53.807 17.3801 51.9043 17.3801H43.9432ZM47.9989 14.1335H51.704C52.8723 14.1335 53.8821 13.922 54.7333 13.4988C55.6012 13.0595 56.2688 12.4411 56.7361 11.6437C57.2201 10.8463 57.4621 9.91054 57.4621 8.83649C57.4621 7.74617 57.2201 6.81044 56.7361 6.02932C56.2688 5.23192 55.6012 4.62166 54.7333 4.19855C53.8821 3.75917 52.8723 3.53948 51.704 3.53948H47.9989V14.1335Z" fill="#696E73"/>
<path d="M64.6264 17.3801V0.292922H77.8699V3.46625H68.657V14.2067H78.1953V17.3801H64.6264ZM68.3566 10.2523V7.1766H76.7934V10.2523H68.3566Z" fill="#696E73"/>
<path d="M89.809 17.673C88.4571 17.673 87.197 17.4614 86.0287 17.0383C84.8771 16.5989 83.8757 15.9805 83.0245 15.1831C82.1733 14.3857 81.5057 13.45 81.0217 12.376C80.5544 11.3019 80.3207 10.1221 80.3207 8.83649C80.3207 7.55089 80.5544 6.37106 81.0217 5.29701C81.5057 4.22296 82.1733 3.28724 83.0245 2.48984C83.8924 1.69244 84.9021 1.08218 86.0537 0.659074C87.2054 0.219691 88.4654 0 89.834 0C91.3528 0 92.7214 0.260375 93.9397 0.781127C95.1748 1.2856 96.2096 2.03418 97.0441 3.02687L94.4404 5.37024C93.8396 4.70303 93.172 4.20669 92.4377 3.88122C91.7033 3.53948 90.9022 3.36861 90.0343 3.36861C89.2165 3.36861 88.4654 3.4988 87.7812 3.75917C87.0969 4.01955 86.5044 4.39383 86.0037 4.88204C85.503 5.37024 85.1108 5.94795 84.827 6.61516C84.56 7.28238 84.4265 8.02282 84.4265 8.83649C84.4265 9.65017 84.56 10.3906 84.827 11.0578C85.1108 11.725 85.503 12.3027 86.0037 12.7909C86.5044 13.2791 87.0969 13.6534 87.7812 13.9138C88.4654 14.1742 89.2165 14.3044 90.0343 14.3044C90.9022 14.3044 91.7033 14.1416 92.4377 13.8162C93.172 13.4744 93.8396 12.9618 94.4404 12.2783L97.0441 14.6217C96.2096 15.6144 95.1748 16.3711 93.9397 16.8919C92.7214 17.4126 91.3445 17.673 89.809 17.673Z" fill="#696E73"/>
<path d="M107.268 17.673C105.883 17.673 104.598 17.4533 103.413 17.0139C102.244 16.5745 101.226 15.9561 100.358 15.1587C99.5071 14.3613 98.8395 13.4256 98.3555 12.3516C97.8882 11.2775 97.6545 10.1058 97.6545 8.83649C97.6545 7.56716 97.8882 6.39547 98.3555 5.32142C98.8395 4.24738 99.5154 3.31165 100.383 2.51425C101.251 1.71685 102.269 1.09846 103.438 0.659074C104.606 0.219691 105.874 0 107.243 0C108.628 0 109.897 0.219691 111.048 0.659074C112.217 1.09846 113.226 1.71685 114.077 2.51425C114.945 3.31165 115.621 4.24738 116.105 5.32142C116.589 6.3792 116.831 7.55089 116.831 8.83649C116.831 10.1058 116.589 11.2856 116.105 12.376C115.621 13.45 114.945 14.3857 114.077 15.1831C113.226 15.9643 112.217 16.5745 111.048 17.0139C109.897 17.4533 108.636 17.673 107.268 17.673ZM107.243 14.3044C108.027 14.3044 108.745 14.1742 109.396 13.9138C110.063 13.6534 110.648 13.2791 111.148 12.7909C111.649 12.3027 112.033 11.725 112.3 11.0578C112.584 10.3906 112.726 9.65017 112.726 8.83649C112.726 8.02282 112.584 7.28238 112.3 6.61516C112.033 5.94795 111.649 5.37024 111.148 4.88204C110.664 4.39383 110.089 4.01955 109.421 3.75917C108.753 3.4988 108.027 3.36861 107.243 3.36861C106.458 3.36861 105.732 3.4988 105.065 3.75917C104.414 4.01955 103.838 4.39383 103.337 4.88204C102.837 5.37024 102.445 5.94795 102.161 6.61516C101.894 7.28238 101.76 8.02282 101.76 8.83649C101.76 9.63389 101.894 10.3743 102.161 11.0578C102.445 11.725 102.828 12.3027 103.312 12.7909C103.813 13.2791 104.397 13.6534 105.065 13.9138C105.732 14.1742 106.458 14.3044 107.243 14.3044Z" fill="#696E73"/>
</svg>
