<svg width="141" height="32" viewBox="0 0 141 32" fill="none" xmlns="http://www.w3.org/2000/svg">
<path d="M26.5328 0.332901C27.1051 0.110967 27.9091 0 28.9448 0C29.9805 0 30.9072 0.0693541 31.7248 0.208062C30.8799 6.58864 30.2122 12.3728 29.7216 17.5605C29.2583 22.7204 28.9993 25.4391 28.9448 25.7165C28.9176 25.9939 28.9039 26.2436 28.9039 26.4655C28.9312 27.1868 29.2719 27.5475 29.926 27.5475C31.5613 27.5475 33.8371 25.6333 36.7534 21.8049C37.2712 23.2752 37.571 24.2601 37.6528 24.7594C36.3446 26.8678 34.7638 28.6016 32.9104 29.961C31.0843 31.2926 29.3537 31.9584 27.7184 31.9584C26.0831 31.9584 24.952 31.5284 24.3251 30.6684C23.6982 29.8084 23.3848 28.8513 23.3848 27.7971C23.3848 27.5475 23.4121 27.062 23.4666 26.3407C23.5483 25.6194 24.0934 21.1253 25.1019 12.8583L18.3971 28.6294H14.9221L12.9189 13.1079L10.0571 26.0078C9.59377 28.0607 8.83063 29.5726 7.76768 30.5436C6.73199 31.5145 5.58728 32 4.33355 32C3.07982 32 2.05775 31.6255 1.26736 30.8765C0.422453 30.072 0 28.9345 0 27.4642C0 24.5236 2.23491 22.013 6.70474 19.9324C9.13043 8.08669 10.4387 1.52579 10.6295 0.249674C11.2836 0.0832247 12.1557 0 13.2459 0C14.3634 0 15.1265 0.0277413 15.5354 0.0832239H15.8215L18.3563 19.433L26.5328 0.540963V0.332901ZM2.90266 26.7568C2.90266 27.6446 3.24335 28.0884 3.92472 28.0884C4.38806 28.0884 4.76963 27.7139 5.06943 26.9649C5.451 26.0494 5.76444 24.8427 6.00973 23.3446C3.93835 24.5375 2.90266 25.6749 2.90266 26.7568Z" fill="#696E73"/>
<path d="M44.7079 11.6931C47.2154 11.6931 49.3004 12.5115 50.9629 14.1482C52.6528 15.785 53.4977 17.7824 53.4977 20.1404C53.4977 23.7191 52.462 26.5904 50.3906 28.7542C48.3465 30.8903 45.8663 31.9584 42.95 31.9584C40.0337 31.9584 37.717 31.1123 35.9999 29.42C34.3101 27.7278 33.4652 25.6333 33.4652 23.1365C33.4652 19.6411 34.5145 16.8669 36.6132 14.814C38.7391 12.7334 41.4373 11.6931 44.7079 11.6931ZM43.8903 15.0637C42.6093 15.0637 41.5327 15.8127 40.6605 17.3108C39.7884 18.8088 39.3114 20.6953 39.2297 22.9701C39.2297 24.5791 39.5431 25.9107 40.17 26.9649C40.8241 28.0191 41.8053 28.5462 43.1135 28.5462C44.4217 28.5462 45.5119 27.811 46.3841 26.3407C47.2835 24.8704 47.7332 23.192 47.7332 21.3056C47.7332 19.4192 47.4198 17.9211 46.7929 16.8114C46.1661 15.6463 45.1985 15.0637 43.8903 15.0637Z" fill="#696E73"/>
<path d="M70.8536 1.70611C71.0444 1.2345 71.4668 0.84612 72.1209 0.540963C72.8023 0.208062 73.6063 0.0416119 74.533 0.0416119C75.4869 0.0416119 76.1956 0.18032 76.6589 0.457736C76.3863 2.62159 75.9503 6.01994 75.3507 10.6528C74.0969 20.3346 73.4701 25.6749 73.4701 26.6736C73.4701 27.6446 73.8789 28.13 74.6965 28.13C75.4052 28.13 76.141 27.6862 76.9042 26.7984C77.6673 25.883 78.3623 24.3988 78.9892 22.3459C79.7523 23.0949 80.2838 23.9133 80.5836 24.801C79.6024 28.1023 78.0625 30.2384 75.9639 31.2094C75.01 31.681 74.1105 31.9168 73.2656 31.9168C70.8399 31.9168 69.2183 31.029 68.4006 29.2536C66.9834 31.0568 65.1709 31.9584 62.9632 31.9584C60.7556 31.9584 58.8886 31.1955 57.3623 29.6697C55.8633 28.1439 55.1138 26.1326 55.1138 23.6359C55.1138 20.0017 56.1631 17.1027 58.2618 14.9389C60.3604 12.775 63.0178 11.6931 66.2338 11.6931C66.3156 11.6931 66.3974 11.6931 66.4791 11.6931C67.5966 11.6931 68.6459 11.8596 69.6271 12.1925L70.8536 1.70611ZM66.8471 14.9389C65.1028 14.9389 63.7128 15.6186 62.6771 16.9779C61.6686 18.3095 61.069 20.3069 60.8782 22.9701C60.851 23.2198 60.8374 23.4556 60.8374 23.6775C60.8374 25.0368 61.1508 26.1188 61.7777 26.9233C62.4318 27.7278 63.2631 28.13 64.2715 28.13C65.9886 28.13 67.2832 26.8955 68.1553 24.4265L69.2183 15.4798C68.3189 15.1192 67.5285 14.9389 66.8471 14.9389Z" fill="#696E73"/>
<path d="M95.8267 31.9168C93.3193 31.9168 91.6567 31.029 90.8391 29.2536C89.4218 31.0568 87.5957 31.9584 85.3608 31.9584C83.1531 31.9584 81.2862 31.1955 79.7599 29.6697C78.2609 28.1439 77.5114 26.1326 77.5114 23.6359C77.5114 20.0017 78.5607 17.1027 80.6593 14.9389C82.7579 12.775 85.4153 11.6931 88.6314 11.6931C88.7132 11.6931 88.7949 11.6931 88.8767 11.6931C90.2395 11.6931 91.4932 11.9289 92.6379 12.4005C93.3738 11.9289 94.2596 11.6931 95.2953 11.6931C96.3582 11.6931 97.1213 11.8318 97.5847 12.1092C97.3394 14.1621 97.0805 16.1873 96.8079 18.1847C96.5354 20.1543 96.3446 21.5553 96.2356 22.3875C95.9903 24.2739 95.8676 25.6333 95.8676 26.4655C95.8676 27.5752 96.3037 28.13 97.1759 28.13C97.8572 28.13 98.5795 27.6723 99.3426 26.7568C100.106 25.8136 100.774 24.3433 101.346 22.3459C102.136 23.0672 102.681 23.8717 102.981 24.7594C102.191 27.3949 101.128 29.2536 99.7923 30.3355C98.4568 31.3897 97.135 31.9168 95.8267 31.9168ZM89.2446 14.9389C87.5003 14.9389 86.1103 15.6186 85.0746 16.9779C84.0662 18.3095 83.4666 20.3069 83.2758 22.9701C83.2485 23.2198 83.2349 23.4556 83.2349 23.6775C83.2349 25.0368 83.5483 26.1188 84.1752 26.9233C84.8293 27.7278 85.6606 28.13 86.669 28.13C88.3861 28.13 89.6807 26.8955 90.5529 24.4265L91.5341 15.4382C90.7437 15.1053 89.9805 14.9389 89.2446 14.9389Z" fill="#696E73"/>
<path d="M115.403 24.2601C114.558 26.5072 113.332 28.352 111.724 29.7945C110.143 31.2094 108.331 31.9168 106.287 31.9168C104.242 31.9168 102.703 31.2371 101.667 29.8778C100.658 28.4907 100.154 26.9094 100.154 25.1339C100.154 24.7733 100.168 24.4127 100.195 24.052L101.585 12.1925C102.457 11.8596 103.384 11.6931 104.365 11.6931C106.164 11.6931 107.063 12.3728 107.063 13.7321C107.063 13.7876 106.832 15.6463 106.368 19.3082C105.932 22.9423 105.714 25.0507 105.714 25.6333C105.714 27.2146 106.464 28.0052 107.963 28.0052C109.244 28.0052 110.32 27.27 111.192 25.7997C112.719 23.1365 113.523 20.1266 113.605 16.7698H113.237C112.092 16.7698 111.22 16.5063 110.62 15.9792C109.939 15.3689 109.598 14.6337 109.598 13.7737C109.598 12.9137 109.857 12.2202 110.375 11.6931C111.002 11.1383 111.751 10.8609 112.623 10.8609C114.695 10.8609 115.989 11.9567 116.507 14.1482C117.325 14.0373 117.911 13.9263 118.265 13.8153V16.1873L116.753 16.4369V17.1443C116.725 19.6411 116.276 22.013 115.403 24.2601ZM111.928 13.7737C111.928 14.2453 112.324 14.4811 113.114 14.4811C113.196 14.4811 113.278 14.4811 113.359 14.4811C113.168 13.7321 112.882 13.3576 112.501 13.3576C112.119 13.3576 111.928 13.4963 111.928 13.7737Z" fill="#696E73"/>
<path d="M126.201 22.3875C127.89 22.0269 129.144 21.3333 129.962 20.3069C130.807 19.2805 131.229 18.2956 131.229 17.3524C131.229 16.3814 130.97 15.7295 130.452 15.3966C129.962 15.036 129.417 14.8557 128.817 14.8557C127.536 14.8557 126.405 15.5908 125.424 17.0611C124.47 18.5037 123.993 20.2375 123.993 22.2627C123.993 24.2601 124.456 25.7581 125.383 26.7568C126.337 27.7278 127.509 28.2133 128.899 28.2133C130.943 28.2133 132.905 27.492 134.786 26.0494C136.666 24.6068 138.193 22.7204 139.365 20.3901C139.964 20.9727 140.509 21.694 141 22.554C140.101 24.6346 138.506 26.6736 136.217 28.671C135.072 29.642 133.709 30.4326 132.129 31.0429C130.575 31.6532 128.967 31.9584 127.304 31.9584C124.579 31.9584 122.426 31.1123 120.845 29.42C119.155 27.5891 118.31 25.2449 118.31 22.3875C118.31 19.5301 119.36 17.0334 121.458 14.8973C123.584 12.7612 126.119 11.6931 129.062 11.6931C131.161 11.6931 132.864 12.1647 134.173 13.1079C135.481 14.0234 136.149 15.2718 136.176 16.8531C136.176 18.9892 135.331 20.723 133.641 22.0546C131.979 23.3862 129.689 24.3156 126.773 24.8427L126.201 22.3875Z" fill="#696E73"/>
</svg>
