<svg width="156" height="33" viewBox="0 0 156 33" fill="none" xmlns="http://www.w3.org/2000/svg">
<path d="M0 29.7C5.56398 29.7 10.0744 25.2676 10.0744 19.8C10.0744 14.3323 5.56398 9.8999 0 9.8999V16.8299C1.66918 16.8299 3.02231 18.1596 3.02231 19.8C3.02231 21.4402 1.66918 22.77 0 22.77V29.7Z" fill="#696E73"/>
<path d="M33.5812 13.2001C31.8596 12.6642 30.0263 12.375 28.1242 12.375C18.1554 12.375 10.0742 20.3165 10.0742 30.1126C10.0742 31.0958 10.1556 32.0604 10.3122 33.0001H21.5272C21.1269 32.1181 20.9043 31.1409 20.9043 30.1126C20.9043 26.1941 24.1367 23.0175 28.1242 23.0175C30.3036 23.0175 32.2574 23.9664 33.5812 25.4667V13.2001Z" fill="#696E73"/>
<path d="M1.77148 0C2.60672 7.42494 9.01254 13.2001 16.7909 13.2001C24.5692 13.2001 30.9751 7.42494 31.8103 0H21.0032C20.3361 1.64359 18.7014 2.805 16.7909 2.805C14.8803 2.805 13.2458 1.64359 12.5785 0H1.77148Z" fill="#696E73"/>
<path d="M45.2695 6.70598H50.8949C52.4163 6.70598 53.5838 6.82332 54.3976 7.058C55.2202 7.29268 55.8349 7.63167 56.2418 8.07495C56.6575 8.51824 56.9361 9.05714 57.0776 9.69164C57.228 10.3175 57.3032 11.2909 57.3032 12.6121V14.4504C57.3032 15.7977 57.1616 16.7799 56.8786 17.397C56.5956 18.0141 56.0737 18.4878 55.313 18.8181C54.5612 19.1484 53.575 19.3136 52.3544 19.3136H50.8551V27.8142H45.2695V6.70598ZM50.8551 10.3175V15.689C51.0144 15.6977 51.1515 15.7021 51.2664 15.7021C51.7794 15.7021 52.1332 15.5804 52.3278 15.337C52.5313 15.085 52.633 14.5678 52.633 13.7855V12.0515C52.633 11.3301 52.518 10.8607 52.288 10.6434C52.0581 10.4261 51.5804 10.3175 50.8551 10.3175Z" fill="#696E73"/>
<path d="M67.8641 6.70598L71.0615 27.8142H65.3433L65.0646 24.0202H63.0612L62.7296 27.8142H56.9449L59.7842 6.70598H67.8641ZM64.9054 20.2784C64.6224 17.8881 64.3393 14.9372 64.0563 11.4257C63.4902 15.4587 63.1364 18.4096 62.9949 20.2784H64.9054Z" fill="#696E73"/>
<path d="M84.4883 6.70598V27.8142H79.5925L76.687 18.2184V27.8142H72.0168V6.70598H76.687L79.8181 16.2106V6.70598H84.4883Z" fill="#696E73"/>
<path d="M96.3892 6.70598L99.5867 27.8142H93.8684L93.5898 24.0202H91.5864L91.2547 27.8142H85.47L88.3093 6.70598H96.3892ZM93.4305 20.2784C93.1475 17.8881 92.8645 14.9372 92.5814 11.4257C92.0153 15.4587 91.6615 18.4096 91.52 20.2784H93.4305Z" fill="#696E73"/>
<path d="M100.542 6.70598H104.721C107.419 6.70598 109.241 6.82767 110.187 7.07104C111.143 7.31441 111.868 7.71424 112.363 8.27052C112.859 8.8268 113.168 9.44827 113.292 10.1349C113.416 10.8129 113.478 12.1514 113.478 14.1506V21.543C113.478 23.4379 113.385 24.7069 113.199 25.3501C113.022 25.9846 112.708 26.4844 112.257 26.8494C111.806 27.2058 111.249 27.4578 110.585 27.6056C109.922 27.7447 108.923 27.8142 107.587 27.8142H100.542V6.70598ZM106.128 10.3175V24.2027C106.932 24.2027 107.428 24.0463 107.613 23.7334C107.799 23.4118 107.892 22.5469 107.892 21.1389V12.9381C107.892 11.982 107.861 11.3692 107.799 11.0997C107.737 10.8303 107.596 10.6347 107.375 10.513C107.154 10.3826 106.738 10.3175 106.128 10.3175Z" fill="#696E73"/>
<path d="M128.324 19.0658C128.324 21.1867 128.271 22.6904 128.165 23.5769C128.068 24.4548 127.749 25.2588 127.21 25.9889C126.679 26.719 125.958 27.2797 125.047 27.6708C124.136 28.0619 123.075 28.2575 121.863 28.2575C120.713 28.2575 119.678 28.075 118.758 27.7099C117.847 27.3362 117.113 26.7799 116.556 26.0411C115.999 25.3023 115.667 24.4983 115.561 23.6291C115.455 22.7599 115.402 21.2388 115.402 19.0658V15.4544C115.402 13.3335 115.45 11.8342 115.547 10.9563C115.654 10.0697 115.972 9.26139 116.503 8.53128C117.042 7.80116 117.768 7.24053 118.679 6.8494C119.59 6.45826 120.651 6.2627 121.863 6.2627C123.013 6.2627 124.043 6.44957 124.954 6.82332C125.874 7.18838 126.613 7.74032 127.17 8.47913C127.727 9.21794 128.059 10.0219 128.165 10.8911C128.271 11.7603 128.324 13.2814 128.324 15.4544V19.0658ZM122.738 12.1297C122.738 11.1475 122.681 10.5217 122.566 10.2523C122.46 9.97413 122.234 9.83506 121.889 9.83506C121.597 9.83506 121.372 9.94805 121.213 10.174C121.062 10.3913 120.987 11.0432 120.987 12.1297V21.9863C120.987 23.2119 121.036 23.9681 121.133 24.2549C121.239 24.5417 121.478 24.6851 121.85 24.6851C122.23 24.6851 122.473 24.52 122.579 24.1897C122.685 23.8594 122.738 23.0728 122.738 21.8299V12.1297Z" fill="#696E73"/>
<path d="M141.737 6.70598L139.787 16.0411L142.733 27.8142H137.558C136.939 25.7108 136.373 23.151 135.86 20.1349C135.718 21.4648 135.524 22.8772 135.276 24.3722L134.746 27.8142H129.306L131.323 16.0411L129.306 6.70598H134.706C134.803 7.28834 134.998 8.25748 135.289 9.61342C135.519 10.6477 135.71 11.5952 135.86 12.4557L137.054 6.70598H141.737Z" fill="#696E73"/>
<path d="M156 6.70598V27.8142H151.104L148.199 18.2184V27.8142H143.529V6.70598H148.199L151.33 16.2106V6.70598H156Z" fill="#696E73"/>
</svg>
