<svg width="159" height="44" viewBox="0 0 159 44" fill="none" xmlns="http://www.w3.org/2000/svg">
<path fill-rule="evenodd" clip-rule="evenodd" d="M9.41366 3.95765C7.83899 5.05805 6.41506 6.35908 5.17897 7.82364C10.2302 7.35496 16.6477 8.12025 24.0983 11.8434C32.0545 15.819 38.4613 15.9534 42.92 15.0939C42.5154 13.8697 42.0061 12.6931 41.4028 11.5746C36.2987 12.1126 29.7552 11.4005 22.1294 7.58998C17.2869 5.1702 13.0184 4.17341 9.41366 3.95765ZM38.4212 7.33331C34.3905 2.8325 28.5329 0 22.0132 0C20.0986 0 18.2409 0.244318 16.4699 0.703428C18.8685 1.35749 21.4165 2.31439 24.0983 3.65449C29.6815 6.44438 34.5017 7.34268 38.4212 7.33331ZM43.8733 19.3909C38.4867 20.4539 31.0483 20.2356 22.1294 15.7788C13.7912 11.6122 7.15478 11.6647 2.6789 12.6588C2.44787 12.71 2.22228 12.7639 2.00214 12.82C1.41613 14.0937 0.948368 15.4331 0.612741 16.8239C0.971209 16.7282 1.34163 16.6373 1.72381 16.5523C7.15383 15.3464 14.826 15.3988 24.0983 20.0322C32.4366 24.1988 39.073 24.1463 43.549 23.1522C43.7023 23.1182 43.8534 23.083 44.002 23.0467C44.0183 22.6999 44.0264 22.3509 44.0264 22C44.0264 21.1172 43.9745 20.2466 43.8733 19.3909ZM43.2833 27.6895C37.9489 28.6216 30.7271 28.2638 22.1294 23.9677C13.7912 19.8011 7.15478 19.8536 2.6789 20.8476C1.68539 21.0682 0.791639 21.3369 0.00322494 21.6206C0.00107535 21.7468 0 21.8733 0 22C0 34.1503 9.85565 44 22.0132 44C32.2021 44 40.7743 37.082 43.2833 27.6895Z" fill="#696E73"/>
<path d="M67.1503 32.9935C65.9 32.9935 64.7377 32.7647 63.6634 32.3071C62.6068 31.8495 61.691 31.2159 60.9162 30.4063C60.1589 29.5791 59.6042 28.6199 59.252 27.5287L62.2369 26.2351C62.7124 27.3615 63.3992 28.2503 64.2974 28.9015C65.1955 29.5351 66.2081 29.8519 67.3352 29.8519C67.9692 29.8519 68.5151 29.7551 68.973 29.5615C69.4485 29.3503 69.8095 29.0687 70.0561 28.7167C70.3202 28.3647 70.4523 27.9423 70.4523 27.4495C70.4523 26.8687 70.2762 26.3935 69.924 26.0239C69.5894 25.6367 69.0787 25.3375 68.3918 25.1263L64.6144 23.9119C63.0823 23.4367 61.9288 22.7239 61.1539 21.7735C60.379 20.8231 59.9916 19.7055 59.9916 18.4207C59.9916 17.2943 60.2646 16.2999 60.8105 15.4375C61.374 14.5751 62.1489 13.9063 63.1351 13.4311C64.1389 12.9383 65.2836 12.6919 66.5692 12.6919C67.7491 12.6919 68.8321 12.9031 69.8183 13.3255C70.8045 13.7303 71.6498 14.3023 72.3542 15.0415C73.0763 15.7631 73.6134 16.6167 73.9656 17.6023L71.007 18.9223C70.6196 17.9367 70.0384 17.1799 69.2636 16.6519C68.4887 16.1063 67.5906 15.8335 66.5692 15.8335C65.9704 15.8335 65.4421 15.9391 64.9842 16.1503C64.5263 16.3439 64.1653 16.6255 63.9011 16.9951C63.6546 17.3471 63.5313 17.7695 63.5313 18.2623C63.5313 18.8079 63.7074 19.2919 64.0596 19.7143C64.4119 20.1191 64.949 20.4359 65.671 20.6647L69.29 21.7999C70.8573 22.3103 72.0284 23.0143 72.8033 23.9119C73.5958 24.8095 73.992 25.9183 73.992 27.2383C73.992 28.3647 73.7014 29.3591 73.1203 30.2215C72.5391 31.0839 71.7379 31.7615 70.7164 32.2543C69.695 32.7471 68.5063 32.9935 67.1503 32.9935Z" fill="#696E73"/>
<path d="M76.9364 32.6767V12.6919H80.3968V21.1399L79.9213 20.6383C80.256 19.7759 80.8019 19.1247 81.5591 18.6847C82.334 18.2271 83.2321 17.9983 84.2536 17.9983C85.3102 17.9983 86.2436 18.2271 87.0536 18.6847C87.8813 19.1423 88.5241 19.7847 88.982 20.6119C89.4399 21.4215 89.6688 22.3631 89.6688 23.4367V32.6767H86.2083V24.2551C86.2083 23.6215 86.0851 23.0759 85.8385 22.6183C85.592 22.1607 85.2486 21.8087 84.8083 21.5623C84.3856 21.2983 83.8837 21.1663 83.3026 21.1663C82.739 21.1663 82.2371 21.2983 81.7969 21.5623C81.3566 21.8087 81.0132 22.1607 80.7667 22.6183C80.5201 23.0759 80.3968 23.6215 80.3968 24.2551V32.6767H76.9364Z" fill="#696E73"/>
<path d="M96.9536 32.9935C95.9498 32.9935 95.0781 32.8263 94.3384 32.4919C93.5988 32.1575 93.0264 31.6823 92.6214 31.0663C92.2164 30.4327 92.0138 29.7023 92.0138 28.8751C92.0138 28.0831 92.1899 27.3791 92.5422 26.7631C92.8944 26.1295 93.4403 25.6015 94.1799 25.1791C94.9196 24.7567 95.8529 24.4575 96.98 24.2815L101.682 23.5159V26.1559L97.6404 26.8423C96.9536 26.9655 96.4429 27.1855 96.1083 27.5023C95.7737 27.8191 95.6064 28.2327 95.6064 28.7431C95.6064 29.2359 95.7913 29.6319 96.1611 29.9311C96.5486 30.2127 97.024 30.3535 97.5876 30.3535C98.3096 30.3535 98.9436 30.2039 99.4895 29.9047C100.053 29.5879 100.485 29.1567 100.784 28.6111C101.101 28.0655 101.259 27.4671 101.259 26.8159V23.1199C101.259 22.5039 101.013 21.9935 100.52 21.5887C100.044 21.1663 99.4103 20.9551 98.6178 20.9551C97.8782 20.9551 97.2178 21.1575 96.6366 21.5623C96.0731 21.9495 95.6592 22.4687 95.3951 23.1199L92.5686 21.7471C92.8503 20.9903 93.2906 20.3391 93.8894 19.7935C94.5057 19.2303 95.2278 18.7903 96.0555 18.4735C96.8832 18.1567 97.7813 17.9983 98.7499 17.9983C99.9298 17.9983 100.969 18.2183 101.867 18.6583C102.765 19.0807 103.461 19.6791 103.954 20.4535C104.465 21.2103 104.72 22.0991 104.72 23.1199V32.6767H101.444V30.2215L102.184 30.1687C101.814 30.7847 101.374 31.3039 100.863 31.7263C100.352 32.1311 99.7713 32.4479 99.1197 32.6767C98.4681 32.8879 97.7461 32.9935 96.9536 32.9935Z" fill="#696E73"/>
<path d="M107.918 32.6767V18.3151H111.167V21.1399L110.903 20.6383C111.238 19.7759 111.784 19.1247 112.541 18.6847C113.316 18.2271 114.214 17.9983 115.235 17.9983C116.292 17.9983 117.225 18.2271 118.036 18.6847C118.863 19.1423 119.506 19.7847 119.964 20.6119C120.422 21.4215 120.651 22.3631 120.651 23.4367V32.6767H117.19V24.2551C117.19 23.6215 117.067 23.0759 116.82 22.6183C116.574 22.1607 116.23 21.8087 115.79 21.5623C115.368 21.2983 114.866 21.1663 114.284 21.1663C113.721 21.1663 113.219 21.2983 112.779 21.5623C112.339 21.8087 111.995 22.1607 111.749 22.6183C111.502 23.0759 111.379 23.6215 111.379 24.2551V32.6767H107.918Z" fill="#696E73"/>
<path d="M130.551 38.4847C129.476 38.4847 128.481 38.3087 127.566 37.9567C126.65 37.6047 125.857 37.1119 125.188 36.4783C124.537 35.8623 124.061 35.1319 123.762 34.2871L126.985 33.0727C127.196 33.7415 127.61 34.2783 128.226 34.6831C128.86 35.1055 129.635 35.3167 130.551 35.3167C131.255 35.3167 131.871 35.1847 132.4 34.9207C132.946 34.6567 133.368 34.2695 133.668 33.7591C133.967 33.2663 134.117 32.6679 134.117 31.9639V28.6903L134.777 29.4823C134.284 30.3447 133.624 30.9959 132.796 31.4359C131.968 31.8759 131.026 32.0959 129.97 32.0959C128.631 32.0959 127.434 31.7879 126.377 31.1719C125.32 30.5559 124.493 29.7111 123.894 28.6375C123.295 27.5639 122.996 26.3583 122.996 25.0207C122.996 23.6655 123.295 22.4599 123.894 21.4039C124.493 20.3479 125.312 19.5207 126.351 18.9223C127.39 18.3063 128.569 17.9983 129.89 17.9983C130.965 17.9983 131.907 18.2271 132.717 18.6847C133.544 19.1247 134.231 19.7671 134.777 20.6119L134.302 21.4831V18.3151H137.577V31.9639C137.577 33.2135 137.269 34.3311 136.653 35.3167C136.054 36.3023 135.226 37.0767 134.17 37.6399C133.131 38.2031 131.924 38.4847 130.551 38.4847ZM130.392 28.9015C131.132 28.9015 131.775 28.7431 132.321 28.4263C132.884 28.0919 133.324 27.6343 133.641 27.0535C133.958 26.4727 134.117 25.8039 134.117 25.0471C134.117 24.3079 133.95 23.6479 133.615 23.0671C133.298 22.4687 132.858 22.0023 132.294 21.6679C131.748 21.3335 131.114 21.1663 130.392 21.1663C129.67 21.1663 129.019 21.3335 128.437 21.6679C127.856 22.0023 127.398 22.4687 127.064 23.0671C126.747 23.6479 126.588 24.3079 126.588 25.0471C126.588 25.7863 126.747 26.4463 127.064 27.0271C127.398 27.6079 127.847 28.0655 128.411 28.3999C128.992 28.7343 129.653 28.9015 130.392 28.9015Z" fill="#696E73"/>
<path d="M139.515 32.6767L144.534 25.4695L139.488 18.3151H143.556L147.492 24.1231H145.67L149.606 18.3151H153.647L148.628 25.4695L153.621 32.6767H149.579L145.696 26.8951H147.466L143.583 32.6767H139.515Z" fill="#696E73"/>
<path d="M155.539 32.6767V18.3151H159V32.6767H155.539ZM155.539 16.7047V13.0087H159V16.7047H155.539Z" fill="#696E73"/>
</svg>
