<svg width="81" height="32" viewBox="0 0 81 32" fill="none" xmlns="http://www.w3.org/2000/svg">
<path d="M11.37 7.76757C11.9716 6.86785 12.2724 6.02812 12.2724 5.24836C12.2724 4.4686 12.0518 3.8488 11.6106 3.38894C11.1695 2.92908 10.5879 2.69916 9.86604 2.69916C9.14413 2.69916 8.5626 2.8791 8.12143 3.23899C7.68027 3.57888 7.45969 4.12871 7.45969 4.88847C7.45969 5.62824 7.98106 6.96782 9.02381 8.90722C10.0666 10.8466 10.7283 12.0962 11.0091 12.656C11.7711 14.1756 12.1521 15.6451 12.1521 17.0647C12.1521 18.8441 11.5003 20.2937 10.1969 21.4133C8.91352 22.513 7.3895 23.0628 5.62484 23.0628C3.88024 23.0628 2.50661 22.523 1.50397 21.4433C0.501323 20.3436 0 19.064 0 17.6045C0 14.9053 1.67442 12.676 5.02326 10.9166C3.65966 8.23742 2.97786 6.36801 2.97786 5.30834C2.97786 3.8288 3.56942 2.57919 4.75254 1.55951C5.95572 0.519837 7.41958 0 9.14413 0C10.8887 0 12.2223 0.439862 13.1447 1.31959C14.0671 2.19931 14.5283 3.31896 14.5283 4.67854C14.5283 5.57826 14.2275 6.60793 13.626 7.76757H11.37ZM3.48921 19.4639C4.03064 20.0437 4.68236 20.3336 5.44437 20.3336C6.22643 20.3336 6.82802 20.1137 7.24913 19.6739C7.69029 19.214 7.91088 18.5442 7.91088 17.6645C7.91088 16.8647 7.60006 15.885 6.97842 14.7254C6.8982 14.5654 6.74781 14.2755 6.52722 13.8557C6.30664 13.4158 6.14622 13.1059 6.04595 12.926C3.80003 14.0856 2.67706 15.5451 2.67706 17.3046C2.67706 18.2043 2.94778 18.9241 3.48921 19.4639Z" fill="#696E73"/>
<path d="M22.3574 8.45736C24.2023 8.45736 25.7364 9.04717 26.9596 10.2268C28.2029 11.4064 28.8245 12.846 28.8245 14.5455C28.8245 17.1246 28.0625 19.194 26.5385 20.7535C25.0345 22.293 23.2097 23.0628 21.064 23.0628C18.9184 23.0628 17.2139 22.453 15.9505 21.2334C14.7072 20.0137 14.0856 18.5042 14.0856 16.7048C14.0856 14.1856 14.8576 12.1862 16.4017 10.7067C17.9658 9.20712 19.9511 8.45736 22.3574 8.45736ZM21.7558 10.8866C20.8134 10.8866 20.0213 11.4264 19.3796 12.5061C18.7379 13.5858 18.387 14.9453 18.3268 16.5848C18.3268 17.7445 18.5574 18.7042 19.0186 19.4639C19.4999 20.2237 20.2218 20.6036 21.1843 20.6036C22.1469 20.6036 22.949 20.0737 23.5907 19.0141C24.2524 17.9544 24.5833 16.7448 24.5833 15.3852C24.5833 14.0256 24.3527 12.946 23.8915 12.1462C23.4303 11.3065 22.7184 10.8866 21.7558 10.8866Z" fill="#696E73"/>
<path d="M33.4125 8.42737C34.716 8.42737 35.478 8.75726 35.6986 9.41706C36.6411 8.75726 37.8342 8.42737 39.278 8.42737C40.7218 8.42737 41.9651 9.01718 43.0079 10.1968C44.0506 11.3764 44.572 12.756 44.572 14.3355C44.572 14.5555 44.562 14.7854 44.5419 15.0253C44.3213 17.6445 43.439 19.6439 41.8949 21.0234C40.3509 22.383 38.3355 23.0628 35.849 23.0628C35.2875 23.0628 34.6759 22.9928 34.0141 22.8529L33.0516 31.1003H29.1112C30.3946 20.0837 31.2569 12.6061 31.698 8.66729C32.1191 8.50734 32.6906 8.42737 33.4125 8.42737ZM40.3308 14.5455C40.3308 13.6657 40.1303 12.886 39.7292 12.2062C39.3282 11.5264 38.7065 11.1865 37.8643 11.1865C36.7213 11.1865 35.849 11.9263 35.2474 13.4058C34.8463 16.3649 34.6157 18.0843 34.5556 18.5642C34.5355 19.164 34.726 19.6139 35.1271 19.9138C35.5281 20.2137 36.0194 20.3636 36.601 20.3636C37.6237 20.3636 38.4659 19.9038 39.1276 18.9841C39.9297 17.8444 40.3308 16.3649 40.3308 14.5455Z" fill="#696E73"/>
<path d="M48.3108 0.809745C48.772 0.329896 49.3335 0.0899707 49.9952 0.0899707C50.657 0.0899707 51.2184 0.329896 51.6797 0.809745C52.1609 1.2696 52.4016 1.82943 52.4016 2.48922C52.4016 3.14902 52.1609 3.70884 51.6797 4.1687C51.2184 4.62855 50.657 4.85848 49.9952 4.85848C49.3335 4.85848 48.772 4.62855 48.3108 4.1687C47.8495 3.70884 47.6189 3.14902 47.6189 2.48922C47.6189 1.82943 47.8495 1.2696 48.3108 0.809745ZM47.0775 9.597C47.278 9.23711 47.659 8.9672 48.2205 8.78725C48.782 8.58732 49.3335 8.48735 49.8749 8.48735C50.4364 8.48735 50.9277 8.55733 51.3488 8.69728C50.5667 14.7154 50.1757 17.7545 50.1757 17.8144C50.0754 18.2143 50.0253 18.5542 50.0253 18.8341C50.0253 19.094 50.0453 19.324 50.0854 19.5239C50.1657 20.0437 50.5266 20.3037 51.1683 20.3037C51.8301 20.3037 52.4316 19.8838 52.9731 19.044C53.5345 18.1843 53.9557 17.2146 54.2364 16.135C54.3768 16.2149 54.5974 16.4549 54.8981 16.8547C55.1989 17.2546 55.3794 17.5545 55.4396 17.7545C55.0385 19.354 54.3567 20.6435 53.3942 21.6232C52.4316 22.6029 51.2786 23.0928 49.9351 23.0928C48.5915 23.0928 47.5889 22.7629 46.9271 22.1031C46.2854 21.4433 45.9646 20.5936 45.9646 19.5539C45.9646 19.334 45.9746 19.104 45.9947 18.8641L47.0775 9.597Z" fill="#696E73"/>
<path d="M61.1079 22.9128C62.2108 24.8522 62.7623 26.4517 62.7623 27.7113C62.7623 28.9909 62.3712 30.0206 61.5892 30.8004C60.8272 31.6001 59.8245 32 58.5812 32C57.3379 32 56.3152 31.6501 55.5131 30.9503C54.7311 30.2705 54.34 29.3208 54.34 28.1012C54.34 27.8613 54.3801 27.3814 54.4604 26.6617L55.3928 18.5642C54.2097 16.9847 53.2371 15.7251 52.4751 14.7854C53.1569 13.8457 53.7284 13.3758 54.1896 13.3758C54.4102 13.3758 54.6107 13.4858 54.7912 13.7057C54.9918 13.9256 55.3226 14.3355 55.7838 14.9353L56.9269 4.85848C57.0873 3.53889 57.4081 2.46923 57.8894 1.64948C58.5311 0.589815 59.7142 0.0599805 61.4388 0.0599805C62.662 0.0599805 63.5945 0.399874 64.2362 1.07966C64.8778 1.73946 65.1987 2.65917 65.1987 3.8388C65.1987 5.41831 64.6773 6.97782 63.6346 8.51734C62.6119 10.0569 61.4187 11.4064 60.0551 12.5661L59.3031 19.7938C59.644 20.1737 60.1253 20.3636 60.7469 20.3636C61.9902 20.3636 63.0229 19.8438 63.8451 18.8041C64.6873 17.7445 65.4193 16.2549 66.0409 14.3355C66.3217 14.4955 66.6124 14.7054 66.9132 14.9653C67.2341 15.2052 67.4145 15.3752 67.4546 15.4752C66.9934 17.6945 66.1913 19.4139 65.0483 20.6336C63.9053 21.8532 62.5918 22.6129 61.1079 22.9128ZM62.5216 2.66917C62.4214 2.64917 62.3211 2.63918 62.2208 2.63918C61.6794 2.63918 61.3184 2.98907 61.138 3.68885C60.9575 4.38863 60.7369 5.99813 60.4762 8.51734L60.3559 9.65698C61.2182 8.77726 61.91 7.84755 62.4314 6.86785C62.9728 5.86816 63.2435 4.96845 63.2435 4.1687C63.2435 3.34895 63.0029 2.84911 62.5216 2.66917ZM58.491 27.4414C58.4709 27.5414 58.4609 27.7513 58.4609 28.0712C58.4609 28.4111 58.5612 28.691 58.7617 28.911C58.9622 29.1309 59.2229 29.2409 59.5438 29.2409C59.8847 29.2409 60.1855 29.1009 60.4461 28.821C60.7068 28.5611 60.8372 28.1512 60.8372 27.5914C60.8372 26.5317 60.2055 25.0822 58.9422 23.2427L58.491 27.4414Z" fill="#696E73"/>
<path d="M70.2917 31.7901C69.1487 31.7901 68.1661 31.4402 67.344 30.7404C66.5218 30.0606 66.1107 29.0609 66.1107 27.7413C66.1107 26.1218 66.9329 24.5423 68.5772 23.0028C67.4141 22.9028 66.4817 22.523 65.7798 21.8632C65.078 21.2034 64.7271 20.2737 64.7271 19.074C64.7271 18.5142 64.7972 17.6745 64.9376 16.5548C65.078 15.4352 65.2284 14.2256 65.3888 12.926C65.5492 11.6264 65.7197 10.2468 65.9002 8.78725C66.5218 8.56732 67.0933 8.45736 67.6147 8.45736C68.136 8.45736 68.5271 8.47735 68.7878 8.51734C69.0485 8.55733 69.2991 8.70728 69.5398 8.9672C69.7804 9.22712 69.9007 9.597 69.9007 10.0769L68.9081 17.7245C68.868 18.0444 68.8479 18.2643 68.8479 18.3843C68.8479 19.5639 69.3894 20.1537 70.4722 20.1537C71.4548 20.1537 72.2569 19.6938 72.8786 18.7741C72.9387 18.3143 73.0891 16.9947 73.3298 14.8154C73.5704 12.6161 73.7709 10.9066 73.9313 9.68697C74.1118 9.30709 74.4828 9.00718 75.0443 8.78725C75.6258 8.56732 76.0971 8.45736 76.458 8.45736C77.0997 8.45736 77.6812 8.53733 78.2026 8.69728L76.7889 19.7638C79.1351 20.1837 80.5388 21.7932 81 24.5923C80.9198 24.9722 80.5388 25.572 79.857 26.3918C79.4559 23.8925 78.353 22.373 76.5482 21.8332L76.067 25.582C75.8464 27.3814 75.2749 28.861 74.3525 30.0206C73.43 31.2003 72.0764 31.7901 70.2917 31.7901ZM68.4569 27.1715C68.4569 27.8313 68.6173 28.3212 68.9382 28.6411C69.259 28.961 69.6801 29.1209 70.2015 29.1209C70.7429 29.1209 71.154 28.901 71.4348 28.4611C71.7155 28.0212 71.9361 27.1415 72.0965 25.8219L72.4875 22.523C69.8606 23.8825 68.5171 25.4321 68.4569 27.1715Z" fill="#696E73"/>
</svg>
