<svg width="126" height="40" viewBox="0 0 126 40" fill="none" xmlns="http://www.w3.org/2000/svg">
<path d="M0.11169 31.5964C0.11169 30.9049 0.0722698 30.0422 0 29.0083C0.926368 29.0412 2.49002 29.0544 4.69097 29.0544C6.89191 29.0544 8.45557 29.0412 9.3688 29.0083C9.29653 30.0356 9.25711 30.8983 9.25711 31.5964C9.25711 32.031 9.27682 32.4196 9.30967 32.7554H8.96146C8.79064 31.9059 8.58697 31.2408 8.34388 30.7469C8.10079 30.253 7.81171 29.8973 7.47664 29.6866C7.135 29.4693 6.72766 29.3639 6.24148 29.3639H5.89328V38.0567C5.89328 38.4782 5.93927 38.7877 6.02468 38.9787C6.11009 39.1696 6.26119 39.3014 6.48457 39.3738C6.70138 39.4462 7.04959 39.4792 7.51606 39.4857V39.7887C6.24148 39.7558 5.28227 39.7426 4.63184 39.7426C3.99455 39.7426 3.06818 39.7558 1.85274 39.7887V39.4857C2.32577 39.4792 2.67398 39.4462 2.89736 39.3738C3.11417 39.3014 3.27185 39.1762 3.35069 38.9787C3.4361 38.7877 3.47552 38.4782 3.47552 38.0567V29.3639H3.14045C2.65427 29.3639 2.24036 29.4693 1.89873 29.6866C1.55709 29.8973 1.26801 30.253 1.02492 30.7469C0.781828 31.2408 0.578159 31.9125 0.400769 32.762H0.0591299C0.0919798 32.413 0.11169 32.031 0.11169 31.5964Z" fill="#696E73"/>
<path d="M26.188 37.4718C26.188 38.4004 26.2208 39.1709 26.2931 39.7833C25.6033 39.7504 24.4469 39.7372 22.8176 39.7372C20.6166 39.7372 18.9676 39.7504 17.877 39.7833V39.4804C18.212 39.4672 18.4551 39.4277 18.6128 39.3619C18.7705 39.296 18.869 39.1775 18.9282 39.0062C18.9873 38.835 19.0136 38.5584 19.0136 38.1765V30.623C19.0136 30.241 18.9873 29.9644 18.9282 29.7932C18.869 29.622 18.7639 29.5034 18.6128 29.4376C18.4617 29.3717 18.212 29.3322 17.877 29.319V29.0161C18.9676 29.049 20.6166 29.0622 22.8176 29.0622C24.3024 29.0622 25.3602 29.049 25.9909 29.0161C25.9252 29.8525 25.8858 30.6032 25.8858 31.2683C25.8858 31.7161 25.8989 32.0652 25.9318 32.3023H25.5835C25.4784 31.5647 25.3207 30.9852 25.1105 30.5571C24.9003 30.1291 24.6309 29.8261 24.3024 29.6417C23.9739 29.4573 23.5731 29.3651 23.0935 29.3651H22.4694C22.154 29.3651 21.9241 29.3915 21.7861 29.4442C21.6416 29.4968 21.5496 29.5956 21.497 29.7405C21.4445 29.8854 21.4247 30.1225 21.4247 30.4517V34.2186H21.9044C22.4497 34.2186 22.857 34.0211 23.1329 33.6259C23.4089 33.2308 23.5994 32.7566 23.7111 32.2166H24.0593C24.0265 32.7171 24.0068 33.1979 24.0068 33.6523L24.0133 34.3833C24.0133 34.8969 24.0462 35.6213 24.1053 36.5433H23.7571C23.5534 35.1998 22.9358 34.5281 21.9044 34.5281H21.4182V38.3609C21.4182 38.6901 21.4445 38.9272 21.4904 39.0721C21.543 39.217 21.635 39.3158 21.7795 39.3684C21.9175 39.4211 22.1474 39.4475 22.4628 39.4475H23.2118C23.9213 39.4475 24.4995 39.1972 24.9397 38.7033C25.3799 38.2094 25.6952 37.373 25.8792 36.2074H26.2274C26.2011 36.5235 26.188 36.9516 26.188 37.4718Z" fill="#696E73"/>
<path d="M44.6167 39.1631C44.7087 39.2618 44.8007 39.3409 44.8926 39.3804C44.9846 39.4265 45.1029 39.4528 45.2408 39.4594V39.7821C44.1765 39.7426 43.4801 39.7228 43.1582 39.7228C42.7902 39.7228 41.9756 39.7426 40.7141 39.7821V39.4594C41.0689 39.4594 41.3251 39.4396 41.4828 39.4067C41.6405 39.3672 41.7193 39.3013 41.7193 39.2092C41.7193 39.1367 41.6799 39.0511 41.6076 38.9391L39.0519 35.1789L37.843 36.845C37.3766 37.4706 37.1466 38.004 37.1466 38.4452C37.1466 38.7548 37.2583 38.9984 37.4883 39.1762C37.7182 39.354 38.0336 39.4528 38.4343 39.4792V39.7821C37.8562 39.7492 37.0547 39.736 36.0429 39.736C35.4319 39.736 34.9654 39.7492 34.6435 39.7821V39.4792C35.353 39.2487 36.0823 38.6296 36.8444 37.6221L38.8614 34.8957L35.583 30.0751C35.4384 29.8644 35.3267 29.7129 35.2413 29.6142C35.1559 29.5154 35.0639 29.4429 34.972 29.3968C34.88 29.3507 34.7617 29.3244 34.6172 29.3178V28.9951C35.7407 29.0346 36.4699 29.0544 36.7919 29.0544C37.6788 29.0544 38.4475 29.0346 39.1111 28.9951V29.3178C38.776 29.3178 38.5329 29.3376 38.3752 29.3837C38.2175 29.4298 38.1453 29.5022 38.1453 29.6076C38.1453 29.6866 38.1847 29.7854 38.2635 29.8973L40.5236 33.2032L41.6405 31.6886C42.1201 31.0695 42.3566 30.5625 42.3566 30.1607C42.3566 29.9105 42.2581 29.7129 42.0741 29.5681C41.8836 29.4298 41.6076 29.3441 41.2463 29.3178V29.0149C41.8245 29.0478 42.4617 29.061 43.1582 29.061C43.7692 29.061 44.2356 29.0478 44.5576 29.0149V29.3178C44.2356 29.41 43.9137 29.601 43.5852 29.8842C43.2567 30.1673 42.9414 30.5098 42.6457 30.9115L40.7141 33.4864L44.2751 38.7021C44.4065 38.9062 44.5247 39.0577 44.6167 39.1631Z" fill="#696E73"/>
<path d="M53.1254 31.5964C53.1254 30.9049 53.0859 30.0422 53.0137 29.0083C53.94 29.0412 55.5037 29.0544 57.7046 29.0544C59.9056 29.0544 61.4692 29.0412 62.3825 29.0083C62.3102 30.0356 62.2708 30.8983 62.2708 31.5964C62.2708 32.031 62.2905 32.4196 62.3233 32.7554H61.9751C61.8043 31.9059 61.6006 31.2408 61.3576 30.7469C61.1145 30.253 60.8254 29.8973 60.4903 29.6866C60.1487 29.4693 59.7413 29.3639 59.2552 29.3639H58.9069V38.0567C58.9069 38.4782 58.9529 38.7877 59.0383 38.9787C59.1238 39.1696 59.2749 39.3014 59.4982 39.3738C59.7151 39.4462 60.0633 39.4792 60.5297 39.4857V39.7887C59.2552 39.7558 58.2959 39.7426 57.6455 39.7426C57.0082 39.7426 56.0819 39.7558 54.8664 39.7887V39.4857C55.3394 39.4792 55.6877 39.4462 55.911 39.3738C56.1278 39.3014 56.2855 39.1762 56.3644 38.9787C56.4498 38.7877 56.4892 38.4782 56.4892 38.0567V29.3639H56.1541C55.6679 29.3639 55.254 29.4693 54.9124 29.6866C54.5708 29.8973 54.2817 30.253 54.0386 30.7469C53.7955 31.2408 53.5918 31.9125 53.4144 32.762H53.0662C53.1122 32.413 53.1254 32.031 53.1254 31.5964Z" fill="#696E73"/>
<path d="M74.8326 29.431C74.6815 29.4968 74.5764 29.6154 74.5238 29.7866C74.4712 29.9578 74.445 30.2344 74.445 30.6164V38.1633C74.445 38.5453 74.4712 38.8218 74.5238 38.9931C74.5764 39.1643 74.6815 39.2828 74.8326 39.3487C74.9837 39.4145 75.2334 39.454 75.575 39.4672V39.7701C75.0363 39.7372 74.2742 39.7241 73.2821 39.7241C72.198 39.7241 71.4031 39.7372 70.8906 39.7701V39.4672C71.2257 39.454 71.4688 39.4145 71.6265 39.3487C71.7776 39.2828 71.8827 39.1643 71.9418 38.9931C72.0009 38.8218 72.0272 38.5453 72.0272 38.1633V30.623C72.0272 30.241 72.0009 29.9644 71.9418 29.7932C71.8827 29.622 71.7776 29.5034 71.6265 29.4376C71.4753 29.3717 71.2257 29.3322 70.8906 29.319V29.0161C71.4031 29.049 72.198 29.0622 73.2821 29.0622C74.2676 29.0622 75.0363 29.049 75.575 29.0161V29.319C75.2334 29.3256 74.9837 29.3717 74.8326 29.431Z" fill="#696E73"/>
<path d="M88.1682 29.431C88.0039 29.4968 87.8857 29.6154 87.8266 29.7866C87.7609 29.9578 87.7346 30.2344 87.7346 30.6164V38.3411C87.7346 38.6704 87.7609 38.9075 87.8068 39.0523C87.8528 39.1972 87.9448 39.296 88.0762 39.3487C88.2076 39.4014 88.4113 39.4277 88.6938 39.4277H89.4362C89.8961 39.4277 90.3166 39.2894 90.6976 39.0062C91.0787 38.7231 91.4006 38.3279 91.6634 37.8143C91.9262 37.3006 92.1036 36.7079 92.2022 36.0362H92.5504C92.5175 36.3852 92.5044 36.8265 92.5044 37.373C92.5044 38.3477 92.5372 39.1511 92.6095 39.7833C91.9197 39.7504 90.7633 39.7372 89.134 39.7372C86.933 39.7372 85.284 39.7504 84.1934 39.7833V39.4804C84.5284 39.4672 84.7715 39.4277 84.9292 39.3619C85.0869 39.296 85.1854 39.1775 85.2446 39.0062C85.3037 38.835 85.33 38.5584 85.33 38.1765V30.623C85.33 30.241 85.3037 29.9644 85.2446 29.7932C85.1854 29.622 85.0803 29.5034 84.9292 29.4376C84.7781 29.3717 84.5284 29.3322 84.1934 29.319V29.0161C84.7058 29.049 85.5008 29.0622 86.5848 29.0622C87.6097 29.0622 88.4113 29.049 88.9697 29.0161V29.319C88.5952 29.3256 88.3324 29.3717 88.1682 29.431Z" fill="#696E73"/>
<path d="M109.364 37.4718C109.364 38.4004 109.397 39.1709 109.469 39.7833C108.779 39.7504 107.623 39.7372 105.993 39.7372C103.792 39.7372 102.143 39.7504 101.053 39.7833V39.4804C101.388 39.4672 101.631 39.4277 101.789 39.3619C101.94 39.296 102.045 39.1775 102.104 39.0062C102.163 38.835 102.189 38.5584 102.189 38.1765V30.623C102.189 30.241 102.163 29.9644 102.104 29.7932C102.045 29.622 101.94 29.5034 101.789 29.4376C101.637 29.3717 101.388 29.3322 101.053 29.319V29.0161C102.143 29.049 103.792 29.0622 105.993 29.0622C107.478 29.0622 108.536 29.049 109.167 29.0161C109.101 29.8525 109.062 30.6032 109.062 31.2683C109.062 31.7161 109.075 32.0652 109.108 32.3023H108.759C108.654 31.5647 108.497 30.9852 108.286 30.5571C108.076 30.1291 107.807 29.8261 107.478 29.6417C107.15 29.4573 106.749 29.3651 106.269 29.3651H105.645C105.33 29.3651 105.1 29.3915 104.962 29.4442C104.817 29.4968 104.725 29.5956 104.673 29.7405C104.62 29.8854 104.601 30.1225 104.601 30.4517V34.2186H105.08C105.625 34.2186 106.033 34.0211 106.309 33.6259C106.585 33.2308 106.775 32.7566 106.887 32.2166H107.235C107.202 32.7171 107.183 33.1979 107.183 33.6523L107.189 34.3833C107.189 34.8969 107.222 35.6213 107.281 36.5433H106.933C106.729 35.1998 106.112 34.5281 105.08 34.5281H104.601V38.3609C104.601 38.6901 104.627 38.9272 104.673 39.0721C104.725 39.217 104.817 39.3158 104.962 39.3684C105.1 39.4211 105.33 39.4475 105.645 39.4475H106.394C107.104 39.4475 107.682 39.1972 108.122 38.7033C108.562 38.2094 108.878 37.373 109.062 36.2074H109.41C109.377 36.5235 109.364 36.9516 109.364 37.4718Z" fill="#696E73"/>
<path d="M119.739 38.5382C120.173 39.2429 120.849 39.5985 121.749 39.5985C122.104 39.5985 122.426 39.5326 122.709 39.4075C122.991 39.2824 123.221 39.0914 123.385 38.8346C123.549 38.5777 123.635 38.2682 123.635 37.8994C123.635 37.5043 123.543 37.1487 123.359 36.8326C123.175 36.5165 122.925 36.2333 122.61 35.9699C122.295 35.7131 121.881 35.4101 121.355 35.0677C120.744 34.6726 120.258 34.3301 119.897 34.0338C119.542 33.744 119.24 33.395 119.01 32.9933C118.773 32.5916 118.661 32.124 118.661 31.5972C118.661 30.9847 118.819 30.4645 119.128 30.0496C119.437 29.6347 119.851 29.3186 120.363 29.1145C120.875 28.9103 121.441 28.8115 122.058 28.8115C122.426 28.8115 122.741 28.8379 123.011 28.8905C123.28 28.9432 123.503 29.0157 123.687 29.0947C123.865 29.1737 124.062 29.2791 124.279 29.4042C124.522 29.5491 124.693 29.6215 124.791 29.6215C124.883 29.6215 124.955 29.5689 125.008 29.4635C125.061 29.3581 125.1 29.1869 125.126 28.9564H125.474C125.422 29.6347 125.402 30.7937 125.402 32.4269H125.054C125.021 31.8803 124.896 31.3535 124.686 30.8596C124.476 30.3657 124.18 29.964 123.806 29.6545C123.431 29.3449 122.984 29.1869 122.479 29.1869C122.157 29.1869 121.868 29.2462 121.611 29.3713C121.355 29.4964 121.158 29.6742 121.02 29.9113C120.882 30.1484 120.81 30.4184 120.81 30.7345C120.81 31.2416 120.961 31.6499 121.263 31.9725C121.565 32.2952 121.96 32.6179 122.439 32.9472C122.925 33.2765 123.247 33.5004 123.418 33.6123C124.009 34.0074 124.482 34.3499 124.824 34.6462C125.172 34.936 125.455 35.2784 125.672 35.6736C125.888 36.0687 126 36.5165 126 37.0302C126 37.6821 125.829 38.2287 125.494 38.6699C125.159 39.1178 124.706 39.447 124.141 39.6709C123.569 39.8883 122.938 40.0002 122.235 40.0002C121.664 40.0002 121.197 39.9475 120.823 39.8487C120.448 39.75 120.107 39.6117 119.791 39.4339C119.575 39.289 119.404 39.2165 119.279 39.2165C119.187 39.2165 119.115 39.2692 119.062 39.3746C119.01 39.48 118.97 39.6512 118.944 39.8817H118.596C118.635 39.2495 118.655 37.8797 118.655 35.7723H119.003C119.049 36.9116 119.299 37.8336 119.739 38.5382Z" fill="#696E73"/>
<path d="M7.31091 16.0736C7.31091 16.7915 7.38318 17.3183 7.53429 17.6476C7.6854 17.9768 7.95477 18.2007 8.3424 18.3127C8.73003 18.4246 9.34761 18.4905 10.182 18.4971V19.0898C7.98105 19.0371 6.33855 19.0108 5.26108 19.0108C4.74862 19.0108 3.33607 19.0371 1.02344 19.0898V18.5498C1.61474 18.5234 2.04835 18.451 2.32429 18.339C2.59366 18.2271 2.78419 18.0163 2.88274 17.7068C2.98129 17.3973 3.03385 16.91 3.03385 16.2317V2.8764C3.03385 2.20469 2.98129 1.71078 2.88274 1.40126C2.78419 1.09833 2.60023 0.887596 2.33086 0.775644C2.05492 0.657105 1.62788 0.591251 1.03001 0.564909V0.0249023C1.9301 0.0775859 3.29008 0.103928 5.10997 0.103928C5.8261 0.103928 6.62106 0.0973423 7.49487 0.0775859C8.36868 0.0578296 8.97969 0.0512441 9.31476 0.0512441C10.9375 0.0512441 12.3107 0.275149 13.4276 0.716375C14.5445 1.1576 15.3789 1.77663 15.9307 2.57347C16.4826 3.37031 16.7651 4.29886 16.7651 5.35912C16.7651 6.34035 16.5155 7.28865 16.0161 8.19744C15.5168 9.10624 14.6693 9.86356 13.4736 10.4694C12.2778 11.0753 10.6945 11.3782 8.72346 11.3782H7.30434V16.0736H7.31091ZM11.4829 9.44209C12.0347 8.50696 12.3107 7.24255 12.3107 5.64888C12.3107 3.90373 12.0544 2.61957 11.5354 1.79639C11.023 0.973207 10.1689 0.558324 8.97969 0.558324C8.50008 0.558324 8.1453 0.624178 7.90878 0.749302C7.67883 0.874425 7.52115 1.09833 7.43574 1.42102C7.35033 1.7437 7.31091 2.22444 7.31091 2.8764V10.8448H8.46723C9.92576 10.8448 10.931 10.3772 11.4829 9.44209Z" fill="#696E73"/>
<path d="M32.8359 15.0022C32.8359 16.6485 32.895 18.0117 33.0199 19.0917C31.8044 19.039 29.7546 19.0127 26.8704 19.0127C22.9678 19.0127 20.0573 19.039 18.1257 19.0917V18.5517C18.717 18.5254 19.1506 18.4529 19.4266 18.341C19.6959 18.229 19.8865 18.0183 19.985 17.7088C20.0836 17.3993 20.1361 16.9119 20.1361 16.2336V2.87835C20.1361 2.20664 20.0836 1.71273 19.985 1.40321C19.8865 1.0937 19.6959 0.882964 19.4266 0.771011C19.1441 0.659059 18.7104 0.593204 18.1191 0.566862V0.0268555C20.0507 0.0795391 22.9678 0.105881 26.8638 0.105881C29.4983 0.105881 31.3642 0.0795391 32.4745 0.0268555C32.3497 1.50858 32.2906 2.83226 32.2906 4.01105C32.2906 4.80789 32.3169 5.42034 32.3694 5.83522H31.7519C31.5679 4.5313 31.2854 3.49739 30.9109 2.74665C30.5364 1.9959 30.0568 1.4559 29.4786 1.13321C28.9005 0.810524 28.1909 0.645888 27.3434 0.645888H26.2396C25.6812 0.645888 25.2738 0.691986 25.0242 0.784182C24.7745 0.876378 24.6037 1.05419 24.5183 1.31102C24.4329 1.56785 24.3869 1.98932 24.3869 2.56884V9.23331H25.241C26.2002 9.23331 26.9295 8.88428 27.4157 8.17964C27.9084 7.48158 28.2435 6.64523 28.4406 5.68376H29.0582C28.999 6.56621 28.9662 7.41573 28.9662 8.21915L28.9793 9.5099C28.9793 10.4187 29.0319 11.6963 29.137 13.336H28.5194C28.1581 10.9587 27.0675 9.77332 25.241 9.77332H24.3869V16.5563C24.3869 17.1359 24.4329 17.5507 24.5183 17.8142C24.6037 18.071 24.7745 18.2488 25.0242 18.341C25.2738 18.4332 25.6746 18.4793 26.2396 18.4793H27.5668C28.8282 18.4793 29.8466 18.0381 30.6284 17.1622C31.4102 16.2863 31.9621 14.8112 32.2906 12.7434H32.9082C32.8622 13.3229 32.8359 14.0802 32.8359 15.0022Z" fill="#696E73"/>
<path d="M51.5404 1.02126C51.2644 1.24516 51.0739 1.58761 50.9753 2.04859C50.8768 2.50957 50.8242 3.20104 50.8242 4.11642V19.1444C50.6928 19.1378 50.476 19.1312 50.1672 19.1312C49.8519 19.1312 49.6088 19.1378 49.4445 19.1444L37.7894 4.34032V14.6729C37.7894 15.7332 37.8485 16.5102 37.9602 17.0041C38.0719 17.4981 38.3084 17.8603 38.6632 18.0907C39.018 18.3212 39.5961 18.4727 40.3977 18.5517V19.0917C39.7078 19.039 38.742 19.0127 37.5003 19.0127C36.5148 19.0127 35.733 19.039 35.168 19.0917V18.5517C35.7527 18.4727 36.1863 18.3212 36.4623 18.0973C36.7382 17.8734 36.9287 17.531 37.0273 17.07C37.1258 16.609 37.1784 15.9175 37.1784 15.0022V2.87835C37.1784 2.20664 37.1258 1.71273 37.0273 1.40321C36.9287 1.0937 36.7382 0.882964 36.4688 0.771011C36.1929 0.659059 35.7593 0.593204 35.168 0.566862V0.0268555C35.7396 0.0795391 36.5148 0.105881 37.5003 0.105881C38.4004 0.105881 39.1691 0.0795391 39.8064 0.0268555L50.2067 12.8685V4.44569C50.2067 3.38543 50.1475 2.60835 50.0358 2.11444C49.9242 1.62053 49.6876 1.25833 49.3329 1.02784C48.9781 0.797353 48.3999 0.645888 47.5984 0.566862V0.0268555C48.2882 0.0795391 49.254 0.105881 50.4957 0.105881C51.4944 0.105881 52.2696 0.0795391 52.8281 0.0268555V0.566862C52.2434 0.645888 51.8163 0.797353 51.5404 1.02126Z" fill="#696E73"/>
<path d="M70.9349 1.02126C70.659 1.24516 70.4684 1.58761 70.3699 2.04859C70.2713 2.50957 70.2188 3.20104 70.2188 4.11642V19.1444C70.0874 19.1378 69.8706 19.1312 69.5618 19.1312C69.2464 19.1312 69.0033 19.1378 68.8391 19.1444L57.1839 4.34032V14.6729C57.1839 15.7332 57.2431 16.5102 57.3547 17.0041C57.4664 17.4981 57.703 17.8603 58.0577 18.0907C58.4125 18.3212 58.9907 18.4727 59.7922 18.5517V19.0917C59.1024 19.039 58.1366 19.0127 56.8948 19.0127C55.9093 19.0127 55.1275 19.039 54.5625 19.0917V18.5517C55.1472 18.4727 55.5808 18.3212 55.8568 18.0973C56.1327 17.8734 56.3233 17.531 56.4218 17.07C56.5204 16.609 56.5729 15.9175 56.5729 15.0022V2.87835C56.5729 2.20664 56.5204 1.71273 56.4218 1.40321C56.3233 1.0937 56.1327 0.882964 55.8634 0.771011C55.5874 0.659059 55.1538 0.593204 54.5625 0.566862V0.0268555C55.1275 0.0795391 55.9093 0.105881 56.8948 0.105881C57.7949 0.105881 58.5636 0.0795391 59.2009 0.0268555L69.6012 12.8685V4.44569C69.6012 3.38543 69.5421 2.60835 69.4304 2.11444C69.3187 1.62053 69.0822 1.25833 68.7274 1.02784C68.3726 0.797353 67.7944 0.645888 66.9929 0.566862V0.0268555C67.6828 0.0795391 68.6485 0.105881 69.8903 0.105881C70.8889 0.105881 71.6642 0.0795391 72.2226 0.0268555V0.566862C71.6445 0.645888 71.2108 0.797353 70.9349 1.02126Z" fill="#696E73"/>
<path d="M87.5566 0.0790254C88.3779 0.0790254 89.0611 0.0526836 89.5999 0V0.540007C89.186 0.717814 88.7786 1.04709 88.3581 1.53441C87.9442 2.02173 87.4975 2.72638 87.0113 3.65492L83.838 9.95061V16.2331C83.838 16.9114 83.8906 17.3988 83.9891 17.7083C84.0877 18.0178 84.2782 18.2219 84.5476 18.3405C84.8169 18.4524 85.2571 18.5249 85.8616 18.5512V19.0912C84.8892 19.0385 83.5161 19.0122 81.729 19.0122C79.8172 19.0122 78.4243 19.0385 77.5571 19.0912V18.5512C78.1484 18.5249 78.5886 18.4524 78.8645 18.3405C79.1405 18.2285 79.331 18.0178 79.4295 17.7083C79.5281 17.3988 79.5806 16.9114 79.5806 16.2331V11.6826L74.3904 2.07442C73.8385 1.06684 73.326 0.559763 72.8398 0.559763V0C73.6151 0.0856108 74.6729 0.131709 76 0.131709C77.6819 0.131709 79.3638 0.0856108 81.0458 0V0.566349C80.415 0.566349 79.9223 0.619032 79.5544 0.730985C79.193 0.842937 79.0091 1.04709 79.0091 1.3566C79.0091 1.54099 79.0682 1.74514 79.193 1.96246L83.2861 9.85183L85.3688 5.6569C86.0784 4.23444 86.4331 3.12809 86.4331 2.33125C86.4331 1.72539 86.2426 1.28416 85.855 1.00099C85.4673 0.717814 84.9155 0.566349 84.1928 0.540007V0C85.4082 0.0526836 86.5251 0.0790254 87.5566 0.0790254Z" fill="#696E73"/>
<path d="M118.758 0.105881C119.606 0.105881 120.295 0.0795391 120.828 0.0268555V0.566862C119.776 0.968575 118.995 2.042 118.469 3.77398L113.732 19.1378C113.541 19.1181 113.226 19.1115 112.786 19.1115C112.359 19.1115 112.05 19.1181 111.853 19.1378L107.891 7.13914L103.93 19.1378C103.726 19.1181 103.411 19.1115 102.983 19.1115C102.556 19.1115 102.241 19.1181 102.037 19.1378L96.0193 2.28566C95.8156 1.69956 95.5594 1.27151 95.2506 0.994917C94.9418 0.724913 94.633 0.580033 94.3242 0.560277V0.0268555C95.4017 0.0795391 96.7354 0.105881 98.3385 0.105881C99.843 0.105881 100.94 0.0795391 101.63 0.0268555V0.566862C101.006 0.645888 100.697 0.994917 100.697 1.62053C100.697 1.95639 100.776 2.3581 100.934 2.83226L104.856 14.1922L107.582 6.19742L106.203 2.02883C106.025 1.502 105.815 1.13321 105.572 0.922477C105.329 0.711742 105.04 0.593204 104.718 0.566862V0.0268555C105.717 0.0795391 106.998 0.105881 108.561 0.105881C110.302 0.105881 111.59 0.0795391 112.431 0.0268555V0.566862C111.774 0.586619 111.308 0.659059 111.025 0.790768C110.743 0.922477 110.605 1.17931 110.605 1.56785C110.605 1.85761 110.69 2.27908 110.867 2.83226L114.54 14.1L117.096 5.96035C117.497 4.64326 117.7 3.59617 117.7 2.81909C117.7 2.042 117.51 1.47565 117.129 1.13321C116.748 0.784182 116.176 0.59979 115.407 0.573448V0.0268555C116.629 0.0795391 117.74 0.105881 118.758 0.105881Z" fill="#696E73"/>
<path d="M124.329 15.8703C124.743 16.2457 124.946 16.7462 124.946 17.3915C124.946 18.0303 124.743 18.5374 124.329 18.9128C123.915 19.2882 123.357 19.4726 122.654 19.4726C121.957 19.4726 121.399 19.2882 120.985 18.9128C120.571 18.5374 120.367 18.0369 120.367 17.3915C120.367 16.7528 120.571 16.2457 120.985 15.8703C121.392 15.4949 121.951 15.3105 122.654 15.3105C123.357 15.3105 123.922 15.5015 124.329 15.8703Z" fill="#696E73"/>
</svg>
