<svg width="139" height="32" viewBox="0 0 139 32" fill="none" xmlns="http://www.w3.org/2000/svg">
<path d="M14.7417 4.65753V0H0V32H14.7417V27.3425C11.7219 27.3425 8.82567 26.1474 6.69036 24.0203C4.55501 21.8932 3.35539 19.0082 3.35539 16C3.35539 12.9918 4.55501 10.1067 6.69036 7.97967C8.82567 5.85255 11.7219 4.65753 14.7417 4.65753Z" fill="#696E73"/>
<path d="M14.7402 4.65771V27.3426C17.7601 27.3426 20.6563 26.1476 22.7916 24.0205C24.927 21.8933 26.1266 19.0084 26.1266 16.0002C26.1266 12.992 24.927 10.1069 22.7916 7.97985C20.6563 5.85273 17.7601 4.65771 14.7402 4.65771Z" fill="#696E73"/>
<path d="M136.58 11.3307C137.917 11.3307 139.001 10.2513 139.001 8.91975C139.001 7.58824 137.917 6.50879 136.58 6.50879C135.244 6.50879 134.16 7.58824 134.16 8.91975C134.16 10.2513 135.244 11.3307 136.58 11.3307Z" fill="#696E73"/>
<path d="M41.3912 20.8626L45.8132 6.06808H50.1192L43.5829 24.7667H40.7466L41.3912 20.8626ZM37.3173 6.06808L41.7264 20.8626L42.3968 24.7667H39.5347L33.0371 6.06808H37.3173Z" fill="#696E73"/>
<path d="M58.5764 21.6331V15.4431C58.5764 14.9979 58.5034 14.6169 58.3573 14.3001C58.2111 13.9748 57.9834 13.7222 57.674 13.5424C57.3732 13.3626 56.9821 13.2727 56.5008 13.2727C56.0882 13.2727 55.7316 13.3455 55.4307 13.491C55.1299 13.628 54.8979 13.8292 54.7346 14.0946C54.5713 14.3515 54.4896 14.6554 54.4896 15.0064H50.7767C50.7767 14.4157 50.9142 13.8549 51.1892 13.3241C51.4643 12.7933 51.8639 12.3266 52.3882 11.9242C52.9125 11.5133 53.5356 11.1922 54.2576 10.9611C54.9881 10.7299 55.8046 10.6143 56.7071 10.6143C57.79 10.6143 58.7526 10.7941 59.5949 11.1537C60.4372 11.5133 61.099 12.0527 61.5803 12.7718C62.0702 13.491 62.3151 14.39 62.3151 15.4688V21.4148C62.3151 22.1768 62.3624 22.8018 62.457 23.2898C62.5515 23.7693 62.689 24.1888 62.8695 24.5484V24.7667H59.1179C58.9374 24.39 58.7999 23.9191 58.7053 23.354C58.6194 22.7804 58.5764 22.2068 58.5764 21.6331ZM59.0663 16.3035L59.0921 18.3968H57.0165C56.5266 18.3968 56.1011 18.4525 55.7402 18.5638C55.3792 18.6751 55.0827 18.8335 54.8506 19.039C54.6185 19.2359 54.4466 19.4671 54.3349 19.7325C54.2318 19.9979 54.1802 20.289 54.1802 20.6057C54.1802 20.9225 54.2533 21.2093 54.3994 21.4662C54.5455 21.7145 54.7561 21.9114 55.0311 22.0569C55.3061 22.1939 55.6284 22.2624 55.998 22.2624C56.5567 22.2624 57.0423 22.1511 57.4548 21.9285C57.8674 21.7059 58.1854 21.4319 58.4088 21.1066C58.6409 20.7813 58.7612 20.473 58.7698 20.1819L59.7496 21.7487C59.6121 22.0998 59.423 22.4636 59.1824 22.8403C58.9503 23.217 58.6538 23.5724 58.2928 23.9063C57.9318 24.2316 57.4978 24.5013 56.9907 24.7153C56.4836 24.9208 55.882 25.0236 55.1858 25.0236C54.3005 25.0236 53.4969 24.848 52.775 24.497C52.0616 24.1374 51.4943 23.6451 51.0732 23.0201C50.6607 22.3866 50.4544 21.6674 50.4544 20.8626C50.4544 20.1349 50.5919 19.4885 50.8669 18.9234C51.142 18.3583 51.5459 17.8831 52.0788 17.4979C52.6203 17.104 53.2949 16.8087 54.1029 16.6117C54.9108 16.4063 55.8476 16.3035 56.9133 16.3035H59.0663Z" fill="#696E73"/>
<path d="M68.8128 13.8378V24.7667H65.0998V10.8712H68.5807L68.8128 13.8378ZM68.2713 17.3309H67.2657C67.2657 16.3035 67.3989 15.3789 67.6654 14.557C67.9318 13.7265 68.3057 13.0201 68.787 12.4379C69.2683 11.8472 69.8398 11.3977 70.5016 11.0895C71.172 10.7727 71.9198 10.6143 72.7449 10.6143C73.3981 10.6143 73.9954 10.7085 74.5369 10.8968C75.0783 11.0852 75.5425 11.3849 75.9292 11.7958C76.3246 12.2068 76.6254 12.7504 76.8317 13.4268C77.0465 14.1032 77.154 14.9294 77.154 15.9054V24.7667H73.4153V15.8926C73.4153 15.2761 73.3293 14.7967 73.1574 14.4542C72.9855 14.1117 72.732 13.872 72.3968 13.735C72.0702 13.5895 71.6662 13.5167 71.1849 13.5167C70.6864 13.5167 70.2524 13.6152 69.8828 13.8121C69.5218 14.009 69.221 14.283 68.9804 14.634C68.7483 14.9765 68.5721 15.3789 68.4518 15.8412C68.3315 16.3035 68.2713 16.8001 68.2713 17.3309Z" fill="#696E73"/>
<path d="M84.7088 24.7667H80.9701V9.63829C80.9701 8.58521 81.1763 7.69908 81.5889 6.9799C82.01 6.25216 82.5988 5.70421 83.3551 5.33606C84.12 4.95935 85.0268 4.771 86.0753 4.771C86.4191 4.771 86.75 4.79668 87.068 4.84805C87.386 4.89086 87.6954 4.94651 87.9963 5.015L87.9576 7.80182C87.7943 7.75901 87.6224 7.72904 87.4419 7.71192C87.2614 7.6948 87.0508 7.68623 86.8102 7.68623C86.3633 7.68623 85.9808 7.76329 85.6628 7.9174C85.3534 8.06295 85.117 8.28127 84.9537 8.57236C84.7904 8.86346 84.7088 9.21877 84.7088 9.63829V24.7667ZM87.4935 10.8712V13.491H78.8944V10.8712H87.4935Z" fill="#696E73"/>
<path d="M96.9692 21.6331V15.4431C96.9692 14.9979 96.8961 14.6169 96.75 14.3001C96.6039 13.9748 96.3762 13.7222 96.0667 13.5424C95.7659 13.3626 95.3749 13.2727 94.8936 13.2727C94.481 13.2727 94.1243 13.3455 93.8235 13.491C93.5227 13.628 93.2906 13.8292 93.1273 14.0946C92.964 14.3515 92.8824 14.6554 92.8824 15.0064H89.1694C89.1694 14.4157 89.307 13.8549 89.582 13.3241C89.857 12.7933 90.2567 12.3266 90.781 11.9242C91.3052 11.5133 91.9284 11.1922 92.6503 10.9611C93.3809 10.7299 94.1974 10.6143 95.0998 10.6143C96.1828 10.6143 97.1454 10.7941 97.9877 11.1537C98.83 11.5133 99.4917 12.0527 99.9731 12.7718C100.463 13.491 100.708 14.39 100.708 15.4688V21.4148C100.708 22.1768 100.755 22.8018 100.85 23.2898C100.944 23.7693 101.082 24.1888 101.262 24.5484V24.7667H97.5107C97.3302 24.39 97.1927 23.9191 97.0981 23.354C97.0122 22.7804 96.9692 22.2068 96.9692 21.6331ZM97.4591 16.3035L97.4849 18.3968H95.4092C94.9193 18.3968 94.4939 18.4525 94.1329 18.5638C93.7719 18.6751 93.4754 18.8335 93.2434 19.039C93.0113 19.2359 92.8394 19.4671 92.7277 19.7325C92.6245 19.9979 92.573 20.289 92.573 20.6057C92.573 20.9225 92.646 21.2093 92.7921 21.4662C92.9382 21.7145 93.1488 21.9114 93.4239 22.0569C93.6989 22.1939 94.0212 22.2624 94.3908 22.2624C94.9494 22.2624 95.435 22.1511 95.8476 21.9285C96.2601 21.7059 96.5781 21.4319 96.8016 21.1066C97.0336 20.7813 97.154 20.473 97.1626 20.1819L98.1424 21.7487C98.0049 22.0998 97.8158 22.4636 97.5751 22.8403C97.3431 23.217 97.0465 23.5724 96.6856 23.9063C96.3246 24.2316 95.8905 24.5013 95.3835 24.7153C94.8764 24.9208 94.2747 25.0236 93.5786 25.0236C92.6933 25.0236 91.8897 24.848 91.1677 24.497C90.4544 24.1374 89.8871 23.6451 89.466 23.0201C89.0534 22.3866 88.8471 21.6674 88.8471 20.8626C88.8471 20.1349 88.9847 19.4885 89.2597 18.9234C89.5347 18.3583 89.9387 17.8831 90.4716 17.4979C91.013 17.104 91.6877 16.8087 92.4956 16.6117C93.3035 16.4063 94.2404 16.3035 95.3061 16.3035H97.4591Z" fill="#696E73"/>
<path d="M103.57 5.04069H107.283V21.5818L106.909 24.7667H103.57V5.04069ZM116.114 17.6777V17.9474C116.114 18.9833 116.002 19.9337 115.779 20.7984C115.564 21.6631 115.229 22.4123 114.773 23.0458C114.318 23.6708 113.75 24.1588 113.071 24.5099C112.401 24.8523 111.61 25.0236 110.699 25.0236C109.848 25.0236 109.109 24.8523 108.482 24.5099C107.863 24.1674 107.343 23.6837 106.922 23.0587C106.501 22.4337 106.161 21.7016 105.903 20.8626C105.646 20.0236 105.452 19.1075 105.323 18.1143V17.5236C105.452 16.5304 105.646 15.6143 105.903 14.7753C106.161 13.9362 106.501 13.2042 106.922 12.5792C107.343 11.9542 107.863 11.4705 108.482 11.128C109.101 10.7855 109.831 10.6143 110.674 10.6143C111.593 10.6143 112.392 10.7898 113.071 11.1409C113.759 11.4833 114.326 11.9713 114.773 12.6049C115.229 13.2299 115.564 13.9748 115.779 14.8395C116.002 15.6956 116.114 16.6417 116.114 17.6777ZM112.401 17.9474V17.6777C112.401 17.1126 112.358 16.5818 112.272 16.0852C112.195 15.5801 112.057 15.1391 111.86 14.7624C111.662 14.3772 111.391 14.0732 111.047 13.8506C110.712 13.628 110.278 13.5167 109.745 13.5167C109.238 13.5167 108.808 13.6023 108.456 13.7736C108.104 13.9448 107.811 14.1845 107.579 14.4927C107.356 14.801 107.188 15.1691 107.077 15.5972C106.965 16.0167 106.896 16.479 106.87 16.9842V18.6665C106.896 19.3429 107.008 19.9422 107.206 20.4645C107.412 20.9782 107.721 21.3849 108.134 21.6845C108.555 21.9756 109.101 22.1212 109.771 22.1212C110.295 22.1212 110.729 22.0184 111.073 21.8129C111.417 21.6075 111.683 21.3164 111.872 20.9397C112.07 20.5629 112.208 20.122 112.285 19.6169C112.362 19.1032 112.401 18.5467 112.401 17.9474Z" fill="#696E73"/>
<path d="M125.951 21.6331V15.4431C125.951 14.9979 125.878 14.6169 125.732 14.3001C125.585 13.9748 125.358 13.7222 125.048 13.5424C124.747 13.3626 124.356 13.2727 123.875 13.2727C123.463 13.2727 123.106 13.3455 122.805 13.491C122.504 13.628 122.272 13.8292 122.109 14.0946C121.946 14.3515 121.864 14.6554 121.864 15.0064H118.151C118.151 14.4157 118.288 13.8549 118.564 13.3241C118.839 12.7933 119.238 12.3266 119.762 11.9242C120.287 11.5133 120.91 11.1922 121.632 10.9611C122.362 10.7299 123.179 10.6143 124.081 10.6143C125.164 10.6143 126.127 10.7941 126.969 11.1537C127.811 11.5133 128.473 12.0527 128.955 12.7718C129.444 13.491 129.689 14.39 129.689 15.4688V21.4148C129.689 22.1768 129.737 22.8018 129.831 23.2898C129.926 23.7693 130.063 24.1888 130.244 24.5484V24.7667H126.492C126.312 24.39 126.174 23.9191 126.08 23.354C125.994 22.7804 125.951 22.2068 125.951 21.6331ZM126.441 16.3035L126.466 18.3968H124.391C123.901 18.3968 123.475 18.4525 123.114 18.5638C122.753 18.6751 122.457 18.8335 122.225 19.039C121.993 19.2359 121.821 19.4671 121.709 19.7325C121.606 19.9979 121.554 20.289 121.554 20.6057C121.554 20.9225 121.628 21.2093 121.774 21.4662C121.92 21.7145 122.13 21.9114 122.405 22.0569C122.68 22.1939 123.003 22.2624 123.372 22.2624C123.931 22.2624 124.417 22.1511 124.829 21.9285C125.242 21.7059 125.56 21.4319 125.783 21.1066C126.015 20.7813 126.135 20.473 126.144 20.1819L127.124 21.7487C126.986 22.0998 126.797 22.4636 126.557 22.8403C126.325 23.217 126.028 23.5724 125.667 23.9063C125.306 24.2316 124.872 24.5013 124.365 24.7153C123.858 24.9208 123.256 25.0236 122.56 25.0236C121.675 25.0236 120.871 24.848 120.149 24.497C119.436 24.1374 118.869 23.6451 118.447 23.0201C118.035 22.3866 117.829 21.6674 117.829 20.8626C117.829 20.1349 117.966 19.4885 118.241 18.9234C118.516 18.3583 118.92 17.8831 119.453 17.4979C119.995 17.104 120.669 16.8087 121.477 16.6117C122.285 16.4063 123.222 16.3035 124.288 16.3035H126.441Z" fill="#696E73"/>
</svg>
