<svg width="168" height="32" viewBox="0 0 168 32" fill="none" xmlns="http://www.w3.org/2000/svg">
<path d="M164.163 10.3646C166.282 10.3646 168 8.65906 168 6.55522C168 4.45138 166.282 2.74579 164.163 2.74579C162.043 2.74579 160.325 4.45138 160.325 6.55522C160.325 8.65906 162.043 10.3646 164.163 10.3646Z" fill="#696E73"/>
<path d="M13.2452 25.4255L20.2562 2.04946H27.0832L16.7201 31.5942H12.2232L13.2452 25.4255ZM6.78614 2.04946L13.7767 25.4255L14.8396 31.5942H10.3018L0 2.04946H6.78614Z" fill="#696E73"/>
<path d="M40.492 26.643V16.8624C40.492 16.159 40.3761 15.557 40.1445 15.0564C39.9128 14.5424 39.5517 14.1433 39.0612 13.8592C38.5842 13.5751 37.9642 13.4331 37.2011 13.4331C36.547 13.4331 35.9815 13.5481 35.5046 13.7781C35.0276 13.9945 34.6597 14.3124 34.4008 14.7318C34.1419 15.1376 34.0124 15.6178 34.0124 16.1725H28.1257C28.1257 15.2391 28.3437 14.353 28.7798 13.5143C29.2158 12.6755 29.8495 11.9383 30.6807 11.3025C31.5119 10.6531 32.4999 10.1458 33.6445 9.7806C34.8028 9.41534 36.0973 9.23272 37.5282 9.23272C39.2451 9.23272 40.7713 9.5168 42.1068 10.085C43.4422 10.6531 44.4914 11.5054 45.2545 12.6417C46.0313 13.7781 46.4196 15.1985 46.4196 16.903V26.298C46.4196 27.502 46.4946 28.4895 46.6445 29.2606C46.7944 30.0182 47.0124 30.681 47.2986 31.2492V31.5942H41.3505C41.0643 30.9989 40.8463 30.2549 40.6964 29.3621C40.5601 28.4557 40.492 27.5494 40.492 26.643ZM41.2687 18.2219L41.3096 21.5295H38.0187C37.242 21.5295 36.5675 21.6174 35.9951 21.7933C35.4228 21.9691 34.9527 22.2194 34.5848 22.5441C34.2169 22.8552 33.9443 23.2205 33.7672 23.6398C33.6036 24.0592 33.5219 24.5191 33.5219 25.0197C33.5219 25.5202 33.6377 25.9734 33.8694 26.3792C34.101 26.7715 34.4349 27.0826 34.8709 27.3126C35.307 27.5291 35.818 27.6373 36.4039 27.6373C37.2897 27.6373 38.0596 27.4614 38.7137 27.1097C39.3678 26.758 39.872 26.3251 40.2263 25.811C40.5942 25.297 40.785 24.81 40.7986 24.35L42.352 26.8256C42.134 27.3803 41.8342 27.9552 41.4527 28.5504C41.0847 29.1456 40.6146 29.707 40.0423 30.2346C39.47 30.7487 38.7818 31.1748 37.9778 31.513C37.1739 31.8377 36.22 32 35.1162 32C33.7127 32 32.4386 31.7227 31.2939 31.168C30.1629 30.5999 29.2635 29.822 28.5958 28.8345C27.9417 27.8334 27.6147 26.6971 27.6147 25.4255C27.6147 24.2756 27.8327 23.2543 28.2688 22.3614C28.7048 21.4686 29.3453 20.7178 30.1901 20.1091C31.0486 19.4868 32.1183 19.0201 33.3992 18.7089C34.6802 18.3843 36.1655 18.2219 37.8552 18.2219H41.2687Z" fill="#696E73"/>
<path d="M56.7215 14.3259V31.5942H50.8347V9.63855H56.3536L56.7215 14.3259ZM55.863 19.8453H54.2687C54.2687 18.2219 54.4799 16.7609 54.9023 15.4623C55.3247 14.1501 55.9175 13.034 56.6806 12.1141C57.4437 11.1807 58.3499 10.4705 59.3992 9.98351C60.462 9.48298 61.6476 9.23272 62.9557 9.23272C63.9914 9.23272 64.9384 9.38153 65.7969 9.67914C66.6554 9.97675 67.3913 10.4502 68.0045 11.0996C68.6313 11.7489 69.1082 12.6079 69.4353 13.6766C69.7759 14.7453 69.9463 16.0507 69.9463 17.5929V31.5942H64.0186V17.5726C64.0186 16.5986 63.8823 15.841 63.6098 15.2999C63.3373 14.7588 62.9353 14.38 62.4038 14.1636C61.886 13.9336 61.2456 13.8186 60.4825 13.8186C59.6921 13.8186 59.004 13.9742 58.418 14.2854C57.8457 14.5965 57.3688 15.0294 56.9872 15.584C56.6193 16.1251 56.3399 16.7609 56.1492 17.4914C55.9584 18.2219 55.863 19.0065 55.863 19.8453Z" fill="#696E73"/>
<path d="M81.9242 31.5942H75.9966V7.69055C75.9966 6.02663 76.3236 4.62651 76.9777 3.49017C77.6454 2.34031 78.5788 1.47453 79.778 0.892834C80.9908 0.297611 82.4284 0 84.0909 0C84.6359 0 85.1606 0.0405827 85.6648 0.121749C86.169 0.189388 86.6595 0.27732 87.1365 0.385542L87.0751 4.78884C86.8162 4.7212 86.5437 4.67385 86.2575 4.6468C85.9714 4.61974 85.6375 4.60621 85.256 4.60621C84.5474 4.60621 83.941 4.72796 83.4368 4.97146C82.9462 5.20144 82.5715 5.5464 82.3126 6.00634C82.0537 6.46629 81.9242 7.02769 81.9242 7.69055V31.5942ZM86.3393 9.63855V13.7781H72.7057V9.63855H86.3393Z" fill="#696E73"/>
<path d="M101.363 26.643V16.8624C101.363 16.159 101.247 15.557 101.015 15.0564C100.784 14.5424 100.423 14.1433 99.932 13.8592C99.4551 13.5751 98.835 13.4331 98.0719 13.4331C97.4179 13.4331 96.8524 13.5481 96.3754 13.7781C95.8985 13.9945 95.5306 14.3124 95.2716 14.7318C95.0127 15.1376 94.8833 15.6178 94.8833 16.1725H88.9965C88.9965 15.2391 89.2145 14.353 89.6506 13.5143C90.0867 12.6755 90.7203 11.9383 91.5515 11.3025C92.3828 10.6531 93.3707 10.1458 94.5154 9.7806C95.6736 9.41534 96.9682 9.23272 98.399 9.23272C100.116 9.23272 101.642 9.5168 102.978 10.085C104.313 10.6531 105.362 11.5054 106.125 12.6417C106.902 13.7781 107.29 15.1985 107.29 16.903V26.298C107.29 27.502 107.365 28.4895 107.515 29.2606C107.665 30.0182 107.883 30.681 108.169 31.2492V31.5942H102.221C101.935 30.9989 101.717 30.2549 101.567 29.3621C101.431 28.4557 101.363 27.5494 101.363 26.643ZM102.14 18.2219L102.18 21.5295H98.8896C98.1128 21.5295 97.4383 21.6174 96.866 21.7933C96.2936 21.9691 95.8235 22.2194 95.4556 22.5441C95.0877 22.8552 94.8152 23.2205 94.638 23.6398C94.4745 24.0592 94.3927 24.5191 94.3927 25.0197C94.3927 25.5202 94.5085 25.9734 94.7402 26.3792C94.9719 26.7715 95.3057 27.0826 95.7418 27.3126C96.1778 27.5291 96.6888 27.6373 97.2748 27.6373C98.1605 27.6373 98.9304 27.4614 99.5845 27.1097C100.239 26.758 100.743 26.3251 101.097 25.811C101.465 25.297 101.656 24.81 101.669 24.35L103.223 26.8256C103.005 27.3803 102.705 27.9552 102.324 28.5504C101.956 29.1456 101.485 29.707 100.913 30.2346C100.341 30.7487 99.6527 31.1748 98.8487 31.513C98.0447 31.8377 97.0908 32 95.9871 32C94.5835 32 93.3094 31.7227 92.1647 31.168C91.0337 30.5999 90.1343 29.822 89.4666 28.8345C88.8126 27.8334 88.4855 26.6971 88.4855 25.4255C88.4855 24.2756 88.7035 23.2543 89.1396 22.3614C89.5757 21.4686 90.2161 20.7178 91.061 20.1091C91.9195 19.4868 92.9892 19.0201 94.2701 18.7089C95.551 18.3843 97.0363 18.2219 98.726 18.2219H102.14Z" fill="#696E73"/>
<path d="M111.828 0.426126H117.715V26.5618L117.122 31.5942H111.828V0.426126ZM131.716 20.3932V20.8193C131.716 22.4561 131.539 23.9577 131.185 25.324C130.844 26.6903 130.313 27.874 129.591 28.8751C128.868 29.8626 127.969 30.6337 126.893 31.1883C125.83 31.7294 124.576 32 123.132 32C121.783 32 120.611 31.7294 119.616 31.1883C118.635 30.6472 117.81 29.8829 117.143 28.8954C116.475 27.9078 115.937 26.7512 115.528 25.4255C115.119 24.0998 114.812 22.6523 114.608 21.0831V20.1497C114.812 18.5804 115.119 17.133 115.528 15.8072C115.937 14.4815 116.475 13.3249 117.143 12.3373C117.81 11.3498 118.635 10.5855 119.616 10.0444C120.597 9.50328 121.755 9.23272 123.091 9.23272C124.549 9.23272 125.816 9.51004 126.893 10.0647C127.983 10.6058 128.882 11.3769 129.591 12.3779C130.313 13.3655 130.844 14.5424 131.185 15.9087C131.539 17.2615 131.716 18.7563 131.716 20.3932ZM125.83 20.8193V20.3932C125.83 19.5003 125.762 18.6616 125.625 17.877C125.503 17.0788 125.285 16.3822 124.971 15.7869C124.658 15.1782 124.229 14.6979 123.683 14.3462C123.152 13.9945 122.464 13.8186 121.619 13.8186C120.815 13.8186 120.134 13.9539 119.575 14.2245C119.016 14.495 118.553 14.8738 118.185 15.3608C117.831 15.8478 117.565 16.4295 117.388 17.1059C117.211 17.7688 117.102 18.4993 117.061 19.2974V21.9556C117.102 23.0243 117.279 23.9713 117.592 24.7964C117.919 25.6081 118.41 26.2507 119.064 26.7242C119.732 27.1841 120.597 27.4141 121.66 27.4141C122.491 27.4141 123.179 27.2517 123.724 26.9271C124.269 26.6024 124.692 26.1425 124.992 25.5472C125.305 24.952 125.523 24.2553 125.646 23.4572C125.768 22.6455 125.83 21.7662 125.83 20.8193Z" fill="#696E73"/>
<path d="M147.312 26.643V16.8624C147.312 16.159 147.197 15.557 146.965 15.0564C146.733 14.5424 146.372 14.1433 145.882 13.8592C145.405 13.5751 144.785 13.4331 144.021 13.4331C143.367 13.4331 142.802 13.5481 142.325 13.7781C141.848 13.9945 141.48 14.3124 141.221 14.7318C140.962 15.1376 140.833 15.6178 140.833 16.1725H134.946C134.946 15.2391 135.164 14.353 135.6 13.5143C136.036 12.6755 136.67 11.9383 137.501 11.3025C138.332 10.6531 139.32 10.1458 140.465 9.7806C141.623 9.41534 142.918 9.23272 144.348 9.23272C146.065 9.23272 147.592 9.5168 148.927 10.085C150.263 10.6531 151.312 11.5054 152.075 12.6417C152.852 13.7781 153.24 15.1985 153.24 16.903V26.298C153.24 27.502 153.315 28.4895 153.465 29.2606C153.615 30.0182 153.833 30.681 154.119 31.2492V31.5942H148.171C147.885 30.9989 147.667 30.2549 147.517 29.3621C147.38 28.4557 147.312 27.5494 147.312 26.643ZM148.089 18.2219L148.13 21.5295H144.839C144.062 21.5295 143.388 21.6174 142.815 21.7933C142.243 21.9691 141.773 22.2194 141.405 22.5441C141.037 22.8552 140.765 23.2205 140.587 23.6398C140.424 24.0592 140.342 24.5191 140.342 25.0197C140.342 25.5202 140.458 25.9734 140.69 26.3792C140.921 26.7715 141.255 27.0826 141.691 27.3126C142.127 27.5291 142.638 27.6373 143.224 27.6373C144.11 27.6373 144.88 27.4614 145.534 27.1097C146.188 26.758 146.692 26.3251 147.047 25.811C147.415 25.297 147.605 24.81 147.619 24.35L149.172 26.8256C148.954 27.3803 148.655 27.9552 148.273 28.5504C147.905 29.1456 147.435 29.707 146.863 30.2346C146.29 30.7487 145.602 31.1748 144.798 31.513C143.994 31.8377 143.04 32 141.937 32C140.533 32 139.259 31.7227 138.114 31.168C136.983 30.5999 136.084 29.822 135.416 28.8345C134.762 27.8334 134.435 26.6971 134.435 25.4255C134.435 24.2756 134.653 23.2543 135.089 22.3614C135.525 21.4686 136.166 20.7178 137.01 20.1091C137.869 19.4868 138.939 19.0201 140.22 18.7089C141.501 18.3843 142.986 18.2219 144.676 18.2219H148.089Z" fill="#696E73"/>
</svg>
